<svg version="1.2" xmlns="http://www.w3.org/2000/svg" viewBox="0 0 512 512" width="512" height="512">
	<title>ocr</title>
	<style>
		.s0 { fill: #740074 } 
		.s1 { fill: #ffffff } 
	</style>
	<g id="Background">
		<path id="Path 0" class="s0" d="m65 0c52.7 0 54.6 0.1 57.8 2 1.7 1.1 4.1 3.5 5.2 5.3 1.2 1.9 2 5 2 7.7 0 2.7-0.8 5.8-2 7.8-1.1 1.7-3.5 4.1-5.2 5.2-3.2 1.9-5.1 2-92.8 2v44.8c0 42.9-0.1 44.8-2 48-1.1 1.7-3.5 4.1-5.3 5.2-1.9 1.2-5 2-7.7 2-2.7 0-5.8-0.8-7.8-2-1.7-1.1-4.1-3.5-5.2-5.2-1.9-3.2-2-5.1-2-57.8 0-52.7 0.1-54.6 2-57.8 1.1-1.7 3.5-4.1 5.3-5.2 3.1-1.9 5-2 57.7-2z"/>
		<path id="OCR" class="s1" aria-label="OCR"  d="m105.6 179.5q21.9 0 38.3 8.9 16.5 8.9 25.6 25.7 9.2 16.6 9.2 40.4 0 23.2-9.4 40.5-9.3 17.4-26 27.2-16.6 9.7-37.9 9.7-22 0-38.5-8.9-16.4-8.9-25.5-25.7-9.1-16.7-9.1-40.4 0-23.1 9.3-40.5 9.5-17.4 25.9-27.2 16.5-9.7 38.1-9.7zm-0.9 3.7q-11.6 0-20.2 9.4-8.5 9.3-13.3 25.6-4.6 16.4-4.6 37.9 0 22 5.2 38.3 5.4 16.2 14.3 25.1 9.1 8.7 20.1 8.7 11.6 0 20.1-9.3 8.7-9.4 13.2-25.7 4.8-16.6 4.8-37.9 0-22.2-5.4-38.3-5.2-16.2-14.3-24.9-8.9-8.9-19.9-8.9zm165.1-3.7q13.6 0 22.3 4.2 8.9 3.9 15.8 9.3 4.1 3.1 6.2 0.8 2.2-2.5 3.1-11.4h4.7q-0.4 8.1-0.6 19.7-0.2 11.4-0.2 30.4h-4.8q-1-9.5-2.6-16.1-1.7-6.9-4.6-12-2.9-5.2-8.3-9.4-5.2-5.1-12-7.6-6.8-2.5-14.3-2.5-11.2 0-19 6-7.9 5.8-12.9 15.9-4.7 10.2-7 23-2.3 12.7-2.3 26.3 0 13.9 2.3 26.7 2.5 12.7 7.5 22.6 5.1 9.9 13.2 15.7 8.1 5.8 19 5.8 6.9 0 13.7-2.5 7.1-2.6 12-7.6 8.1-6.2 11-15.3 2.9-9.4 4.3-24.7h4.8q0 19.7 0.2 31.9 0.2 12 0.6 20.3h-4.7q-0.9-8.9-2.9-11.2-1.9-2.3-6.4 0.6-7.7 5.4-16.4 9.6-8.5 3.9-21.9 3.9-22 0-38.6-8.9-16.3-8.9-25.4-25.7-9.1-16.7-9.1-40.4 0-23.1 9.3-40.5 9.5-17.4 25.9-27.2 16.5-9.7 38.1-9.7zm70.8 7.1v-4.2q5.1 0.2 13.8 0.4 8.9 0.2 17.6 0.2 10 0 19.3-0.2 9.3-0.2 13.2-0.2 19.3 0 31.9 4.4 12.9 4.1 19.1 12.2 6.4 8.1 6.4 19.4 0 7.1-2.9 14.3-2.9 7.1-9.9 13.3-6.9 6-18.9 9.7-12 3.5-30.2 3.5h-19.9v-4.1h17.8q12.2 0 18.4-4.6 6.5-4.7 8.7-12.4 2.5-7.9 2.5-17.4 0-16.3-5.8-25.2-5.8-9.1-19.8-9.1-8.1 0-10.6 3.5-2.3 3.5-2.3 14.3v102.7q0 7.4 1.1 11.1 1.2 3.8 4.5 5 3.3 1.2 9.9 1.7v4.1q-5.5-0.4-14-0.4-8.5-0.2-17.2-0.2-10 0-18.9 0.2-8.7 0-13.8 0.4v-4.1q6.6-0.5 9.9-1.7 3.3-1.2 4.4-5 1.2-3.7 1.2-11.1v-102.7q0-7.7-1.2-11.2-1.1-3.7-4.6-5-3.3-1.4-9.7-1.6zm39.5 72.8l-0.4-3.5q8.9 0.2 15.3 0.8 6.6 0.7 11.6 1.3 5 0.4 8.9 0.6 18.9 1.7 27.8 8.1 9.1 6.4 11.8 19.2l4.7 21.4q1.9 8.2 4 11.6 2 3.3 6 3.3 2.7-0.2 4.3-1.3 1.9-1.2 3.9-3.5l2.9 2.5q-5.5 6.4-12 9.3-6.4 2.7-15.5 2.7-11.2 0-18.4-4.8-7.3-4.7-9.5-17.6l-3.8-20.7q-1.4-8.7-3.5-15.1-2.1-6.6-5.8-10.3-3.5-4-9.9-4z"/>
		<path id="Path 4" class="s0" d="m392.4 0l109.1-0.1 3.5 2.3c1.9 1.3 4.3 3.9 5.2 5.8 1.6 3.2 1.8 8.1 1.8 57 0 49-0.2 53.8-1.8 56.9-0.9 1.9-3 4.4-4.5 5.5-2.1 1.6-4.4 2.1-8.7 2.1-4.3 0-6.6-0.5-8.7-2.1-1.5-1.1-3.6-3.6-4.5-5.5-1.6-3.1-1.8-7.5-1.8-91.9h-44.2c-40.2 0-44.6-0.2-47.7-1.8-1.9-0.9-4.3-2.8-5.4-4.2-1-1.4-2.1-4.7-2.3-7.5-0.4-3.6 0-6 1.3-8.5 1-1.9 3.3-4.5 5.2-5.7z"/>
		<path id="Path 5" class="s0" d="m15 382c2.7 0 5.8 0.8 7.8 2 1.7 1.1 4.1 3.5 5.2 5.3 1.9 3.1 2 5 2 92.7h44.8c42.9 0 44.8 0.1 48 2 1.7 1.1 4.1 3.5 5.2 5.2 1.2 2 2 5.1 2 7.8 0 2.7-0.8 5.8-2 7.7-1.1 1.8-3.5 4.2-5.2 5.3-3.2 1.9-5.1 2-57.8 2-52.7 0-54.6-0.1-57.8-2-1.7-1.1-4.1-3.5-5.2-5.3-1.9-3.1-2-5-2-57.7 0-52.7 0.1-54.6 2-57.8 1.1-1.7 3.5-4.1 5.2-5.2 2-1.2 5.1-2 7.8-2z"/>
		<path id="Path 6" class="s0" d="m498.5 382.4c2.8 0.2 6.1 1.3 7.5 2.3 1.4 1.1 3.3 3.5 4.2 5.4 1.6 3.1 1.8 7.9 1.8 56.9 0 48.9-0.2 53.8-1.8 57-0.9 1.9-3.3 4.5-8.7 8.1h-109l-3.5-2.3c-1.9-1.3-4.3-3.9-5.3-5.8-1.3-2.5-1.7-4.9-1.3-8.5 0.2-2.7 1.3-6.1 2.3-7.5 1.1-1.4 3.5-3.3 5.4-4.2 3.1-1.6 7.5-1.8 91.9-1.8l0.2-45.4c0.3-44.2 0.4-45.5 2.4-48.3 1.1-1.5 3.6-3.6 5.5-4.6 2.5-1.3 4.8-1.7 8.4-1.3z"/>
	</g>
</svg>