<svg version="1.2" xmlns="http://www.w3.org/2000/svg" viewBox="0 0 2048 2048" width="2048" height="2048">
	<title>diagrams</title>
	<style>
		.s0 { fill: #740074 } 
		.s1 { fill: #ffffff } 
	</style>
	<g id="Background">
		<path id="Path 0" class="s0" d="m1972.5 0l8.5 2c4.7 1.1 13 4.3 18.5 6.9 5.5 2.7 13 7.5 16.8 10.5 3.7 3.1 9.5 9.1 12.8 13.3 3.4 4.3 8.1 11.8 10.5 16.8 2.3 5 5.1 11.7 6.1 15 1.7 5.8 1.8 44 2.4 1907l-2.2 9.5c-1.4 6-4 13-7 19-2.6 5.2-7.4 12.6-10.6 16.4-3.2 3.9-8.7 9.4-12.3 12.3-3.6 2.9-11 7.5-16.5 10.3-5.7 2.8-13.7 5.8-18.5 7-8.5 2-10.1 2-959.5 1.7-912-0.2-951.2-0.3-957-2-3.3-1-10.5-4-16-6.7-5.5-2.7-12.8-7.2-16.3-10-3.4-2.7-8.9-8.3-12.2-12.3-3.3-4-8.2-11.6-11-17.2-2.7-5.5-5.7-12.7-6.7-16-1.7-5.7-1.8-46.7-2-957-0.3-950.8-0.3-951 1.7-959.5 1.2-4.7 4.2-12.9 7-18.5 2.7-5.5 7.2-12.8 10-16.3 2.7-3.4 8-8.7 11.8-11.8 3.7-3 9.4-7.1 12.7-8.9 3.3-1.9 8.7-4.5 12-5.9 3.3-1.3 9.2-3.1 13-3.9 6.2-1.4 114.8-1.5 1904-1.7z"/>
		<path id="Path 1" class="s1" d="m1030 243.4c185.5 0.2 201 0.3 207.5 1.9 3.8 0.9 9.9 2.6 13.5 3.8 3.6 1.1 10.1 3.9 14.5 6.1 4.4 2.2 10.7 5.8 14 8.1 3.3 2.2 9.9 7.9 14.6 12.6 4.8 4.8 11.2 12.6 14.5 17.6 3.2 4.9 7.3 12.6 9.2 17 1.8 4.4 4.2 11.4 5.3 15.5 1 4.1 2.3 10.9 2.9 15 0.6 4.6 0.9 67.3 0.9 160 0 92.7-0.3 155.4-0.9 160-0.6 4.1-1.9 11.1-3.1 15.5-1.1 4.4-4.4 13-7.3 19-2.9 6-8 14.6-11.3 19-3.3 4.4-9.1 10.9-12.9 14.4-3.8 3.6-10.7 9-15.4 12-4.7 3.1-11.9 7-16 8.8-4.1 1.8-10.6 4.1-14.3 5-5.1 1.4-6.7 2.2-6.4 3.3 0.3 0.8 51.3 87.9 226.5 385.5l114.8 0.6c111.9 0.5 115.1 0.6 123.9 2.6 5 1.1 11.9 3.2 15.5 4.6 3.6 1.3 9 3.7 12 5.2 3 1.5 8 4.4 11 6.5 3 2 8.6 6.4 12.4 9.6 3.8 3.2 10.1 9.9 13.9 14.9 3.9 5.1 9.3 13.8 12.3 20 2.9 6 6.6 15.5 10.9 31v330l-2.8 10c-1.6 5.5-4.5 13.6-6.6 18-2 4.4-5.8 11.3-8.4 15.2-2.6 4-8 10.7-12 14.9-3.9 4.2-10.1 9.8-13.7 12.5-3.6 2.7-10.8 7.1-16 9.8-5.2 2.7-13.1 6-17.5 7.4-4.4 1.4-11.6 3-16 3.7-5.8 0.8-63.4 1-417 0.5l-9.5-2.6c-5.2-1.4-13.3-4.4-18-6.6-4.7-2.1-12.1-6.3-16.5-9.3-4.4-3-11.6-9-16.1-13.4-4.4-4.5-10.8-12.4-14.2-17.6-3.5-5.3-8-13.9-10.2-19.5-2.1-5.5-4.6-13.4-5.6-17.5-1.7-7-1.8-17.7-2.2-165-0.2-104.8 0.1-160.2 0.8-165.5 0.5-4.4 1.9-11.4 2.9-15.5 1.1-4.1 3.3-10.4 4.8-14 1.5-3.6 4.4-9.4 6.3-12.9 1.9-3.5 6.5-10.1 10.1-14.5 3.6-4.5 9.7-10.7 13.5-13.9 3.8-3.3 10.5-8.1 14.9-10.8 4.4-2.7 11.6-6.3 16-8 4.4-1.7 11.4-4 15.5-5.1 6.5-1.8 11.2-2.1 35.8-2.4 15.5-0.2 28.2-0.7 28.2-1.2 0-0.4-51-87.2-226.5-385.2h-87.5c-70.4-0.1-87.7 0.2-88.6 1.2-0.6 0.7-51.4 87.1-112.8 192-61.4 105-111.6 191.3-111.6 191.8 0 0.6 10 1.1 27.2 1.3 25.4 0.3 28 0.5 36.8 2.9 5.2 1.4 13.5 4.4 18.5 6.7 5 2.3 11.9 6.2 15.5 8.6 3.6 2.3 9.8 7.4 13.9 11.1 4 3.8 9.9 10.3 13 14.4 3.1 4.1 7.5 11.1 9.8 15.5 2.2 4.4 5.4 12.3 7.1 17.5 1.7 5.2 3.5 13.1 4.2 17.5 0.8 5.8 1 52.4 0.5 328l-2.8 10c-1.5 5.5-5 14.5-7.6 20-2.7 5.5-7.6 13.6-10.8 18-3.3 4.4-9.1 10.9-12.9 14.5-3.8 3.6-9.6 8.4-12.9 10.6-3.3 2.3-9.6 5.9-14 8.1-4.4 2.3-11.6 5.2-16 6.6-4.4 1.4-11.6 3-16 3.7-5.8 0.8-63.4 1-417 0.5l-9.5-2.6c-5.2-1.4-13.3-4.4-18-6.6-4.7-2.1-12.1-6.3-16.5-9.3-4.4-3-11.6-9-16.1-13.4-4.4-4.5-10.6-11.9-13.7-16.6-3-4.7-7-11.7-8.7-15.5-1.7-3.8-4.2-10.6-5.5-15-1.2-4.4-2.8-12-3.5-17-0.8-6.7-1-49.6-0.8-166.5 0.4-147.6 0.5-158 2.2-165 1-4.1 3.3-11.5 5.3-16.5 1.9-5 5.4-12.4 7.9-16.5 2.4-4.1 7.3-10.9 10.7-15 3.4-4.1 9.9-10.4 14.4-14 4.4-3.6 11.4-8.4 15.4-10.7 4.1-2.4 11.8-5.9 17.1-7.8 5.4-1.9 13.7-4.2 18.5-5 7.5-1.3 25.5-1.5 235.3-1.5l113.7-194.2c62.6-106.8 113.7-194.5 113.6-194.8-0.1-0.3-4.6-1.9-10-3.5-5.4-1.7-13.4-5-17.8-7.4-4.4-2.4-10.9-6.4-14.5-9.1-3.6-2.6-9.7-8.1-13.5-12.1-3.9-4.1-9.1-10.6-11.7-14.4-2.6-3.9-6.6-11-8.9-16-2.3-5-5.4-13.3-9.4-28v-330l2.1-8c1.2-4.4 3.6-11.6 5.4-16 1.7-4.4 5-11.2 7.3-15 2.3-3.9 6.8-10.2 10-14 3.3-3.9 8.9-9.6 12.6-12.8 3.6-3.3 10.2-8.1 14.6-10.8 4.4-2.7 11.1-6.2 15-7.8 3.9-1.6 10.6-3.9 15-5 4.4-1.2 11.4-2.5 15.5-3 4.1-0.5 97.7-0.8 208-0.7z"/>
	</g>
</svg>