<?xml version="1.0" encoding="UTF-8" standalone="no"?>
<!-- Created with Inkscape (http://www.inkscape.org/) -->

<svg
   width="48mm"
   height="8mm"
   viewBox="0 0 48.000038 8.000004"
   version="1.1"
   id="svg5"
   inkscape:export-filename="../e820b07/lexi-circle.png"
   inkscape:export-xdpi="96"
   inkscape:export-ydpi="96"
   sodipodi:docname="lexi-typography.svg"
   inkscape:version="1.2.2 (b0a8486541, 2022-12-01, custom)"
   xml:space="preserve"
   xmlns:inkscape="http://www.inkscape.org/namespaces/inkscape"
   xmlns:sodipodi="http://sodipodi.sourceforge.net/DTD/sodipodi-0.dtd"
   xmlns="http://www.w3.org/2000/svg"
   xmlns:svg="http://www.w3.org/2000/svg"><sodipodi:namedview
     id="namedview7"
     pagecolor="#ffffff"
     bordercolor="#000000"
     borderopacity="0.25"
     inkscape:showpageshadow="2"
     inkscape:pageopacity="0.0"
     inkscape:pagecheckerboard="0"
     inkscape:deskcolor="#d1d1d1"
     inkscape:document-units="mm"
     showgrid="false"
     inkscape:zoom="5.17549"
     inkscape:cx="116.22088"
     inkscape:cy="42.508052"
     inkscape:window-width="1920"
     inkscape:window-height="2043"
     inkscape:window-x="1920"
     inkscape:window-y="27"
     inkscape:window-maximized="0"
     inkscape:current-layer="text382" /><defs
     id="defs2" /><g
     inkscape:label="Layer 1"
     inkscape:groupmode="layer"
     id="layer1"
     transform="translate(-0.42957634,-0.42249986)"><g
       aria-label="Lexi"
       id="text382"
       style="font-style:italic;font-size:7.78245px;font-family:'Playfair Display';-inkscape-font-specification:'Playfair Display Italic';fill:#ffffff;stroke:#000000;stroke-width:0"
       transform="matrix(0.86169443,0,0,0.79078319,0.34602951,0.20545484)"><g
         id="g326"
         transform="matrix(0.46316236,0,0,0.50469512,-0.13890198,0.11442606)"
         style="font-style:italic;font-size:7.78245px;font-family:'Playfair Display';-inkscape-font-specification:'Playfair Display Italic';fill:#ffffff;stroke:#000000;stroke-width:0"><g
           id="g314"><ellipse
             style="fill:#800080;fill-opacity:1;stroke:#000000;stroke-width:0;stroke-dasharray:none"
             id="path5358"
             cx="10.334079"
             cy="10.443915"
             rx="9.8248434"
             ry="9.9180708" /><g
             aria-label="L"
             id="text292"
             style="font-weight:bold;font-size:15.1839px;font-family:'Alte Haas Grotesk';-inkscape-font-specification:'Alte Haas Grotesk Bold';fill:#ffffff;stroke:#000000;stroke-width:0"><g
               id="path416"
               style="fill:#ffffff"><path
                 style="color:#000000;-inkscape-font-specification:'Playfair Display Bold Italic';fill:#ffffff;stroke:none;-inkscape-stroke:none"
                 d="m 13.25818,12.418224 q -0.0911,0.242942 -0.182207,0.561804 -0.0911,0.318862 -0.182207,0.683276 -0.07592,0.288494 -0.19739,0.835114 -0.121472,0.531437 -0.212575,1.108425 -0.774379,-0.03037 -1.730965,-0.03037 -0.9565852,-0.01518 -1.7157802,-0.01518 -0.3795975,0 -0.9717696,0 -0.5769882,0 -1.2754476,0.01518 -0.6984594,0 -1.3969188,0.01518 -0.6984594,0 -1.3209993,0.01518 l 0.07592,-0.303678 q 0.5162526,-0.03037 0.8047467,-0.121471 0.2884941,-0.0911 0.4403331,-0.364414 0.1670229,-0.27331 0.3188619,-0.81993 L 7.7160565,6.4661353 Q 7.8678955,5.904331 7.8375277,5.6462047 7.8071599,5.3728945 7.5642175,5.2817911 7.336459,5.1755038 6.8202064,5.1603199 l 0.07592,-0.303678 q 0.3947814,0.015184 1.062873,0.030368 0.6832755,0.015184 1.4424705,0.015184 0.6680921,0 1.2906321,-0.015184 0.62254,-0.015184 1.078056,-0.030368 l -0.07592,0.303678 q -0.516252,0.015184 -0.804746,0.1214712 -0.288494,0.091103 -0.455517,0.3644136 -0.167023,0.2581263 -0.318861,0.8199306 L 8.1108379,13.99735 q -0.1366551,0.54662 -0.1214712,0.81993 0.015184,0.27331 0.2429424,0.364414 0.2429424,0.07592 0.759195,0.07592 h 0.607356 q 0.6832759,0 1.2754479,-0.27331 0.607356,-0.27331 1.123608,-0.89585 0.516253,-0.62254 0.926218,-1.670229 z"
                 id="path421" /><path
                 style="color:#000000;-inkscape-font-specification:'Playfair Display Bold Italic';fill:#ffffff;stroke:none;-inkscape-stroke:none"
                 d="m 13.25818,12.418224 c -0.06073,0.161961 -0.121469,0.34923 -0.182207,0.561804 -0.06073,0.212574 -0.121469,0.440334 -0.182207,0.683276 -0.05061,0.192329 -0.11641,0.470701 -0.19739,0.835114 -0.08098,0.354291 -0.15184,0.723767 -0.212575,1.108425 -0.516252,-0.02025 -1.093242,-0.03037 -1.730965,-0.03037 -0.637723,-0.01012 -1.2096507,-0.01518 -1.7157802,-0.01518 H 8.0652862 c -0.3846584,0 -0.8098085,0.0051 -1.2754476,0.01518 -0.4656391,0 -0.9312797,0.0051 -1.3969188,0.01518 -0.4656391,0 -0.9059731,0.0051 -1.3209993,0.01518 l 0.07592,-0.303678 c 0.3441681,-0.02025 0.6124175,-0.06074 0.8047467,-0.121471 0.1923292,-0.06073 0.3391072,-0.182205 0.4403331,-0.364414 0.1113485,-0.182206 0.217636,-0.455517 0.3188619,-0.81993 L 7.7160565,6.4661353 C 7.8172824,6.0915995 7.8577729,5.8182887 7.8375277,5.6462047 7.8172825,5.4639981 7.7261789,5.3425266 7.5642175,5.2817911 7.4123787,5.210933 7.1643745,5.1704425 6.8202064,5.1603199 l 0.07592,-0.303678 c 0.2631873,0.010123 0.617479,0.020245 1.062873,0.030368 0.4555165,0.010123 0.936341,0.015184 1.4424705,0.015184 0.445394,0 0.8756051,-0.00506 1.2906321,-0.015184 0.415026,-0.010123 0.774379,-0.020245 1.078056,-0.030368 l -0.07592,0.303678 c -0.344167,0.010123 -0.612416,0.050613 -0.804746,0.1214712 -0.192329,0.060735 -0.344169,0.1822067 -0.455517,0.3644136 -0.111348,0.172084 -0.217636,0.4453948 -0.318861,0.8199306 L 8.1108379,13.99735 c -0.091103,0.364413 -0.1315938,0.637724 -0.1214712,0.81993 0.010123,0.182206 0.091104,0.303678 0.2429424,0.364414 0.1619614,0.05061 0.4150269,0.07592 0.759195,0.07592 h 0.607356 c 0.4555169,0 0.8806669,-0.0911 1.2754479,-0.27331 0.404904,-0.182206 0.77944,-0.480824 1.123608,-0.89585 0.344168,-0.415026 0.652908,-0.97177 0.926218,-1.670229 z"
                 id="path423" /></g></g></g><g
           aria-label="x"
           id="text400"
           style="font-weight:bold;font-size:11.2158px;font-family:Lato;-inkscape-font-specification:'Lato Bold';fill:#ffffff;stroke:#000000;stroke-width:0"><g
             id="path425"
             style="fill:#ffffff"><path
               style="color:#000000;-inkscape-font-specification:'Playfair Display Italic';fill:#ffffff;stroke:none;-inkscape-stroke:none"
               d="m 14.558656,10.733868 q 0.04486,0.291611 0.13459,0.403769 0.100942,0.112158 0.246747,0.112158 0.168237,0 0.34769,-0.190668 0.179453,-0.201885 0.403769,-0.841185 l 0.145805,-0.4149851 h 0.2131 L 15.769962,10.62171 q -0.157021,0.448632 -0.370121,0.69538 -0.201884,0.246748 -0.437416,0.34769 -0.224316,0.100942 -0.471064,0.100942 -0.34769,0 -0.605653,-0.224316 Q 13.627745,11.31709 13.56045,10.733868 L 13.111818,6.7186118 Q 13.066955,6.427001 12.966012,6.314843 12.876286,6.202685 12.730481,6.202685 q -0.112158,0 -0.235532,0.078511 -0.112158,0.078511 -0.235532,0.3028266 -0.123374,0.224316 -0.280395,0.6505164 l -0.145805,0.4149847 h -0.213101 l 0.280395,-0.8187535 q 0.168237,-0.448632 0.370122,-0.6953796 0.201884,-0.2467476 0.437416,-0.3476898 0.235532,-0.1009422 0.471064,-0.1009422 0.392553,0 0.628084,0.224316 0.235532,0.2131002 0.302827,0.8075376 z m 0.942127,-4.362946 q -0.34769,0.3140424 -0.605653,0.729027 -0.257963,0.4149846 -0.437416,0.8411851 -0.179453,0.4149846 -0.302827,0.7626744 0,0 -0.112158,0 -0.112158,-0.011216 -0.112158,-0.011216 0.07851,-0.224316 0.179453,-0.4934952 0.100942,-0.280395 0.246748,-0.5832216 0.145805,-0.3028267 0.347689,-0.6168691 0.213101,-0.3252582 0.48228,-0.6280848 0.325258,-0.3701214 0.583221,-0.5271426 0.257964,-0.1570212 0.538359,-0.1570212 0.2131,0 0.34769,0.112158 0.145805,0.112158 0.145805,0.3028266 0,0.2131002 -0.168237,0.3813372 -0.157021,0.1570212 -0.4262,0.1570212 -0.246748,0 -0.426201,-0.089726 -0.179453,-0.1009424 -0.280395,-0.179453 z m -3.645135,4.710636 q 0.527143,-0.482279 0.930912,-1.1327957 0.403768,-0.6505164 0.616869,-1.2000906 0,0 0.08973,0.022432 0.100942,0.022432 0.100942,0.022432 -0.112158,0.3028266 -0.291611,0.672948 -0.168237,0.3701214 -0.437416,0.7738903 -0.269179,0.403769 -0.661732,0.829969 -0.336474,0.34769 -0.605653,0.527143 -0.269179,0.168237 -0.527143,0.168237 -0.246747,0 -0.370121,-0.112158 -0.13459,-0.112158 -0.13459,-0.302827 0,-0.2131 0.168237,-0.370121 0.168237,-0.168237 0.414985,-0.168237 0.257963,0 0.4262,0.08973 0.168237,0.08973 0.280395,0.179453 z"
               id="path430" /><path
               style="color:#000000;-inkscape-font-specification:'Playfair Display Italic';fill:#ffffff;stroke:none;-inkscape-stroke:none"
               d="m 14.558656,10.733868 c 0.02991,0.194407 0.07477,0.328997 0.13459,0.403769 0.06729,0.07477 0.149544,0.112158 0.246747,0.112158 0.112158,0 0.228055,-0.06356 0.34769,-0.190668 0.119635,-0.13459 0.254225,-0.414985 0.403769,-0.841185 l 0.145805,-0.4149851 h 0.2131 L 15.769962,10.62171 c -0.104681,0.299088 -0.228054,0.530881 -0.370121,0.69538 -0.134589,0.164499 -0.280395,0.280395 -0.437416,0.34769 -0.149544,0.06729 -0.306565,0.100942 -0.471064,0.100942 -0.231793,0 -0.433678,-0.07477 -0.605653,-0.224316 -0.171975,-0.149544 -0.280395,-0.418724 -0.325258,-0.807538 L 13.111818,6.7186118 C 13.081908,6.5242048 13.033308,6.3896149 12.966012,6.314843 12.906192,6.240071 12.827684,6.202685 12.730481,6.202685 c -0.07477,0 -0.153283,0.02617 -0.235532,0.078511 -0.07477,0.052341 -0.153283,0.153283 -0.235532,0.3028266 -0.08225,0.1495439 -0.175714,0.3663831 -0.280395,0.6505164 l -0.145805,0.4149847 h -0.213101 l 0.280395,-0.8187535 c 0.112158,-0.2990877 0.235532,-0.5308814 0.370122,-0.6953796 0.134589,-0.1644982 0.280395,-0.2803951 0.437416,-0.3476898 0.157021,-0.067295 0.314043,-0.1009422 0.471064,-0.1009422 0.261702,0 0.471063,0.074772 0.628084,0.224316 0.157021,0.1420667 0.257964,0.4112464 0.302827,0.8075376 z M 15.500783,6.370922 C 15.26899,6.5802834 15.067105,6.8232929 14.89513,7.099949 14.723155,7.3766051 14.577349,7.6570007 14.457714,7.9411341 14.338079,8.2177902 14.237136,8.4720155 14.154887,8.7038085 h -0.112158 l -0.112158,-0.011216 c 0.05234,-0.1495439 0.112158,-0.3140426 0.179453,-0.4934952 0.0673,-0.1869298 0.149544,-0.3813374 0.246748,-0.5832216 0.0972,-0.2018843 0.2131,-0.4075077 0.347689,-0.6168691 0.142067,-0.2168386 0.302828,-0.4262006 0.48228,-0.6280848 0.216838,-0.2467474 0.411246,-0.4224619 0.583221,-0.5271426 0.171976,-0.1046807 0.351429,-0.1570212 0.538359,-0.1570212 0.142067,0 0.257963,0.037386 0.34769,0.112158 0.0972,0.074772 0.145805,0.1757143 0.145805,0.3028266 0,0.1420667 -0.05608,0.2691793 -0.168237,0.3813372 -0.104681,0.1046807 -0.246748,0.1570212 -0.4262,0.1570212 -0.164499,0 -0.306566,-0.029909 -0.426201,-0.089726 -0.119635,-0.067295 -0.2131,-0.1271127 -0.280395,-0.179453 z m -3.645135,4.710636 c 0.351428,-0.321519 0.661733,-0.699118 0.930912,-1.1327957 0.269178,-0.4336772 0.474802,-0.8337082 0.616869,-1.2000906 l 0.08973,0.022432 0.100942,0.022432 c -0.07477,0.2018842 -0.171976,0.4262006 -0.291611,0.672948 -0.112158,0.2467474 -0.257964,0.5047112 -0.437416,0.7738903 -0.179452,0.269179 -0.40003,0.545836 -0.661732,0.829969 -0.224316,0.231793 -0.426201,0.407508 -0.605653,0.527143 -0.179452,0.112158 -0.355167,0.168237 -0.527143,0.168237 -0.164498,0 -0.287872,-0.03739 -0.370121,-0.112158 -0.08973,-0.07477 -0.13459,-0.175715 -0.13459,-0.302827 0,-0.142067 0.05608,-0.265441 0.168237,-0.370121 0.112158,-0.112158 0.250486,-0.168237 0.414985,-0.168237 0.171975,0 0.314042,0.02991 0.4262,0.08973 0.112158,0.05982 0.205623,0.119638 0.280395,0.179453 z"
               id="path432" /></g></g></g><g
         id="path781"
         style="font-style:italic;font-size:7.78245px;font-family:'Playfair Display';-inkscape-font-specification:'Playfair Display Italic';fill:#ffffff;stroke:#000000;stroke-width:0"
         transform="matrix(0.86278005,0,0,0.86278005,11.924951,-14.184524)"><g
           aria-label="Lexichat"
           transform="scale(0.95797039,1.0438736)"
           id="text600"
           style="font-weight:bold;font-size:12.1883px;-inkscape-font-specification:'Playfair Display Bold Italic'"><path
             d="m 8.0279902,23.539334 q -0.07313,0.195013 -0.1462596,0.450967 -0.07313,0.255954 -0.1462596,0.548474 -0.060942,0.231577 -0.1584479,0.670356 -0.097506,0.426591 -0.1706362,0.889746 -0.6216033,-0.02438 -1.3894662,-0.02438 -0.7678629,-0.01219 -1.3772779,-0.01219 -0.3047075,0 -0.7800512,0 -0.4631554,0 -1.0238172,0.01219 -0.5606618,0 -1.1213236,0.01219 -0.5606618,0 -1.06038215,0.01219 l 0.0609415,-0.243766 q 0.41440225,-0.02438 0.64597995,-0.09751 0.2315777,-0.07313 0.3534607,-0.29252 0.1340713,-0.219389 0.2559543,-0.658168 L 3.5792607,18.76152 q 0.121883,-0.450967 0.097506,-0.658168 -0.024377,-0.219389 -0.2193894,-0.292519 -0.1828245,-0.08532 -0.5972267,-0.09751 l 0.060941,-0.243766 q 0.3168958,0.01219 0.853181,0.02438 0.5484735,0.01219 1.1578885,0.01219 0.5362852,0 1.0360055,-0.01219 0.4997203,-0.01219 0.8653693,-0.02438 l -0.060942,0.243766 q -0.4144022,0.01219 -0.6459799,0.09751 -0.2315777,0.07313 -0.365649,0.292519 -0.1340713,0.207201 -0.2559543,0.658168 l -1.6088556,6.045397 q -0.1096947,0.438779 -0.097506,0.658168 0.012188,0.21939 0.1950128,0.29252 0.1950128,0.06094 0.609415,0.06094 h 0.487532 q 0.5484735,0 1.0238172,-0.219389 0.487532,-0.21939 0.9019342,-0.71911 0.4144022,-0.49972 0.7434863,-1.340713 z"
             id="path801" /><path
             d="m 10.148749,23.454016 q 0.49972,-0.195013 0.950687,-0.438779 0.450968,-0.243766 0.767863,-0.536285 0.475344,-0.426591 0.755675,-0.987252 0.292519,-0.572851 0.292519,-1.231019 0,-0.243766 -0.04875,-0.316896 -0.04875,-0.08532 -0.14626,-0.08532 -0.268142,0 -0.585038,0.280331 -0.304708,0.268143 -0.609415,0.731298 -0.304708,0.450967 -0.560662,1.036006 -0.243766,0.585038 -0.402214,1.21883 -0.146259,0.633791 -0.146259,1.231018 0,0.682545 0.255954,0.938499 0.268143,0.243766 0.682545,0.243766 0.329084,0 0.816616,-0.219389 0.487532,-0.21939 0.962876,-0.780051 l 0.195012,0.09751 q -0.255954,0.402214 -0.670356,0.780051 -0.414402,0.377837 -0.962876,0.621603 -0.548473,0.231578 -1.194453,0.231578 -0.5484738,0 -0.9872526,-0.195013 -0.4265905,-0.195012 -0.6825448,-0.57285 -0.243766,-0.390025 -0.243766,-0.950687 0,-0.64598 0.2072011,-1.328525 0.2193894,-0.682545 0.609415,-1.316336 0.3900256,-0.64598 0.9384993,-1.157889 0.548473,-0.524097 1.21883,-0.816616 0.670356,-0.304707 1.426031,-0.304707 0.536285,0 0.901934,0.243766 0.365649,0.231577 0.365649,0.719109 0,0.475344 -0.268142,0.889746 -0.255955,0.414402 -0.694734,0.755675 -0.438778,0.341272 -0.987252,0.609415 -0.536285,0.268142 -1.109135,0.463155 -0.560662,0.195013 -1.060382,0.304708 z"
             id="path803" /><path
             d="m 18.729311,25.07506 q 0.06094,0.316896 0.158447,0.438779 0.09751,0.121883 0.255955,0.121883 0.170636,0 0.341272,-0.195013 0.182825,-0.207201 0.402214,-0.853181 l 0.158448,-0.450967 h 0.231578 l -0.304708,0.889746 q -0.170636,0.511908 -0.438779,0.780051 -0.268142,0.268142 -0.585038,0.365649 -0.316896,0.09751 -0.609415,0.09751 -0.536285,0 -0.914123,-0.255954 -0.365649,-0.255954 -0.438778,-0.938499 l -0.487532,-4.253717 q -0.04875,-0.316896 -0.158448,-0.414402 -0.109695,-0.09751 -0.268143,-0.09751 -0.109695,0 -0.219389,0.07313 -0.109695,0.06094 -0.231578,0.280331 -0.121883,0.207201 -0.280331,0.64598 l -0.158448,0.450967 h -0.231578 l 0.304708,-0.889746 q 0.182824,-0.511908 0.450967,-0.780051 0.268143,-0.268143 0.597227,-0.365649 0.329084,-0.09751 0.633791,-0.09751 0.572851,0 0.914123,0.268142 0.341272,0.255954 0.414402,1.023817 z m 0.597226,-4.582801 q -0.304707,0.341272 -0.536285,0.767863 -0.231578,0.42659 -0.390026,0.865369 -0.158447,0.426591 -0.268142,0.780051 0,0 -0.121883,0 -0.121883,-0.01219 -0.121883,-0.01219 0.04875,-0.158448 0.134071,-0.438779 0.09751,-0.280331 0.243766,-0.633791 0.14626,-0.365649 0.353461,-0.731298 0.207201,-0.377838 0.475344,-0.71911 0.341272,-0.426591 0.670356,-0.585039 0.341272,-0.158447 0.670357,-0.158447 0.390025,0 0.633791,0.207201 0.255954,0.207201 0.255954,0.597226 0,0.377838 -0.255954,0.633792 -0.255954,0.243766 -0.658168,0.243766 -0.341272,0 -0.64598,-0.195013 -0.292519,-0.195013 -0.438779,-0.621603 z m -3.571172,4.911885 q 0.463156,-0.524097 0.79224,-1.194454 0.329084,-0.670356 0.49972,-1.21883 0,0 0.109695,0.01219 0.121883,0.01219 0.121883,0.01219 -0.09751,0.341272 -0.268143,0.780051 -0.170636,0.426591 -0.42659,0.877558 -0.243766,0.438779 -0.57285,0.853181 -0.353461,0.414402 -0.694734,0.57285 -0.341272,0.170636 -0.658168,0.170636 -0.42659,0 -0.658168,-0.207201 -0.231578,-0.207201 -0.231578,-0.560662 0,-0.414402 0.280331,-0.658168 0.268143,-0.255954 0.64598,-0.255954 0.402214,0 0.658168,0.231577 0.268143,0.231578 0.402214,0.585039 z"
             id="path805" /><path
             d="m 23.312095,17.76208 q 0.02438,-0.524097 0.377838,-0.804428 0.365649,-0.280331 0.865369,-0.280331 0.450967,0 0.682545,0.219389 0.243766,0.207201 0.219389,0.585039 -0.02438,0.475343 -0.390025,0.780051 -0.365649,0.292519 -0.877558,0.292519 -0.426591,0 -0.670357,-0.207201 -0.231577,-0.219389 -0.207201,-0.585038 z m -0.463155,3.071451 q 0.207201,-0.609415 -0.134071,-0.609415 -0.21939,0 -0.402214,0.21939 -0.182825,0.219389 -0.377838,0.743486 l -0.243766,0.621603 h -0.231577 l 0.341272,-0.926311 q 0.170636,-0.487532 0.426591,-0.755674 0.268142,-0.268143 0.585038,-0.377837 0.329084,-0.121883 0.682545,-0.121883 0.42659,0 0.670356,0.158447 0.243766,0.158448 0.329084,0.414403 0.08532,0.243766 0.06094,0.548473 -0.02438,0.292519 -0.121883,0.585039 l -1.279772,3.729619 q -0.109694,0.329085 -0.06094,0.475344 0.06094,0.134071 0.231578,0.134071 0.158448,0 0.341272,-0.182824 0.195013,-0.182825 0.426591,-0.780051 l 0.219389,-0.585039 h 0.231578 l -0.316896,0.889746 q -0.170636,0.499721 -0.438779,0.767863 -0.268143,0.268143 -0.585038,0.377837 -0.304708,0.109695 -0.621604,0.109695 -0.524097,0 -0.804427,-0.231578 -0.268143,-0.231577 -0.29252,-0.670356 -0.02438,-0.438779 0.170637,-1.036006 z"
             id="path807" /><path
             d="m 29.442794,19.870656 q -0.450968,0 -0.889746,0.390025 -0.438779,0.377837 -0.79224,1.023817 -0.341272,0.64598 -0.548473,1.450408 -0.207202,0.804428 -0.207202,1.657609 0,0.64598 0.255955,0.938499 0.255954,0.280331 0.670356,0.280331 0.390026,0 0.79224,-0.231578 0.402214,-0.231577 0.816616,-0.840992 l 0.243766,0.09751 q -0.243766,0.402214 -0.633792,0.780051 -0.377837,0.377837 -0.889746,0.621603 -0.49972,0.231578 -1.133512,0.231578 -0.853181,0 -1.401654,-0.450967 -0.548474,-0.463155 -0.548474,-1.426031 0,-0.597227 0.182825,-1.255395 0.195013,-0.658168 0.548473,-1.279771 0.353461,-0.633792 0.86537,-1.133512 0.511908,-0.499721 1.157888,-0.79224 0.64598,-0.304707 1.401655,-0.304707 0.670356,0 1.07257,0.341272 0.414402,0.329084 0.414402,0.828804 0,0.329084 -0.158447,0.64598 -0.158448,0.304708 -0.438779,0.511909 -0.268143,0.195013 -0.609415,0.195013 -0.292519,0 -0.499721,-0.182825 -0.195012,-0.195013 -0.195012,-0.524097 0,-0.49972 0.329084,-0.853181 0.341272,-0.365649 0.780051,-0.475343 -0.09751,-0.121883 -0.243766,-0.182825 -0.134071,-0.06094 -0.341272,-0.06094 z"
             id="path809" /><path
             d="m 32.221718,26.098877 h -1.71855 l 2.413283,-8.129596 q 0.121883,-0.414402 -0.02438,-0.609415 -0.14626,-0.195013 -0.743487,-0.195013 l 0.07313,-0.255954 q 0.865369,-0.01219 1.547914,-0.134072 0.682545,-0.134071 1.29196,-0.365649 z m 0.304708,-1.767304 q 0.487532,-1.401654 0.901934,-2.315777 0.42659,-0.914122 0.828804,-1.438219 0.402214,-0.524097 0.828805,-0.731298 0.42659,-0.219389 0.914122,-0.219389 0.597227,0 0.840993,0.255954 0.255954,0.255954 0.255954,0.682545 0,0.414402 -0.158448,0.901934 l -1.194453,3.595548 q -0.109695,0.329085 -0.04875,0.475344 0.06094,0.134071 0.219389,0.134071 0.158448,0 0.341272,-0.170636 0.195013,-0.182824 0.414403,-0.792239 l 0.219389,-0.585039 h 0.231578 l -0.304708,0.889746 q -0.170636,0.511909 -0.450967,0.780051 -0.268142,0.268143 -0.585038,0.365649 -0.304708,0.109695 -0.597227,0.109695 -0.585038,0 -0.853181,-0.255954 -0.255954,-0.268143 -0.255954,-0.706922 0,-0.450967 0.182824,-0.975064 l 1.084759,-3.290841 q 0.07313,-0.207201 0.09751,-0.390025 0.03657,-0.182825 -0.01219,-0.292519 -0.03657,-0.121883 -0.207201,-0.121883 -0.231578,0 -0.536285,0.304707 -0.304708,0.304708 -0.633792,0.853181 -0.316896,0.548474 -0.64598,1.279772 -0.316896,0.731298 -0.621603,1.57229 -0.292519,0.840993 -0.524097,1.730739 z"
             id="path811" /><path
             d="m 39.802836,25.611345 q 0.195013,0 0.426591,-0.207201 0.231578,-0.207201 0.475344,-0.597227 0.243766,-0.402214 0.475343,-0.975064 0.231578,-0.57285 0.426591,-1.328525 l -0.268143,1.328525 q -0.304707,0.901934 -0.670356,1.43822 -0.365649,0.536285 -0.780052,0.767862 -0.414402,0.231578 -0.865369,0.231578 -0.682545,0 -1.023817,-0.402214 -0.341272,-0.402214 -0.341272,-1.096947 0,-0.658168 0.219389,-1.377278 0.231578,-0.719109 0.609415,-1.389466 0.390026,-0.670356 0.865369,-1.206642 0.487532,-0.536285 1.023817,-0.853181 0.548474,-0.316895 1.072571,-0.316895 0.402214,0 0.621603,0.316895 0.21939,0.316896 0.134071,0.987253 l -0.134071,0.07313 q 0.06094,-0.438778 -0.04875,-0.682544 -0.09751,-0.243766 -0.341272,-0.243766 -0.243766,0 -0.548474,0.280331 -0.292519,0.28033 -0.585038,0.767862 -0.29252,0.487533 -0.548474,1.109136 -0.243766,0.609415 -0.390025,1.29196 -0.14626,0.670356 -0.14626,1.328524 0,0.414403 0.08532,0.585039 0.08532,0.170636 0.255954,0.170636 z m 2.58392,-5.801631 q 0.524097,-0.01219 0.950687,-0.04875 0.426591,-0.04875 0.816617,-0.134071 l -1.596668,5.435981 q -0.03657,0.158448 -0.06094,0.304708 -0.01219,0.134071 0.03657,0.219389 0.06094,0.08532 0.195012,0.08532 0.158448,0 0.353461,-0.182824 0.195013,-0.195013 0.402214,-0.780051 l 0.219389,-0.585039 h 0.231578 l -0.304707,0.889746 q -0.170637,0.499721 -0.438779,0.767863 -0.268143,0.268143 -0.57285,0.377837 -0.304708,0.109695 -0.597227,0.109695 -0.633792,0 -0.901934,-0.377837 -0.182825,-0.268143 -0.170636,-0.658168 0.02438,-0.402214 0.170636,-0.914123 z"
             id="path813" /><path
             d="m 49.370636,19.797526 -0.03656,0.243766 h -4.229341 l 0.06094,-0.243766 z m -2.900815,5.265345 q -0.08532,0.316896 0.01219,0.463156 0.109695,0.146259 0.316896,0.146259 0.255954,0 0.511909,-0.255954 0.255954,-0.255954 0.450967,-0.792239 l 0.182824,-0.499721 h 0.231578 l -0.243766,0.706922 q -0.243766,0.731298 -0.71911,1.084758 -0.463155,0.353461 -1.109135,0.353461 -0.560662,0 -0.865369,-0.255954 -0.304708,-0.255954 -0.365649,-0.694733 -0.04875,-0.450967 0.09751,-0.987253 l 1.828245,-6.350104 q 0.524097,-0.01219 0.950687,-0.04875 0.426591,-0.03656 0.816617,-0.121883 z"
             id="path815" /></g></g></g></g></svg>
