<?xml version="1.0" encoding="UTF-8" standalone="no"?>
<!-- Created with Inkscape (http://www.inkscape.org/) -->

<svg
   width="27mm"
   height="8mm"
   viewBox="0 0 27.000017 8.000004"
   version="1.1"
   id="svg5"
   inkscape:export-filename="../e820b07/lexi-circle.png"
   inkscape:export-xdpi="96"
   inkscape:export-ydpi="96"
   sodipodi:docname="lexi-typography.svg"
   inkscape:version="1.2.2 (b0a8486541, 2022-12-01, custom)"
   xml:space="preserve"
   xmlns:inkscape="http://www.inkscape.org/namespaces/inkscape"
   xmlns:sodipodi="http://sodipodi.sourceforge.net/DTD/sodipodi-0.dtd"
   xmlns="http://www.w3.org/2000/svg"
   xmlns:svg="http://www.w3.org/2000/svg"><sodipodi:namedview
     id="namedview7"
     pagecolor="#ffffff"
     bordercolor="#000000"
     borderopacity="0.25"
     inkscape:showpageshadow="2"
     inkscape:pageopacity="0.0"
     inkscape:pagecheckerboard="0"
     inkscape:deskcolor="#d1d1d1"
     inkscape:document-units="mm"
     showgrid="false"
     inkscape:zoom="3.6596241"
     inkscape:cx="96.048116"
     inkscape:cy="38.255295"
     inkscape:window-width="1920"
     inkscape:window-height="2043"
     inkscape:window-x="1920"
     inkscape:window-y="27"
     inkscape:window-maximized="0"
     inkscape:current-layer="layer1" /><defs
     id="defs2" /><g
     inkscape:label="Layer 1"
     inkscape:groupmode="layer"
     id="layer1"
     transform="translate(-0.42957634,-0.42249986)"><g
       id="g326"
       transform="matrix(0.39910442,0,0,0.39910442,0.35421458,0.22633891)"><g
         id="g314"><ellipse
           style="fill:#800080;fill-opacity:1;stroke:#000000;stroke-width:0;stroke-dasharray:none"
           id="path5358"
           cx="10.334079"
           cy="10.443915"
           rx="9.8248434"
           ry="9.9180708" /><g
           aria-label="L"
           id="text292"
           style="font-weight:bold;font-size:15.1839px;font-family:'Alte Haas Grotesk';-inkscape-font-specification:'Alte Haas Grotesk Bold';fill:#ffffff;stroke:#000000;stroke-width:0"><g
             id="path416"
             style="fill:#ffffff"><path
               style="color:#000000;-inkscape-font-specification:'Playfair Display Bold Italic';fill:#ffffff;stroke:none;-inkscape-stroke:none"
               d="m 13.25818,12.418224 q -0.0911,0.242942 -0.182207,0.561804 -0.0911,0.318862 -0.182207,0.683276 -0.07592,0.288494 -0.19739,0.835114 -0.121472,0.531437 -0.212575,1.108425 -0.774379,-0.03037 -1.730965,-0.03037 -0.9565852,-0.01518 -1.7157802,-0.01518 -0.3795975,0 -0.9717696,0 -0.5769882,0 -1.2754476,0.01518 -0.6984594,0 -1.3969188,0.01518 -0.6984594,0 -1.3209993,0.01518 l 0.07592,-0.303678 q 0.5162526,-0.03037 0.8047467,-0.121471 0.2884941,-0.0911 0.4403331,-0.364414 0.1670229,-0.27331 0.3188619,-0.81993 L 7.7160565,6.4661353 Q 7.8678955,5.904331 7.8375277,5.6462047 7.8071599,5.3728945 7.5642175,5.2817911 7.336459,5.1755038 6.8202064,5.1603199 l 0.07592,-0.303678 q 0.3947814,0.015184 1.062873,0.030368 0.6832755,0.015184 1.4424705,0.015184 0.6680921,0 1.2906321,-0.015184 0.62254,-0.015184 1.078056,-0.030368 l -0.07592,0.303678 q -0.516252,0.015184 -0.804746,0.1214712 -0.288494,0.091103 -0.455517,0.3644136 -0.167023,0.2581263 -0.318861,0.8199306 L 8.1108379,13.99735 q -0.1366551,0.54662 -0.1214712,0.81993 0.015184,0.27331 0.2429424,0.364414 0.2429424,0.07592 0.759195,0.07592 h 0.607356 q 0.6832759,0 1.2754479,-0.27331 0.607356,-0.27331 1.123608,-0.89585 0.516253,-0.62254 0.926218,-1.670229 z"
               id="path421" /><path
               style="color:#000000;-inkscape-font-specification:'Playfair Display Bold Italic';fill:#ffffff;stroke:none;-inkscape-stroke:none"
               d="m 13.25818,12.418224 c -0.06073,0.161961 -0.121469,0.34923 -0.182207,0.561804 -0.06073,0.212574 -0.121469,0.440334 -0.182207,0.683276 -0.05061,0.192329 -0.11641,0.470701 -0.19739,0.835114 -0.08098,0.354291 -0.15184,0.723767 -0.212575,1.108425 -0.516252,-0.02025 -1.093242,-0.03037 -1.730965,-0.03037 -0.637723,-0.01012 -1.2096507,-0.01518 -1.7157802,-0.01518 H 8.0652862 c -0.3846584,0 -0.8098085,0.0051 -1.2754476,0.01518 -0.4656391,0 -0.9312797,0.0051 -1.3969188,0.01518 -0.4656391,0 -0.9059731,0.0051 -1.3209993,0.01518 l 0.07592,-0.303678 c 0.3441681,-0.02025 0.6124175,-0.06074 0.8047467,-0.121471 0.1923292,-0.06073 0.3391072,-0.182205 0.4403331,-0.364414 0.1113485,-0.182206 0.217636,-0.455517 0.3188619,-0.81993 L 7.7160565,6.4661353 C 7.8172824,6.0915995 7.8577729,5.8182887 7.8375277,5.6462047 7.8172825,5.4639981 7.7261789,5.3425266 7.5642175,5.2817911 7.4123787,5.210933 7.1643745,5.1704425 6.8202064,5.1603199 l 0.07592,-0.303678 c 0.2631873,0.010123 0.617479,0.020245 1.062873,0.030368 0.4555165,0.010123 0.936341,0.015184 1.4424705,0.015184 0.445394,0 0.8756051,-0.00506 1.2906321,-0.015184 0.415026,-0.010123 0.774379,-0.020245 1.078056,-0.030368 l -0.07592,0.303678 c -0.344167,0.010123 -0.612416,0.050613 -0.804746,0.1214712 -0.192329,0.060735 -0.344169,0.1822067 -0.455517,0.3644136 -0.111348,0.172084 -0.217636,0.4453948 -0.318861,0.8199306 L 8.1108379,13.99735 c -0.091103,0.364413 -0.1315938,0.637724 -0.1214712,0.81993 0.010123,0.182206 0.091104,0.303678 0.2429424,0.364414 0.1619614,0.05061 0.4150269,0.07592 0.759195,0.07592 h 0.607356 c 0.4555169,0 0.8806669,-0.0911 1.2754479,-0.27331 0.404904,-0.182206 0.77944,-0.480824 1.123608,-0.89585 0.344168,-0.415026 0.652908,-0.97177 0.926218,-1.670229 z"
               id="path423" /></g></g></g><g
         aria-label="x"
         id="text400"
         style="font-weight:bold;font-size:11.2158px;font-family:Lato;-inkscape-font-specification:'Lato Bold';fill:#ffffff;stroke:#000000;stroke-width:0"><g
           id="path425"
           style="fill:#ffffff"><path
             style="color:#000000;-inkscape-font-specification:'Playfair Display Italic';fill:#ffffff;stroke:none;-inkscape-stroke:none"
             d="m 14.558656,10.733868 q 0.04486,0.291611 0.13459,0.403769 0.100942,0.112158 0.246747,0.112158 0.168237,0 0.34769,-0.190668 0.179453,-0.201885 0.403769,-0.841185 l 0.145805,-0.4149851 h 0.2131 L 15.769962,10.62171 q -0.157021,0.448632 -0.370121,0.69538 -0.201884,0.246748 -0.437416,0.34769 -0.224316,0.100942 -0.471064,0.100942 -0.34769,0 -0.605653,-0.224316 Q 13.627745,11.31709 13.56045,10.733868 L 13.111818,6.7186118 Q 13.066955,6.427001 12.966012,6.314843 12.876286,6.202685 12.730481,6.202685 q -0.112158,0 -0.235532,0.078511 -0.112158,0.078511 -0.235532,0.3028266 -0.123374,0.224316 -0.280395,0.6505164 l -0.145805,0.4149847 h -0.213101 l 0.280395,-0.8187535 q 0.168237,-0.448632 0.370122,-0.6953796 0.201884,-0.2467476 0.437416,-0.3476898 0.235532,-0.1009422 0.471064,-0.1009422 0.392553,0 0.628084,0.224316 0.235532,0.2131002 0.302827,0.8075376 z m 0.942127,-4.362946 q -0.34769,0.3140424 -0.605653,0.729027 -0.257963,0.4149846 -0.437416,0.8411851 -0.179453,0.4149846 -0.302827,0.7626744 0,0 -0.112158,0 -0.112158,-0.011216 -0.112158,-0.011216 0.07851,-0.224316 0.179453,-0.4934952 0.100942,-0.280395 0.246748,-0.5832216 0.145805,-0.3028267 0.347689,-0.6168691 0.213101,-0.3252582 0.48228,-0.6280848 0.325258,-0.3701214 0.583221,-0.5271426 0.257964,-0.1570212 0.538359,-0.1570212 0.2131,0 0.34769,0.112158 0.145805,0.112158 0.145805,0.3028266 0,0.2131002 -0.168237,0.3813372 -0.157021,0.1570212 -0.4262,0.1570212 -0.246748,0 -0.426201,-0.089726 -0.179453,-0.1009424 -0.280395,-0.179453 z m -3.645135,4.710636 q 0.527143,-0.482279 0.930912,-1.1327957 0.403768,-0.6505164 0.616869,-1.2000906 0,0 0.08973,0.022432 0.100942,0.022432 0.100942,0.022432 -0.112158,0.3028266 -0.291611,0.672948 -0.168237,0.3701214 -0.437416,0.7738903 -0.269179,0.403769 -0.661732,0.829969 -0.336474,0.34769 -0.605653,0.527143 -0.269179,0.168237 -0.527143,0.168237 -0.246747,0 -0.370121,-0.112158 -0.13459,-0.112158 -0.13459,-0.302827 0,-0.2131 0.168237,-0.370121 0.168237,-0.168237 0.414985,-0.168237 0.257963,0 0.4262,0.08973 0.168237,0.08973 0.280395,0.179453 z"
             id="path430" /><path
             style="color:#000000;-inkscape-font-specification:'Playfair Display Italic';fill:#ffffff;stroke:none;-inkscape-stroke:none"
             d="m 14.558656,10.733868 c 0.02991,0.194407 0.07477,0.328997 0.13459,0.403769 0.06729,0.07477 0.149544,0.112158 0.246747,0.112158 0.112158,0 0.228055,-0.06356 0.34769,-0.190668 0.119635,-0.13459 0.254225,-0.414985 0.403769,-0.841185 l 0.145805,-0.4149851 h 0.2131 L 15.769962,10.62171 c -0.104681,0.299088 -0.228054,0.530881 -0.370121,0.69538 -0.134589,0.164499 -0.280395,0.280395 -0.437416,0.34769 -0.149544,0.06729 -0.306565,0.100942 -0.471064,0.100942 -0.231793,0 -0.433678,-0.07477 -0.605653,-0.224316 -0.171975,-0.149544 -0.280395,-0.418724 -0.325258,-0.807538 L 13.111818,6.7186118 C 13.081908,6.5242048 13.033308,6.3896149 12.966012,6.314843 12.906192,6.240071 12.827684,6.202685 12.730481,6.202685 c -0.07477,0 -0.153283,0.02617 -0.235532,0.078511 -0.07477,0.052341 -0.153283,0.153283 -0.235532,0.3028266 -0.08225,0.1495439 -0.175714,0.3663831 -0.280395,0.6505164 l -0.145805,0.4149847 h -0.213101 l 0.280395,-0.8187535 c 0.112158,-0.2990877 0.235532,-0.5308814 0.370122,-0.6953796 0.134589,-0.1644982 0.280395,-0.2803951 0.437416,-0.3476898 0.157021,-0.067295 0.314043,-0.1009422 0.471064,-0.1009422 0.261702,0 0.471063,0.074772 0.628084,0.224316 0.157021,0.1420667 0.257964,0.4112464 0.302827,0.8075376 z M 15.500783,6.370922 C 15.26899,6.5802834 15.067105,6.8232929 14.89513,7.099949 14.723155,7.3766051 14.577349,7.6570007 14.457714,7.9411341 14.338079,8.2177902 14.237136,8.4720155 14.154887,8.7038085 h -0.112158 l -0.112158,-0.011216 c 0.05234,-0.1495439 0.112158,-0.3140426 0.179453,-0.4934952 0.0673,-0.1869298 0.149544,-0.3813374 0.246748,-0.5832216 0.0972,-0.2018843 0.2131,-0.4075077 0.347689,-0.6168691 0.142067,-0.2168386 0.302828,-0.4262006 0.48228,-0.6280848 0.216838,-0.2467474 0.411246,-0.4224619 0.583221,-0.5271426 0.171976,-0.1046807 0.351429,-0.1570212 0.538359,-0.1570212 0.142067,0 0.257963,0.037386 0.34769,0.112158 0.0972,0.074772 0.145805,0.1757143 0.145805,0.3028266 0,0.1420667 -0.05608,0.2691793 -0.168237,0.3813372 -0.104681,0.1046807 -0.246748,0.1570212 -0.4262,0.1570212 -0.164499,0 -0.306566,-0.029909 -0.426201,-0.089726 -0.119635,-0.067295 -0.2131,-0.1271127 -0.280395,-0.179453 z m -3.645135,4.710636 c 0.351428,-0.321519 0.661733,-0.699118 0.930912,-1.1327957 0.269178,-0.4336772 0.474802,-0.8337082 0.616869,-1.2000906 l 0.08973,0.022432 0.100942,0.022432 c -0.07477,0.2018842 -0.171976,0.4262006 -0.291611,0.672948 -0.112158,0.2467474 -0.257964,0.5047112 -0.437416,0.7738903 -0.179452,0.269179 -0.40003,0.545836 -0.661732,0.829969 -0.224316,0.231793 -0.426201,0.407508 -0.605653,0.527143 -0.179452,0.112158 -0.355167,0.168237 -0.527143,0.168237 -0.164498,0 -0.287872,-0.03739 -0.370121,-0.112158 -0.08973,-0.07477 -0.13459,-0.175715 -0.13459,-0.302827 0,-0.142067 0.05608,-0.265441 0.168237,-0.370121 0.112158,-0.112158 0.250486,-0.168237 0.414985,-0.168237 0.171975,0 0.314042,0.02991 0.4262,0.08973 0.112158,0.05982 0.205623,0.119638 0.280395,0.179453 z"
             id="path432" /></g></g></g><g
       aria-label="Lexi"
       id="text382"
       style="font-style:italic;font-size:7.78245px;font-family:'Playfair Display';-inkscape-font-specification:'Playfair Display Italic';fill:#ffffff;stroke:#000000;stroke-width:0"
       transform="matrix(0.86169443,0,0,0.79078319,0.34602951,0.20545484)"><g
         id="path777"
         style="fill:#ffffff"><path
           style="color:#000000;-inkscape-font-specification:'Playfair Display Bold Italic';fill:#ffffff;stroke:none;-inkscape-stroke:none"
           d="m 16.102003,6.6518698 q -0.04669,0.1245192 -0.09339,0.2879506 -0.04669,0.1634315 -0.09339,0.3502103 -0.03891,0.1478665 -0.101172,0.4280347 -0.06226,0.2723858 -0.108954,0.5681189 -0.396905,-0.015565 -0.8872,-0.015565 -0.490294,-0.00778 -0.879416,-0.00778 -0.194562,0 -0.498077,0 -0.295733,0 -0.653726,0.00778 -0.357993,0 -0.715985,0.00778 -0.357993,0 -0.677074,0.00778 l 0.03891,-0.155649 q 0.264603,-0.015565 0.41247,-0.06226 0.147866,-0.046695 0.225691,-0.1867788 0.08561,-0.1400841 0.163431,-0.4202523 l 1.027283,-3.8600953 q 0.07783,-0.2879507 0.06226,-0.4202523 -0.01557,-0.1400841 -0.140084,-0.1867788 -0.116737,-0.054477 -0.38134,-0.06226 l 0.03891,-0.155649 q 0.202344,0.00778 0.544772,0.015565 0.35021,0.00778 0.739332,0.00778 0.342428,0 0.661509,-0.00778 0.31908,-0.00778 0.552554,-0.015565 l -0.03891,0.155649 q -0.264603,0.00778 -0.412469,0.06226 -0.147867,0.046695 -0.233474,0.1867788 -0.08561,0.1323016 -0.163431,0.4202523 l -1.027284,3.8600953 q -0.07004,0.2801682 -0.06226,0.4202523 0.0078,0.1400841 0.124519,0.1867788 0.124519,0.038912 0.389122,0.038912 h 0.311298 q 0.350211,0 0.653726,-0.1400841 0.311298,-0.1400842 0.575901,-0.4591646 0.264604,-0.3190805 0.47473,-0.8560695 z"
           id="path935" /><path
           style="color:#000000;-inkscape-font-specification:'Playfair Display Bold Italic';fill:#ffffff;stroke:none;-inkscape-stroke:none"
           d="m 15.931641,6.6523437 c -0.140084,0.3579923 -0.30016,0.6427487 -0.476563,0.8554688 3.66e-4,-4.406e-4 0.0016,4.411e-4 0.002,0 0.176403,-0.2127202 0.334526,-0.4974764 0.47461,-0.8554688 z"
           id="path932" /></g><g
         id="path779"
         style="fill:#ffffff"><path
           style="color:#000000;-inkscape-font-specification:'Playfair Display Bold Italic';fill:#ffffff;stroke:none;-inkscape-stroke:none"
           d="m 17.456146,6.5973926 q 0.31908,-0.1245192 0.607031,-0.2801682 0.28795,-0.155649 0.490294,-0.3424278 0.303516,-0.2723858 0.482512,-0.6303785 0.186779,-0.3657751 0.186779,-0.7860274 0,-0.155649 -0.03113,-0.2023437 -0.03113,-0.054477 -0.09339,-0.054477 -0.171214,0 -0.373558,0.1789964 -0.194561,0.1712139 -0.389123,0.466947 Q 18.141,5.235464 17.977569,5.6090216 17.82192,5.9825793 17.720748,6.3872667 q -0.09339,0.4046874 -0.09339,0.7860274 0,0.4358172 0.163432,0.5992487 0.171214,0.155649 0.435817,0.155649 0.210126,0 0.521424,-0.1400841 0.311298,-0.1400841 0.614814,-0.4980768 l 0.124519,0.06226 q -0.163431,0.2568208 -0.428035,0.4980768 -0.264603,0.241256 -0.614813,0.396905 -0.350211,0.1478665 -0.76268,0.1478665 -0.350211,0 -0.630379,-0.1245192 Q 16.779071,8.1461008 16.61564,7.9048449 16.459991,7.6558064 16.459991,7.2978137 q 0,-0.4124698 0.132302,-0.848287 0.140084,-0.4358172 0.389122,-0.8405047 0.249038,-0.4124698 0.599249,-0.7393327 0.35021,-0.3346454 0.778245,-0.5214242 0.428035,-0.1945612 0.910546,-0.1945612 0.342428,0 0.575902,0.155649 0.233473,0.1478665 0.233473,0.4591645 0,0.3035156 -0.171214,0.5681189 -0.163431,0.2646033 -0.443599,0.4825119 -0.280169,0.2179086 -0.630379,0.3891225 -0.342428,0.1712139 -0.708203,0.2957331 -0.357992,0.1245192 -0.677073,0.1945613 z"
           id="path929" /><path
           style="color:#000000;-inkscape-font-specification:'Playfair Display Bold Italic';fill:#ffffff;stroke:none;-inkscape-stroke:none"
           d="m 17.456146,6.5973926 c 0.21272,-0.083013 0.415064,-0.1764023 0.607031,-0.2801682 0.191966,-0.1037659 0.355398,-0.2179087 0.490294,-0.3424278 0.202344,-0.1815904 0.363181,-0.3917169 0.482512,-0.6303785 0.124519,-0.2438498 0.186779,-0.5058595 0.186779,-0.7860274 0,-0.1037659 -0.01038,-0.1712139 -0.03113,-0.2023437 -0.02075,-0.036318 -0.05188,-0.054477 -0.09339,-0.054477 -0.114143,0 -0.238662,0.059666 -0.373558,0.1789964 -0.129707,0.1141425 -0.259415,0.2697918 -0.389123,0.466947 -0.129707,0.1919669 -0.249038,0.41247 -0.357992,0.6615082 -0.103766,0.2490382 -0.189373,0.5084538 -0.256821,0.7782451 -0.06226,0.2697913 -0.09339,0.531801 -0.09339,0.7860274 0,0.2905445 0.05448,0.4902945 0.163432,0.5992487 0.114143,0.1037659 0.259415,0.155649 0.435817,0.155649 0.140084,0 0.313892,-0.046695 0.521424,-0.1400841 0.207532,-0.093389 0.41247,-0.2594152 0.614814,-0.4980768 l 0.124519,0.06226 c -0.108954,0.1712137 -0.251633,0.3372396 -0.428035,0.4980768 -0.176402,0.1608372 -0.38134,0.2931391 -0.614813,0.396905 -0.233474,0.098578 -0.487701,0.1478665 -0.76268,0.1478665 -0.233474,0 -0.443601,-0.041506 -0.630379,-0.1245192 C 16.869867,8.1876073 16.724594,8.065682 16.61564,7.9048449 16.511874,7.7388194 16.459991,7.5364753 16.459991,7.2978137 c 0,-0.2749796 0.0441,-0.5577425 0.132302,-0.848287 0.09339,-0.2905445 0.223097,-0.5707133 0.389122,-0.8405047 0.166025,-0.2749796 0.365775,-0.5214243 0.599249,-0.7393327 0.233473,-0.2230967 0.492889,-0.3969051 0.778245,-0.5214242 0.285356,-0.1297073 0.588872,-0.1945612 0.910546,-0.1945612 0.228285,0 0.420253,0.051883 0.575902,0.155649 0.155649,0.098578 0.233473,0.2516327 0.233473,0.4591645 0,0.2023435 -0.05707,0.3917169 -0.171214,0.5681189 -0.108954,0.176402 -0.256821,0.3372396 -0.443599,0.4825119 -0.186779,0.1452723 -0.396906,0.27498 -0.630379,0.3891225 -0.228285,0.1141425 -0.464353,0.2127204 -0.708203,0.2957331 -0.238661,0.083013 -0.464353,0.1478666 -0.677073,0.1945613 z"
           id="path926" /></g><g
         id="path781"
         style="fill:#ffffff"><path
           style="color:#000000;-inkscape-font-specification:'Playfair Display Bold Italic';fill:#ffffff;stroke:none;-inkscape-stroke:none"
           d="m 22.934989,7.6324585 q 0.03891,0.2023437 0.101172,0.2801682 0.06226,0.077825 0.163432,0.077825 0.108954,0 0.217908,-0.1245192 0.116737,-0.1323017 0.256821,-0.5447715 l 0.101172,-0.2879507 h 0.147867 l -0.194562,0.5681189 q -0.108954,0.3268629 -0.280168,0.4980768 -0.171214,0.1712139 -0.373557,0.2334735 -0.202344,0.06226 -0.389123,0.06226 -0.342428,0 -0.583684,-0.1634314 Q 21.868794,8.0682757 21.822099,7.6324585 L 21.510801,4.9163834 q -0.03113,-0.2023437 -0.101172,-0.2646033 -0.07004,-0.06226 -0.171214,-0.06226 -0.07004,0 -0.140084,0.046695 -0.07004,0.038912 -0.147866,0.1789963 -0.07783,0.1323017 -0.178997,0.4124699 L 20.670296,5.515632 H 20.52243 l 0.194561,-0.5681188 q 0.116737,-0.3268629 0.287951,-0.4980768 0.171214,-0.1712139 0.38134,-0.2334735 0.210126,-0.06226 0.404687,-0.06226 0.365775,0 0.583684,0.1712139 0.217909,0.1634314 0.264603,0.6537258 z M 23.31633,4.7062572 q -0.194562,0.2179086 -0.342428,0.4902944 -0.147867,0.2723857 -0.249039,0.5525539 -0.101172,0.2723858 -0.171214,0.4980769 0,0 -0.07782,0 -0.07783,-0.00778 -0.07783,-0.00778 0.03113,-0.1011718 0.08561,-0.2801682 0.06226,-0.1789964 0.155649,-0.4046874 0.09339,-0.2334735 0.225691,-0.466947 0.132302,-0.241256 0.303516,-0.4591646 0.217909,-0.2723857 0.428035,-0.3735576 0.217908,-0.1011718 0.428035,-0.1011718 0.249038,0 0.404687,0.1323016 0.163431,0.1323017 0.163431,0.3813401 0,0.2412559 -0.163431,0.4046874 -0.163432,0.155649 -0.420252,0.155649 -0.217909,0 -0.41247,-0.1245192 Q 23.409719,4.978643 23.31633,4.7062572 Z m -2.280258,3.1363274 q 0.295733,-0.3346453 0.505859,-0.7626801 0.210126,-0.4280347 0.31908,-0.778245 0,0 0.07004,0.00778 0.07783,0.00778 0.07783,0.00778 -0.06226,0.2179086 -0.171214,0.4980768 -0.108954,0.2723858 -0.272386,0.5603364 -0.155649,0.2801682 -0.365775,0.5447716 -0.225691,0.2646033 -0.4436,0.3657751 -0.217908,0.1089543 -0.420252,0.1089543 -0.272386,0 -0.420252,-0.1323016 -0.147867,-0.1323017 -0.147867,-0.3579927 0,-0.2646034 0.178997,-0.4202524 0.171214,-0.1634314 0.412469,-0.1634314 0.256821,0 0.420253,0.1478665 0.171214,0.1478666 0.256821,0.3735576 z"
           id="path923" /><path
           style="color:#000000;-inkscape-font-specification:'Playfair Display Bold Italic';fill:#ffffff;stroke:none;-inkscape-stroke:none"
           d="m 22.934989,7.6324585 c 0.02594,0.1348957 0.05966,0.2282853 0.101172,0.2801682 0.04151,0.051883 0.09598,0.077825 0.163432,0.077825 0.07264,0 0.145272,-0.041507 0.217908,-0.1245192 0.07782,-0.088201 0.163432,-0.2697919 0.256821,-0.5447715 l 0.101172,-0.2879507 h 0.147867 l -0.194562,0.5681189 c -0.07264,0.2179084 -0.166025,0.3839343 -0.280168,0.4980768 -0.114143,0.1141425 -0.238662,0.1919671 -0.373557,0.2334735 -0.134896,0.041507 -0.264604,0.06226 -0.389123,0.06226 -0.228285,0 -0.422847,-0.054477 -0.583684,-0.1634314 C 21.946618,8.1227533 21.853229,7.923003 21.822099,7.6324585 L 21.510801,4.9163834 c -0.02075,-0.1348957 -0.05448,-0.2230969 -0.101172,-0.2646033 -0.04669,-0.041507 -0.103765,-0.06226 -0.171214,-0.06226 -0.04669,0 -0.09339,0.015565 -0.140084,0.046695 -0.04669,0.025941 -0.09598,0.085607 -0.147866,0.1789963 -0.05189,0.088201 -0.111552,0.2256913 -0.178997,0.4124699 L 20.670296,5.515632 H 20.52243 l 0.194561,-0.5681188 c 0.07783,-0.2179084 0.173808,-0.3839343 0.287951,-0.4980768 0.114143,-0.1141425 0.241256,-0.1919671 0.38134,-0.2334735 0.140084,-0.041507 0.27498,-0.06226 0.404687,-0.06226 0.24385,0 0.438411,0.057071 0.583684,0.1712139 0.145273,0.1089542 0.233474,0.3268632 0.264603,0.6537258 z M 23.31633,4.7062572 c -0.129708,0.1452723 -0.243851,0.308704 -0.342428,0.4902944 -0.09858,0.1815903 -0.181591,0.3657753 -0.249039,0.5525539 -0.06745,0.1815904 -0.124519,0.3476163 -0.171214,0.4980769 h -0.07782 l -0.07783,-0.00778 c 0.02075,-0.067448 0.04929,-0.1608374 0.08561,-0.2801682 0.04151,-0.1193308 0.09339,-0.2542269 0.155649,-0.4046874 0.06226,-0.1556488 0.13749,-0.3112982 0.225691,-0.466947 0.0882,-0.1608372 0.189373,-0.3138923 0.303516,-0.4591646 0.145273,-0.1815903 0.287951,-0.3061097 0.428035,-0.3735576 0.145272,-0.067448 0.28795,-0.1011718 0.428035,-0.1011718 0.166025,0 0.300921,0.044101 0.404687,0.1323016 0.108954,0.088201 0.163431,0.2153147 0.163431,0.3813401 0,0.1608371 -0.05448,0.2957332 -0.163431,0.4046874 -0.108955,0.1037659 -0.249039,0.155649 -0.420252,0.155649 -0.145273,0 -0.282763,-0.041506 -0.41247,-0.1245192 -0.124521,-0.083014 -0.217911,-0.2153171 -0.28017,-0.3969075 z m -2.280258,3.1363274 c 0.197155,-0.2230966 0.365775,-0.4773239 0.505859,-0.7626801 0.140084,-0.2853562 0.246444,-0.5447717 0.31908,-0.778245 l 0.07004,0.00778 0.07783,0.00778 c -0.04151,0.1452723 -0.09858,0.3112982 -0.171214,0.4980768 -0.07264,0.1815904 -0.163431,0.3683695 -0.272386,0.5603364 -0.103766,0.1867786 -0.225691,0.3683695 -0.365775,0.5447716 -0.150461,0.176402 -0.298327,0.2983273 -0.4436,0.3657751 -0.145272,0.072636 -0.285356,0.1089543 -0.420252,0.1089543 -0.18159,0 -0.321675,-0.044101 -0.420252,-0.1323016 -0.09858,-0.088201 -0.147867,-0.2075322 -0.147867,-0.3579927 0,-0.1764021 0.05967,-0.3164865 0.178997,-0.4202524 0.114143,-0.1089542 0.251632,-0.1634314 0.412469,-0.1634314 0.171214,0 0.311298,0.049289 0.420253,0.1478665 0.114143,0.098578 0.19975,0.2230971 0.256821,0.3735576 z"
           id="path920" /></g><g
         id="path783"
         style="fill:#ffffff"><path
           style="color:#000000;-inkscape-font-specification:'Playfair Display Bold Italic';fill:#ffffff;stroke:none;-inkscape-stroke:none"
           d="M 25.86118,2.9629884 Q 25.87674,2.628343 26.102436,2.4493467 26.33591,2.2703503 26.65499,2.2703503 q 0.287951,0 0.435817,0.1400841 0.155649,0.1323017 0.140084,0.3735576 -0.01556,0.3035156 -0.249038,0.4980768 -0.233474,0.1867788 -0.560336,0.1867788 -0.272386,0 -0.428035,-0.1323016 Q 25.845615,3.1964619 25.86118,2.9629884 Z m -0.295733,1.9611774 q 0.132302,-0.3891225 -0.08561,-0.3891225 -0.140084,0 -0.256821,0.1400841 -0.116737,0.1400841 -0.241256,0.4747295 l -0.155649,0.3969049 h -0.147866 l 0.217908,-0.5914662 q 0.108955,-0.311298 0.272386,-0.4825119 0.171214,-0.1712139 0.373558,-0.2412559 0.210126,-0.077825 0.435817,-0.077825 0.272386,0 0.428035,0.1011718 0.155649,0.1011719 0.210126,0.2646033 0.05448,0.155649 0.03891,0.3502103 -0.01557,0.1867788 -0.07782,0.3735576 L 25.760008,7.624676 q -0.07004,0.2101262 -0.03891,0.3035156 0.03891,0.085607 0.147867,0.085607 0.101171,0 0.217908,-0.1167368 Q 26.21139,7.780325 26.359257,7.398985 l 0.140084,-0.3735576 h 0.147867 l -0.202344,0.5681188 q -0.108954,0.3190805 -0.280168,0.4902944 -0.171214,0.1712139 -0.373558,0.241256 -0.194561,0.070042 -0.396905,0.070042 -0.334645,0 -0.513642,-0.1478665 Q 24.709378,8.0994055 24.693813,7.8192373 24.678248,7.5390691 24.802767,7.157729 Z"
           id="path917" /><path
           style="color:#000000;-inkscape-font-specification:'Playfair Display Bold Italic';fill:#ffffff;stroke:none;-inkscape-stroke:none"
           d="m 25.86118,2.9629884 c 0.01037,-0.2230967 0.09079,-0.394311 0.241256,-0.5136417 0.155649,-0.1193308 0.339834,-0.1789964 0.552554,-0.1789964 0.191967,0 0.33724,0.046695 0.435817,0.1400841 0.103766,0.088201 0.150461,0.2127205 0.140084,0.3735576 -0.01037,0.2023435 -0.09339,0.3683695 -0.249038,0.4980768 -0.155649,0.1245191 -0.342428,0.1867788 -0.560336,0.1867788 -0.18159,0 -0.324269,-0.044101 -0.428035,-0.1323016 C 25.894902,3.243157 25.850803,3.1186372 25.86118,2.9629884 Z m -0.295733,1.9611774 c 0.0882,-0.2594147 0.05967,-0.3891225 -0.08561,-0.3891225 -0.09339,0 -0.178996,0.046695 -0.256821,0.1400841 -0.07783,0.093389 -0.158243,0.2516328 -0.241256,0.4747295 l -0.155649,0.3969049 h -0.147866 l 0.217908,-0.5914662 c 0.07264,-0.2075318 0.163432,-0.3683694 0.272386,-0.4825119 0.114143,-0.1141425 0.238662,-0.1945613 0.373558,-0.2412559 0.140084,-0.051883 0.285356,-0.077825 0.435817,-0.077825 0.18159,0 0.324269,0.033724 0.428035,0.1011718 0.103766,0.067448 0.173808,0.1556491 0.210126,0.2646033 0.03632,0.1037659 0.04929,0.2205029 0.03891,0.3502103 -0.01038,0.1245191 -0.03632,0.2490385 -0.07782,0.3735576 L 25.760008,7.624676 c -0.04669,0.140084 -0.05966,0.2412561 -0.03891,0.3035156 0.02594,0.057071 0.07523,0.085607 0.147867,0.085607 0.06745,0 0.140083,-0.038912 0.217908,-0.1167368 0.08301,-0.077825 0.173806,-0.2438504 0.272384,-0.4980768 l 0.140084,-0.3735576 h 0.147867 l -0.202344,0.5681188 c -0.07264,0.2127201 -0.166025,0.3761519 -0.280168,0.4902944 -0.114143,0.1141425 -0.238662,0.1945613 -0.373558,0.241256 -0.129707,0.046695 -0.262009,0.070042 -0.396905,0.070042 -0.223096,0 -0.394311,-0.049289 -0.513642,-0.1478665 C 24.766449,8.1486945 24.70419,8.0060159 24.693813,7.8192373 24.683436,7.6324587 24.719754,7.4119555 24.802767,7.157729 Z"
           id="path914" /></g></g></g></svg>
