<?xml version="1.0" encoding="UTF-8" standalone="no"?>
<!-- Created with Inkscape (http://www.inkscape.org/) -->

<svg
   width="120.98mm"
   height="18.448866mm"
   viewBox="0 0 120.98003 18.44887"
   version="1.1"
   id="svg5"
   inkscape:export-filename="logo-white.svg"
   inkscape:export-xdpi="96"
   inkscape:export-ydpi="96"
   sodipodi:docname="lexi.svg"
   inkscape:version="1.2.2 (b0a8486541, 2022-12-01, custom)"
   xmlns:inkscape="http://www.inkscape.org/namespaces/inkscape"
   xmlns:sodipodi="http://sodipodi.sourceforge.net/DTD/sodipodi-0.dtd"
   xmlns="http://www.w3.org/2000/svg"
   xmlns:svg="http://www.w3.org/2000/svg">
  <sodipodi:namedview
     id="namedview7"
     pagecolor="#ffffff"
     bordercolor="#000000"
     borderopacity="0.25"
     inkscape:showpageshadow="2"
     inkscape:pageopacity="0.0"
     inkscape:pagecheckerboard="0"
     inkscape:deskcolor="#d1d1d1"
     inkscape:document-units="mm"
     showgrid="false"
     inkscape:zoom="2.5877449"
     inkscape:cx="233.60107"
     inkscape:cy="101.63289"
     inkscape:window-width="1920"
     inkscape:window-height="2043"
     inkscape:window-x="1920"
     inkscape:window-y="27"
     inkscape:window-maximized="0"
     inkscape:current-layer="layer1" />
  <defs
     id="defs2" />
  <g
     inkscape:label="Layer 1"
     inkscape:groupmode="layer"
     id="layer1"
     transform="translate(-0.42957634,-0.42249986)">
    <g
       aria-label="Lexi"
       id="text1319"
       style="font-weight:bold;font-size:25.4px;font-family:'Alte Haas Grotesk';-inkscape-font-specification:'Alte Haas Grotesk Bold';fill:#f4d7d7;stroke-width:4.36499">
      <path
         d="m 1.257396,0.49750825 h 2.159 q 0.2794,0 0.5334,0.0254 0.2793999,0 0.4063999,0.1778 0.127,0.17779999 0.127,0.48259995 0,0.2794 0,0.6096 v 2.3114 7.6961998 1.4986 q 0,0.2032 -0.0254,0.4064 0,0.1778 0.0508,0.3556 v 0.254 q 0,0.1778 0,0.3556 0.0254,0.1524 0.0762,0.2794 0.1778,0.3302 0.7112,0.3302 0.5334,0 1.0414,0 h 4.9276001 q 0.2032,0 0.508,0 0.3048,-0.0254 0.5842,0 0.2794,0 0.508,0.0508 0.254,0.0508 0.3302,0.1524 0.127,0.1524 0.127,0.381 0,0.2286 0,0.4826 v 1.1684 q 0,0.2032 0,0.381 0.0254,0.1778 -0.0254,0.3048 -0.1016,0.2032 -0.254,0.2794 -0.127,0.1016 -0.381,0.1016 -0.254,0 -0.4826,0 h -1.8034 -6.8834 -1.8288 q -0.3556,0 -0.635,-0.0254 -0.254,-0.0508 -0.381,-0.254 -0.1016,-0.1524 -0.1016,-0.381 0,-0.254 0,-0.4826 v -1.778 -6.7309999 -5.7403999 -1.6002 q 0,-0.2286 0,-0.4572 0.0254,-0.22859996 0.1016,-0.35559995 0.1016,-0.1778 0.4064,-0.254 0.0508,-0.0254 0.1016,0 0.0508,0 0.1016,-0.0254 z"
         style="stroke-width:4.365"
         id="path1504" />
      <path
         d="m 27.647957,11.927508 q 0.0508,0.2032 0,0.4572 -0.0508,0.254 -0.1778,0.3302 -0.127,0.1016 -0.381,0.1524 -0.2286,0.0254 -0.5334,0.0508 -0.2794,0 -0.5842,0 -0.2794,-0.0254 -0.508,-0.0254 h -6.1976 q -0.1778,0 -0.3556,0 -0.1524,0 -0.2794,0.0508 -0.2032,0.1016 -0.254,0.2032 -0.0508,0.0508 -0.1016,0.2032 -0.0508,0.127 -0.0254,0.254 0.0508,0.1524 0.0508,0.3048 0.0254,0.127 0.0762,0.2794 0.2032,0.6096 0.4826,1.016 0.3048,0.381 0.8128,0.6858 0.2032,0.127 0.4064,0.1778 0.2286,0.0254 0.4572,0.1016 0.2032,0.0508 0.5588,0.0762 0.3556,0.0254 0.6096,-0.0254 h 0.2286 q 0.254,-0.0508 0.4572,-0.1016 0.2286,-0.0762 0.4318,-0.1524 0.254,-0.127 0.5588,-0.3302 0.3302,-0.2032 0.4826,-0.4064 0.127,-0.1778 0.254,-0.3302 0.1524,-0.1778 0.3556,-0.254 0.254,-0.127 0.635,-0.1016 0.4064,0 0.7366,0 0.1524,0 0.3048,0 0.1778,-0.0254 0.3048,0.0254 h 0.254 q 0.254,0.0508 0.3556,0.127 0.1016,0.0508 0.1016,0.2286 0.0254,0.1778 -0.0254,0.3048 -0.127,0.3556 -0.2794,0.635 -0.1524,0.2794 -0.3556,0.5588 -0.5588,0.8382 -1.27,1.3462 -0.7112,0.508 -1.778,0.8636 -0.2794,0.1016 -0.5588,0.127 -0.2794,0.0254 -0.5842,0.1016 -0.1016,0.0254 -0.2286,0 -0.1016,0 -0.2032,0.0254 h -0.2794 q -0.127,0.0508 -0.3048,0.0254 -0.1524,0 -0.2794,-0.0254 -0.2032,-0.0254 -0.3556,0 -0.1524,0.0254 -0.3302,-0.0254 -0.127,-0.0508 -0.2794,-0.0508 -0.1524,0 -0.2794,-0.0508 -0.2794,-0.0508 -0.5588,-0.127 -0.2794,-0.0508 -0.508,-0.1778 -0.2794,-0.1016 -0.5334,-0.1778 -0.2286,-0.1016 -0.4318,-0.2286 -0.8128,-0.508 -1.4478,-1.1684 -0.635,-0.6858 -1.0414,-1.5748 -0.127,-0.2794 -0.2032,-0.5588 -0.0762,-0.3048 -0.2032,-0.6096 -0.0254,-0.1016 -0.0254,-0.1778 0,-0.1016 -0.0254,-0.2032 -0.1016,-0.3048 -0.127,-0.6604 -0.0254,-0.3556 -0.0508,-0.7112 0,-0.127 -0.0254,-0.2794 0,-0.1524 0.0254,-0.2794 v -0.3048 l 0.0762,-0.6096 q 0.1016,-0.4318 0.1778,-0.8382 0.0762,-0.4063999 0.2286,-0.7619999 1.0922,-2.6415999 3.7084,-3.7337999 0.3556,-0.1524 0.7112,-0.2032 0.381,-0.0762 0.7874,-0.1778 0.2032,-0.0254 0.381,-0.0254 0.1778,0 0.381,-0.0254 1.2954,-0.0254 2.2098,0.3048 0.9398,0.3048 1.6764,0.8128 0.2286,0.1524 0.4572,0.3556 0.2286,0.1778 0.4064,0.381 0.0762,0.1269999 0.2032,0.2031999 0.2032,0.2794 0.381,0.5842 0.1778,0.2794 0.381,0.5842 0.127,0.2286 0.2032,0.4826 0.1016,0.2286 0.2032,0.508 0.127,0.3302 0.2032,0.6857999 0.0762,0.3556 0.1778,0.7112 0.0508,0.2032 0.0254,0.4572 0,0.2286 0.0508,0.4318 z m -3.81,-1.4986 q 0.1778,-0.254 0.0254,-0.6095999 -0.127,-0.381 -0.2032,-0.5588 -0.3556,-0.6858 -0.9398,-1.0414 -0.5842,-0.381 -1.6256,-0.4064 -0.0762,0.0508 -0.1778,0.0254 -0.1016,-0.0254 -0.1778,0 -0.127,0.0508 -0.2794,0.0762 -0.1524,0 -0.2794,0.0508 -1.1176,0.3556 -1.651,1.397 -0.0508,0.1016 -0.127,0.2794 -0.0508,0.1524 -0.0762,0.3302 -0.0254,0.1523999 0,0.3047999 0.0508,0.1524 0.1778,0.254 0.2032,0.127 0.5588,0.127 0.3556,0 0.6858,0 h 2.8194 q 0.3556,0 0.7366,0 0.4064,-0.0254 0.5334,-0.2286 z"
         style="stroke-width:4.365"
         id="path1506" />
      <path
         d="m 29.781543,5.5013082 h 2.031999 q 0.3556,0 0.6604,0.0254 0.3302,0.0254 0.5334,0.1778 0.1778,0.127 0.3048,0.3556 0.1524,0.2032 0.2794,0.4064 0.2032,0.3302 0.4318,0.6603999 0.2286,0.3048 0.4572,0.635 0.127,0.2032 0.2794,0.4572 0.1778,0.254 0.4318,0.3302 0.1016,0.0254 0.1778,0 0.1016,-0.0508 0.1524,-0.1016 0.1778,-0.127 0.2794,-0.3048 0.1016,-0.1778 0.2286,-0.3556 0.2032,-0.3302 0.4318,-0.635 0.2286,-0.3301999 0.4572,-0.6603999 0.2032,-0.3556 0.381,-0.6096 0.2032,-0.254 0.6604,-0.3556 0.1778,-0.0508 0.381,-0.0254 0.2032,0 0.4064,0 h 1.5748 q 0.254,0 0.4826,0.0508 0.254,0.0254 0.3048,0.2286 0.0508,0.127 -0.0254,0.254 -0.0508,0.1016 -0.1016,0.1778 -0.127,0.254 -0.3048,0.4826 -0.1778,0.2032 -0.3302,0.4571999 -0.5842,0.8128 -1.143,1.6256 -0.5588,0.8128 -1.143,1.6255999 -0.1524,0.2032 -0.3048,0.4064 -0.1524,0.2032 -0.2794,0.4572 -0.0508,0.0762 -0.1016,0.2032 -0.0254,0.127 0,0.254 0.0762,0.2794 0.2032,0.4826 0.1524,0.1778 0.2794,0.381 0.1524,0.2032 0.3048,0.4318 0.1524,0.2032 0.2794,0.4064 0.5588,0.7874 1.0922,1.5748 0.5334,0.7874 1.0922,1.6002 0.2032,0.3048 0.4318,0.6096 0.2286,0.3048 0.4318,0.635 0.0508,0.0762 0.127,0.2286 0.0762,0.127 0,0.2794 -0.0508,0.1778 -0.2794,0.2032 -0.2286,0.0254 -0.4826,0.0254 h -2.3368 q -0.127,-0.0254 -0.254,-0.0254 -0.127,-0.0254 -0.254,-0.0762 -0.2794,-0.2032 -0.4572,-0.508 -0.1778,-0.3048 -0.381,-0.5842 -0.2794,-0.381 -0.5334,-0.762 -0.254,-0.4064 -0.508,-0.7874 -0.1524,-0.2286 -0.381,-0.5588 -0.2032,-0.3556 -0.4826,-0.4318 -0.1778,-0.0508 -0.3048,0.0762 -0.127,0.1016 -0.1778,0.2032 -0.2032,0.2794 -0.4064,0.5842 -0.1778,0.2794 -0.381,0.5842 l -0.9906,1.4478 q -0.127,0.2032 -0.2794,0.4064 -0.127,0.2032 -0.3556,0.3302 -0.2794,0.127 -0.812799,0.127 -0.508,-0.0254 -0.9144,-0.0254 h -0.8382 q -0.1016,0 -0.2286,0.0254 -0.1016,0 -0.1778,-0.0254 -0.1016,-0.0254 -0.2032,0 -0.0762,0 -0.1524,-0.0508 -0.0762,-0.0508 -0.127,-0.0762 -0.0254,-0.0508 -0.0762,-0.1016 -0.0254,-0.254 0.0762,-0.4064 0.1016,-0.1778 0.2032,-0.3302 0.2032,-0.2794 0.381,-0.5588 0.2032,-0.2794 0.4064,-0.5588 0.508,-0.7366 1.016,-1.4986 0.508,-0.762 1.015999,-1.524 0.1778,-0.2286 0.3302,-0.4572 0.1524,-0.2286 0.3048,-0.4572 0.127,-0.1778 0.2286,-0.3556 0.127,-0.1778 0.1778,-0.4318 0.0508,-0.127 0,-0.2286 -0.0508,-0.1016 -0.0762,-0.1524 -0.127,-0.2794 -0.3048,-0.4826 -0.1524,-0.2286 -0.3048,-0.4572 -0.584199,-0.8889999 -1.193799,-1.7017999 -0.5842,-0.8382 -1.1684,-1.7271999 -0.127,-0.2032 -0.2794,-0.4064 -0.1524,-0.2032 -0.2794,-0.4318 -0.0508,-0.0762 -0.127,-0.1778 -0.0508,-0.1016 0,-0.2286 0.0508,-0.127 0.127,-0.1524 0.0762,-0.0508 0.2032,-0.1016 0.1524,0 0.2032,-0.0254 z"
         style="stroke-width:4.365"
         id="path1508" />
      <path
         d="m 46.951909,0.67530825 q 0.1778,0.20319999 0.1778,0.60959995 0,0.4064 0,0.7874 0,0.3302 0,0.6858 0,0.3556 -0.1778,0.4826 -0.1524,0.127 -0.4064,0.1524 -0.2286,0.0254 -0.508,0.0254 h -1.4224 q -0.2794,0 -0.508,-0.0254 -0.2032,-0.0254 -0.3556,-0.1524 -0.1016,-0.0762 -0.1524,-0.2794 -0.0254,-0.2286 -0.0508,-0.4826 0,-0.2794 0,-0.5588 0.0254,-0.2794 0.0254,-0.4826 0,-0.2032 0,-0.3556 0.0254,-0.17779996 0.1016,-0.30479995 0.0508,-0.1016 0.127,-0.1524 0.1016,-0.0508 0.2032,-0.1016 0.0508,0 0.127,0 0.0762,-0.0254 0.127,-0.0254 h 1.8542 q 0.254,0 0.4826,0.0254 0.2286,0.0254 0.3556,0.1524 z m 0.1778,16.53539975 q 0,0.508 -0.0254,0.8636 -0.0254,0.3556 -0.4572,0.4826 -0.1524,0.0508 -0.3302,0.0508 -0.1778,-0.0254 -0.381,-0.0254 h -1.4224 q -0.2286,0 -0.4572,-0.0254 -0.2032,-0.0254 -0.3048,-0.1524 -0.1524,-0.1778 -0.1778,-0.4318 0,-0.2794 0,-0.5842 V 6.6697082 q 0,-0.254 0,-0.508 0,-0.254 0.1016,-0.4064 0.1524,-0.1778 0.4318,-0.2286 0.0508,-0.0254 0.127,0 0.1016,0 0.1524,-0.0254 h 1.27 q 0.1524,0 0.3302,0 0.2032,-0.0254 0.3302,0 h 0.2032 q 0.1524,0.0508 0.2794,0.0762 0.127,0.0254 0.2032,0.1524 0.1016,0.127 0.1016,0.3556 0.0254,0.2286 0.0254,0.4826 z"
         style="stroke-width:4.365"
         id="path1510" />
    </g>
  </g>
</svg>
