<?xml version="1.0" encoding="UTF-8" standalone="no"?>
<!-- Created with Inkscape (http://www.inkscape.org/) -->

<svg
   width="20mm"
   height="8mm"
   viewBox="0 0 20.00001 8.000004"
   version="1.1"
   id="svg5"
   inkscape:export-filename="../e820b07/lexi-circle.png"
   inkscape:export-xdpi="96"
   inkscape:export-ydpi="96"
   sodipodi:docname="lexi-typography.svg"
   inkscape:version="1.2.2 (b0a8486541, 2022-12-01, custom)"
   xml:space="preserve"
   xmlns:inkscape="http://www.inkscape.org/namespaces/inkscape"
   xmlns:sodipodi="http://sodipodi.sourceforge.net/DTD/sodipodi-0.dtd"
   xmlns="http://www.w3.org/2000/svg"
   xmlns:svg="http://www.w3.org/2000/svg"><sodipodi:namedview
     id="namedview7"
     pagecolor="#ffffff"
     bordercolor="#000000"
     borderopacity="0.25"
     inkscape:showpageshadow="2"
     inkscape:pageopacity="0.0"
     inkscape:pagecheckerboard="0"
     inkscape:deskcolor="#d1d1d1"
     inkscape:document-units="mm"
     showgrid="false"
     inkscape:zoom="5.17549"
     inkscape:cx="83.566967"
     inkscape:cy="42.508052"
     inkscape:window-width="1920"
     inkscape:window-height="2043"
     inkscape:window-x="1920"
     inkscape:window-y="27"
     inkscape:window-maximized="0"
     inkscape:current-layer="path781" /><defs
     id="defs2" /><g
     inkscape:label="Layer 1"
     inkscape:groupmode="layer"
     id="layer1"
     transform="translate(-0.42957634,-0.42249986)"><g
       aria-label="Lexi"
       id="text382"
       style="font-style:italic;font-size:7.78245px;font-family:'Playfair Display';-inkscape-font-specification:'Playfair Display Italic';fill:#ffffff;stroke:#000000;stroke-width:0"
       transform="matrix(0.86169443,0,0,0.79078319,0.34602951,0.20545484)"><g
         id="path781"
         style="font-style:italic;font-size:7.78245px;font-family:'Playfair Display';-inkscape-font-specification:'Playfair Display Italic';fill:#ffffff;stroke:#000000;stroke-width:0"
         transform="matrix(0.97589657,0,0,0.97589657,-0.43814986,-16.432591)"><g
           aria-label="Lexichat"
           transform="scale(0.95797039,1.0438736)"
           id="text600"
           style="font-weight:bold;font-size:12.1883px;-inkscape-font-specification:'Playfair Display Bold Italic'"><path
             d="m 8.0279902,23.539334 q -0.07313,0.195013 -0.1462596,0.450967 -0.07313,0.255954 -0.1462596,0.548474 -0.060942,0.231577 -0.1584479,0.670356 -0.097506,0.426591 -0.1706362,0.889746 -0.6216033,-0.02438 -1.3894662,-0.02438 -0.7678629,-0.01219 -1.3772779,-0.01219 -0.3047075,0 -0.7800512,0 -0.4631554,0 -1.0238172,0.01219 -0.5606618,0 -1.1213236,0.01219 -0.5606618,0 -1.06038215,0.01219 l 0.0609415,-0.243766 q 0.41440225,-0.02438 0.64597995,-0.09751 0.2315777,-0.07313 0.3534607,-0.29252 0.1340713,-0.219389 0.2559543,-0.658168 L 3.5792607,18.76152 q 0.121883,-0.450967 0.097506,-0.658168 -0.024377,-0.219389 -0.2193894,-0.292519 -0.1828245,-0.08532 -0.5972267,-0.09751 l 0.060941,-0.243766 q 0.3168958,0.01219 0.853181,0.02438 0.5484735,0.01219 1.1578885,0.01219 0.5362852,0 1.0360055,-0.01219 0.4997203,-0.01219 0.8653693,-0.02438 l -0.060942,0.243766 q -0.4144022,0.01219 -0.6459799,0.09751 -0.2315777,0.07313 -0.365649,0.292519 -0.1340713,0.207201 -0.2559543,0.658168 l -1.6088556,6.045397 q -0.1096947,0.438779 -0.097506,0.658168 0.012188,0.21939 0.1950128,0.29252 0.1950128,0.06094 0.609415,0.06094 h 0.487532 q 0.5484735,0 1.0238172,-0.219389 0.487532,-0.21939 0.9019342,-0.71911 0.4144022,-0.49972 0.7434863,-1.340713 z"
             id="path801" /><path
             d="m 10.148749,23.454016 q 0.49972,-0.195013 0.950687,-0.438779 0.450968,-0.243766 0.767863,-0.536285 0.475344,-0.426591 0.755675,-0.987252 0.292519,-0.572851 0.292519,-1.231019 0,-0.243766 -0.04875,-0.316896 -0.04875,-0.08532 -0.14626,-0.08532 -0.268142,0 -0.585038,0.280331 -0.304708,0.268143 -0.609415,0.731298 -0.304708,0.450967 -0.560662,1.036006 -0.243766,0.585038 -0.402214,1.21883 -0.146259,0.633791 -0.146259,1.231018 0,0.682545 0.255954,0.938499 0.268143,0.243766 0.682545,0.243766 0.329084,0 0.816616,-0.219389 0.487532,-0.21939 0.962876,-0.780051 l 0.195012,0.09751 q -0.255954,0.402214 -0.670356,0.780051 -0.414402,0.377837 -0.962876,0.621603 -0.548473,0.231578 -1.194453,0.231578 -0.5484738,0 -0.9872526,-0.195013 -0.4265905,-0.195012 -0.6825448,-0.57285 -0.243766,-0.390025 -0.243766,-0.950687 0,-0.64598 0.2072011,-1.328525 0.2193894,-0.682545 0.609415,-1.316336 0.3900256,-0.64598 0.9384993,-1.157889 0.548473,-0.524097 1.21883,-0.816616 0.670356,-0.304707 1.426031,-0.304707 0.536285,0 0.901934,0.243766 0.365649,0.231577 0.365649,0.719109 0,0.475344 -0.268142,0.889746 -0.255955,0.414402 -0.694734,0.755675 -0.438778,0.341272 -0.987252,0.609415 -0.536285,0.268142 -1.109135,0.463155 -0.560662,0.195013 -1.060382,0.304708 z"
             id="path803" /><path
             d="m 18.729311,25.07506 q 0.06094,0.316896 0.158447,0.438779 0.09751,0.121883 0.255955,0.121883 0.170636,0 0.341272,-0.195013 0.182825,-0.207201 0.402214,-0.853181 l 0.158448,-0.450967 h 0.231578 l -0.304708,0.889746 q -0.170636,0.511908 -0.438779,0.780051 -0.268142,0.268142 -0.585038,0.365649 -0.316896,0.09751 -0.609415,0.09751 -0.536285,0 -0.914123,-0.255954 -0.365649,-0.255954 -0.438778,-0.938499 l -0.487532,-4.253717 q -0.04875,-0.316896 -0.158448,-0.414402 -0.109695,-0.09751 -0.268143,-0.09751 -0.109695,0 -0.219389,0.07313 -0.109695,0.06094 -0.231578,0.280331 -0.121883,0.207201 -0.280331,0.64598 l -0.158448,0.450967 h -0.231578 l 0.304708,-0.889746 q 0.182824,-0.511908 0.450967,-0.780051 0.268143,-0.268143 0.597227,-0.365649 0.329084,-0.09751 0.633791,-0.09751 0.572851,0 0.914123,0.268142 0.341272,0.255954 0.414402,1.023817 z m 0.597226,-4.582801 q -0.304707,0.341272 -0.536285,0.767863 -0.231578,0.42659 -0.390026,0.865369 -0.158447,0.426591 -0.268142,0.780051 0,0 -0.121883,0 -0.121883,-0.01219 -0.121883,-0.01219 0.04875,-0.158448 0.134071,-0.438779 0.09751,-0.280331 0.243766,-0.633791 0.14626,-0.365649 0.353461,-0.731298 0.207201,-0.377838 0.475344,-0.71911 0.341272,-0.426591 0.670356,-0.585039 0.341272,-0.158447 0.670357,-0.158447 0.390025,0 0.633791,0.207201 0.255954,0.207201 0.255954,0.597226 0,0.377838 -0.255954,0.633792 -0.255954,0.243766 -0.658168,0.243766 -0.341272,0 -0.64598,-0.195013 -0.292519,-0.195013 -0.438779,-0.621603 z m -3.571172,4.911885 q 0.463156,-0.524097 0.79224,-1.194454 0.329084,-0.670356 0.49972,-1.21883 0,0 0.109695,0.01219 0.121883,0.01219 0.121883,0.01219 -0.09751,0.341272 -0.268143,0.780051 -0.170636,0.426591 -0.42659,0.877558 -0.243766,0.438779 -0.57285,0.853181 -0.353461,0.414402 -0.694734,0.57285 -0.341272,0.170636 -0.658168,0.170636 -0.42659,0 -0.658168,-0.207201 -0.231578,-0.207201 -0.231578,-0.560662 0,-0.414402 0.280331,-0.658168 0.268143,-0.255954 0.64598,-0.255954 0.402214,0 0.658168,0.231577 0.268143,0.231578 0.402214,0.585039 z"
             id="path805" /><path
             d="m 23.312095,17.76208 q 0.02438,-0.524097 0.377838,-0.804428 0.365649,-0.280331 0.865369,-0.280331 0.450967,0 0.682545,0.219389 0.243766,0.207201 0.219389,0.585039 -0.02438,0.475343 -0.390025,0.780051 -0.365649,0.292519 -0.877558,0.292519 -0.426591,0 -0.670357,-0.207201 -0.231577,-0.219389 -0.207201,-0.585038 z m -0.463155,3.071451 q 0.207201,-0.609415 -0.134071,-0.609415 -0.21939,0 -0.402214,0.21939 -0.182825,0.219389 -0.377838,0.743486 l -0.243766,0.621603 h -0.231577 l 0.341272,-0.926311 q 0.170636,-0.487532 0.426591,-0.755674 0.268142,-0.268143 0.585038,-0.377837 0.329084,-0.121883 0.682545,-0.121883 0.42659,0 0.670356,0.158447 0.243766,0.158448 0.329084,0.414403 0.08532,0.243766 0.06094,0.548473 -0.02438,0.292519 -0.121883,0.585039 l -1.279772,3.729619 q -0.109694,0.329085 -0.06094,0.475344 0.06094,0.134071 0.231578,0.134071 0.158448,0 0.341272,-0.182824 0.195013,-0.182825 0.426591,-0.780051 l 0.219389,-0.585039 h 0.231578 l -0.316896,0.889746 q -0.170636,0.499721 -0.438779,0.767863 -0.268143,0.268143 -0.585038,0.377837 -0.304708,0.109695 -0.621604,0.109695 -0.524097,0 -0.804427,-0.231578 -0.268143,-0.231577 -0.29252,-0.670356 -0.02438,-0.438779 0.170637,-1.036006 z"
             id="path807" /></g><rect
           style="fill:#ffffff;stroke:#000000;stroke-width:0"
           id="rect875"
           width="59.264023"
           height="37.633793"
           x="2.0330327"
           y="36.323586" /><g
           aria-label="Lexichat"
           transform="scale(0.95797039,1.0438736)"
           id="g885"
           style="font-weight:bold;font-size:12.1883px;-inkscape-font-specification:'Playfair Display Bold Italic'"><path
             d="m 8.0279902,23.539334 q -0.07313,0.195013 -0.1462596,0.450967 -0.07313,0.255954 -0.1462596,0.548474 -0.060942,0.231577 -0.1584479,0.670356 -0.097506,0.426591 -0.1706362,0.889746 -0.6216033,-0.02438 -1.3894662,-0.02438 -0.7678629,-0.01219 -1.3772779,-0.01219 -0.3047075,0 -0.7800512,0 -0.4631554,0 -1.0238172,0.01219 -0.5606618,0 -1.1213236,0.01219 -0.5606618,0 -1.06038215,0.01219 l 0.0609415,-0.243766 q 0.41440225,-0.02438 0.64597995,-0.09751 0.2315777,-0.07313 0.3534607,-0.29252 0.1340713,-0.219389 0.2559543,-0.658168 L 3.5792607,18.76152 q 0.121883,-0.450967 0.097506,-0.658168 -0.024377,-0.219389 -0.2193894,-0.292519 -0.1828245,-0.08532 -0.5972267,-0.09751 l 0.060941,-0.243766 q 0.3168958,0.01219 0.853181,0.02438 0.5484735,0.01219 1.1578885,0.01219 0.5362852,0 1.0360055,-0.01219 0.4997203,-0.01219 0.8653693,-0.02438 l -0.060942,0.243766 q -0.4144022,0.01219 -0.6459799,0.09751 -0.2315777,0.07313 -0.365649,0.292519 -0.1340713,0.207201 -0.2559543,0.658168 l -1.6088556,6.045397 q -0.1096947,0.438779 -0.097506,0.658168 0.012188,0.21939 0.1950128,0.29252 0.1950128,0.06094 0.609415,0.06094 h 0.487532 q 0.5484735,0 1.0238172,-0.219389 0.487532,-0.21939 0.9019342,-0.71911 0.4144022,-0.49972 0.7434863,-1.340713 z"
             id="path877" /><path
             d="m 10.148749,23.454016 q 0.49972,-0.195013 0.950687,-0.438779 0.450968,-0.243766 0.767863,-0.536285 0.475344,-0.426591 0.755675,-0.987252 0.292519,-0.572851 0.292519,-1.231019 0,-0.243766 -0.04875,-0.316896 -0.04875,-0.08532 -0.14626,-0.08532 -0.268142,0 -0.585038,0.280331 -0.304708,0.268143 -0.609415,0.731298 -0.304708,0.450967 -0.560662,1.036006 -0.243766,0.585038 -0.402214,1.21883 -0.146259,0.633791 -0.146259,1.231018 0,0.682545 0.255954,0.938499 0.268143,0.243766 0.682545,0.243766 0.329084,0 0.816616,-0.219389 0.487532,-0.21939 0.962876,-0.780051 l 0.195012,0.09751 q -0.255954,0.402214 -0.670356,0.780051 -0.414402,0.377837 -0.962876,0.621603 -0.548473,0.231578 -1.194453,0.231578 -0.5484738,0 -0.9872526,-0.195013 -0.4265905,-0.195012 -0.6825448,-0.57285 -0.243766,-0.390025 -0.243766,-0.950687 0,-0.64598 0.2072011,-1.328525 0.2193894,-0.682545 0.609415,-1.316336 0.3900256,-0.64598 0.9384993,-1.157889 0.548473,-0.524097 1.21883,-0.816616 0.670356,-0.304707 1.426031,-0.304707 0.536285,0 0.901934,0.243766 0.365649,0.231577 0.365649,0.719109 0,0.475344 -0.268142,0.889746 -0.255955,0.414402 -0.694734,0.755675 -0.438778,0.341272 -0.987252,0.609415 -0.536285,0.268142 -1.109135,0.463155 -0.560662,0.195013 -1.060382,0.304708 z"
             id="path879" /><path
             d="m 18.729311,25.07506 q 0.06094,0.316896 0.158447,0.438779 0.09751,0.121883 0.255955,0.121883 0.170636,0 0.341272,-0.195013 0.182825,-0.207201 0.402214,-0.853181 l 0.158448,-0.450967 h 0.231578 l -0.304708,0.889746 q -0.170636,0.511908 -0.438779,0.780051 -0.268142,0.268142 -0.585038,0.365649 -0.316896,0.09751 -0.609415,0.09751 -0.536285,0 -0.914123,-0.255954 -0.365649,-0.255954 -0.438778,-0.938499 l -0.487532,-4.253717 q -0.04875,-0.316896 -0.158448,-0.414402 -0.109695,-0.09751 -0.268143,-0.09751 -0.109695,0 -0.219389,0.07313 -0.109695,0.06094 -0.231578,0.280331 -0.121883,0.207201 -0.280331,0.64598 l -0.158448,0.450967 h -0.231578 l 0.304708,-0.889746 q 0.182824,-0.511908 0.450967,-0.780051 0.268143,-0.268143 0.597227,-0.365649 0.329084,-0.09751 0.633791,-0.09751 0.572851,0 0.914123,0.268142 0.341272,0.255954 0.414402,1.023817 z m 0.597226,-4.582801 q -0.304707,0.341272 -0.536285,0.767863 -0.231578,0.42659 -0.390026,0.865369 -0.158447,0.426591 -0.268142,0.780051 0,0 -0.121883,0 -0.121883,-0.01219 -0.121883,-0.01219 0.04875,-0.158448 0.134071,-0.438779 0.09751,-0.280331 0.243766,-0.633791 0.14626,-0.365649 0.353461,-0.731298 0.207201,-0.377838 0.475344,-0.71911 0.341272,-0.426591 0.670356,-0.585039 0.341272,-0.158447 0.670357,-0.158447 0.390025,0 0.633791,0.207201 0.255954,0.207201 0.255954,0.597226 0,0.377838 -0.255954,0.633792 -0.255954,0.243766 -0.658168,0.243766 -0.341272,0 -0.64598,-0.195013 -0.292519,-0.195013 -0.438779,-0.621603 z m -3.571172,4.911885 q 0.463156,-0.524097 0.79224,-1.194454 0.329084,-0.670356 0.49972,-1.21883 0,0 0.109695,0.01219 0.121883,0.01219 0.121883,0.01219 -0.09751,0.341272 -0.268143,0.780051 -0.170636,0.426591 -0.42659,0.877558 -0.243766,0.438779 -0.57285,0.853181 -0.353461,0.414402 -0.694734,0.57285 -0.341272,0.170636 -0.658168,0.170636 -0.42659,0 -0.658168,-0.207201 -0.231578,-0.207201 -0.231578,-0.560662 0,-0.414402 0.280331,-0.658168 0.268143,-0.255954 0.64598,-0.255954 0.402214,0 0.658168,0.231577 0.268143,0.231578 0.402214,0.585039 z"
             id="path881" /><path
             d="m 23.312095,17.76208 q 0.02438,-0.524097 0.377838,-0.804428 0.365649,-0.280331 0.865369,-0.280331 0.450967,0 0.682545,0.219389 0.243766,0.207201 0.219389,0.585039 -0.02438,0.475343 -0.390025,0.780051 -0.365649,0.292519 -0.877558,0.292519 -0.426591,0 -0.670357,-0.207201 -0.231577,-0.219389 -0.207201,-0.585038 z m -0.463155,3.071451 q 0.207201,-0.609415 -0.134071,-0.609415 -0.21939,0 -0.402214,0.21939 -0.182825,0.219389 -0.377838,0.743486 l -0.243766,0.621603 h -0.231577 l 0.341272,-0.926311 q 0.170636,-0.487532 0.426591,-0.755674 0.268142,-0.268143 0.585038,-0.377837 0.329084,-0.121883 0.682545,-0.121883 0.42659,0 0.670356,0.158447 0.243766,0.158448 0.329084,0.414403 0.08532,0.243766 0.06094,0.548473 -0.02438,0.292519 -0.121883,0.585039 l -1.279772,3.729619 q -0.109694,0.329085 -0.06094,0.475344 0.06094,0.134071 0.231578,0.134071 0.158448,0 0.341272,-0.182824 0.195013,-0.182825 0.426591,-0.780051 l 0.219389,-0.585039 h 0.231578 l -0.316896,0.889746 q -0.170636,0.499721 -0.438779,0.767863 -0.268143,0.268143 -0.585038,0.377837 -0.304708,0.109695 -0.621604,0.109695 -0.524097,0 -0.804427,-0.231578 -0.268143,-0.231577 -0.29252,-0.670356 -0.02438,-0.438779 0.170637,-1.036006 z"
             id="path883" /></g></g></g></g></svg>
