<svg version="1.2" xmlns="http://www.w3.org/2000/svg" viewBox="0 0 512 512" width="512" height="512"><style>.a{fill:#800080}.b{fill:#a142a1}</style><path class="a" d="m493.8 46.2l-276.2 80.9h-154.5c-11.6 0-23.2 3.8-33.1 10 6.5-3.9 13.7-7.9 21.8-10.2l429.4-125.9c13.7-2.9 26.1 3.5 29.8 16.2 3.7 12.8-3.5 26.1-17.2 29zm-47.6 273.8c0 43.3-34.9 79.1-79.1 79.1-44.2 0-80-34.9-80-79.1 0-44.2 35.8-80 80-80 45.1 0 79.1 36.7 79.1 80z"/><path fill-rule="evenodd" class="b" d="m510.2 192v254.2c0 34.5-27.7 63.1-63.1 63.1h-383.1c-34.4 0-63.1-27.7-63.1-63.1v-255.1c0-34.4 27.8-63.1 63.1-63.1h383.1c36.2 0 64 28.7 63.1 64zm-430.2 71.1c0 3.5 2.7 7.1 7.1 7.1h111.1c3.5 0 7.1-2.7 7.1-7.1v-15.1c0-3.5-2.7-7.1-7.1-7.1h-111.1c-3.5 0-7.1 2.7-7.1 7.1zm128 112.9c0-3.5-2.7-7.1-7.1-7.1h-111.1c-3.5 0-7.1 2.7-7.1 7.1v15.1c0 3.5 2.7 7.1 7.1 7.1h111.1c3.5 0 7.1-2.7 7.1-7.1zm14.2-48.9v-16c0-3.5-2.7-7.1-7.1-7.1h-143.1c-3.5 0-7.1 2.7-7.1 7.1v16c0 3.5 2.7 7.1 7.1 7.1h144.9c3.5 0 7.1-2.7 7.1-7.1zm224-7.1c0-44.1-34.9-80-79.1-80-44.2 0-80 36.7-80 80 0 43.3 35.8 79.1 80 79.1 45.1 0 79.1-35 79.1-79.1z"/></svg>