<svg version="1.2" xmlns="http://www.w3.org/2000/svg" viewBox="0 0 1024 1024" width="1024" height="1024">
	<title>lexi-hd</title>
	<style>
		.s0 { fill: #800080 } 
		.s1 { fill: #fdfdfe } 
	</style>
	<g id="Background">
		<path id="Path 0" class="s0" d="m517.5 0.5c22.8 0.2 39.9 0.9 49 1.9 7.7 0.8 19.6 2.4 26.5 3.5 6.9 1.1 19 3.4 27 5 8 1.7 22.4 5.3 32 8 9.6 2.7 24 7.3 32 10.2 8 2.8 20.7 7.8 28.3 11 7.5 3.3 21.3 9.7 30.7 14.4 9.4 4.7 22.1 11.5 28.3 15.2 6.1 3.6 17.3 10.7 24.7 15.6 7.4 5 17.8 12.3 23 16.2 5.2 4 14.7 11.4 21 16.6 6.3 5.1 19.8 17.5 29.8 27.4 10.1 9.9 23.1 23.4 28.8 30 5.7 6.6 14.2 16.9 19 23 4.7 6.1 14.1 19.3 20.8 29.5 6.8 10.2 15.3 23.7 18.8 30 3.6 6.3 10 18.5 14.3 27 4.3 8.5 10.7 22.5 14.2 31 3.5 8.5 9.1 23.4 12.3 33 3.2 9.6 7.7 24.5 9.9 33 2.2 8.5 5.4 22.5 7 31 1.7 8.5 3.9 22.5 5 31 1.1 8.5 2.5 21.6 3.1 29 0.5 7.4 1 25.4 1 40 0 15.3-0.6 33.7-1.5 43.5-0.8 9.4-2.4 23.3-3.6 31-1.1 7.7-3.4 20.5-5 28.5-1.6 8-4.6 20.6-6.5 28-2 7.4-6.2 21.4-9.4 31-3.2 9.6-8.5 23.8-11.6 31.5-3.2 7.7-10.2 22.8-15.5 33.5-5.4 10.7-13.5 25.8-18.1 33.5-4.6 7.7-12 19.4-16.5 26-4.4 6.6-13.1 18.6-19.4 26.6-6.3 8.1-16 19.8-21.5 26-5.6 6.3-17.8 18.8-27 27.9-9.3 9.1-22.1 20.8-28.4 25.9-6.3 5.2-16.5 13.1-22.5 17.6-6 4.5-16.2 11.6-22.5 15.8-6.3 4.1-16.5 10.5-22.5 14.2-6 3.6-19.8 11-30.5 16.4-10.7 5.3-24.7 11.9-31 14.6-6.3 2.6-18.3 7.3-26.5 10.2-8.3 3-22.9 7.7-32.5 10.4-9.6 2.7-24 6.3-32 8-8 1.6-21.5 4.1-30 5.4-8.5 1.3-21.6 3-29 3.7-8.3 0.8-27.2 1.3-49 1.3-21.8 0-40.7-0.5-49-1.3-7.4-0.7-20.5-2.4-29-3.7-8.5-1.3-22-3.8-30-5.4-8-1.7-22.4-5.3-32-8-9.6-2.7-24.3-7.4-32.5-10.4-8.3-2.9-20.2-7.6-26.5-10.2-6.3-2.7-19.8-9-30-14.1-10.2-5-24.4-12.6-31.5-16.9-7.2-4.3-17.7-11-23.5-14.8-5.8-3.9-15.4-10.7-21.5-15.2-6.1-4.5-16.2-12.4-22.5-17.5-6.3-5.2-20-17.8-30.3-28-10.4-10.2-23.3-23.7-28.8-30-5.4-6.3-13.7-16.5-18.4-22.5-4.7-6-12.7-17.1-17.8-24.5-5-7.4-12.6-19.4-17-26.5-4.3-7.1-12.4-22.2-18.1-33.5-5.6-11.3-12.8-26.8-16-34.5-3.1-7.7-8.4-22-11.7-31.7-3.2-9.8-7.7-24.7-9.8-33-2.2-8.4-5.1-20.9-6.5-27.8-1.3-6.9-3.4-18.8-4.5-26.5-1.2-7.7-2.8-21.6-3.6-31-0.9-10.1-1.5-28.2-1.5-44.5 0-16.4 0.6-34.6 1.5-45 0.9-9.6 2.5-23.6 3.6-31 1.1-7.4 3.4-20 5-28 1.6-8 4.5-20.6 6.5-28 1.9-7.4 6.2-21.4 9.4-31 3.2-9.6 8.8-24.5 12.3-33 3.5-8.5 9.9-22.5 14.2-31 4.3-8.5 10.8-20.9 14.5-27.5 3.8-6.6 12.2-20.1 18.8-30 6.6-9.9 15.9-22.9 20.6-29 4.8-6.1 13.1-16.2 18.5-22.5 5.5-6.3 18.4-19.8 28.8-30 10.3-10.2 24-22.8 30.3-27.9 6.3-5.2 15.8-12.6 21-16.6 5.2-3.9 15.6-11.2 23-16.2 7.4-4.9 18.6-12 24.7-15.6 6.2-3.7 18.9-10.5 28.3-15.2 9.4-4.7 23.2-11.1 30.7-14.4 7.6-3.2 20.3-8.2 28.3-11 8-2.9 22.4-7.5 32-10.2 9.6-2.7 24-6.3 32-8 8-1.6 21.5-4.1 30-5.4 8.5-1.3 21.4-2.9 28.5-3.4 7.1-0.6 14.6-1.3 16.5-1.5 1.9-0.2 19.2-0.3 38.5-0.1z"/>
		<path id="Path 1" class="s1" d="m713 150.7c11.8 0.3 18.3 0.9 24.4 2.3 4.6 1 11.2 2.8 14.8 4.1 3.5 1.2 9.5 3.7 13.3 5.6 3.8 1.9 10.5 5.8 14.8 8.6 4.7 3.1 12 9.3 18.5 15.8 7.2 7.3 12.6 13.7 17 20.4 3.4 5.3 8 13.4 10.2 17.9 2.1 4.6 5.1 11.8 6.6 16.2 1.5 4.3 3.6 11.5 4.7 16.1 1.1 4.5 2.6 12.9 3.3 18.6 0.8 5.7 1.4 15.3 1.4 21.2 0 6-0.4 15.2-1 20.5-0.5 5.3-1.8 13.8-2.8 18.9-1 5.1-3.3 13.6-5.1 18.9-1.7 5.3-5.2 13.8-7.6 18.9-2.5 5.1-7.8 14.2-11.9 20.3-4.1 6-10 14-13.2 17.6-3.2 3.5-9.6 10-14.2 14.2-4.6 4.3-11.4 10.1-15.2 13-3.8 2.8-10.4 7.4-14.7 10-4.3 2.7-11.6 6.6-16.1 8.8-4.6 2.1-12.2 5.1-17.1 6.6-4.8 1.6-13.1 3.7-18.4 4.7-5.3 1-16.1 2.4-23.9 3-11.3 0.9-18.1 0.9-32.3 0.1-9.9-0.7-22.3-1.8-27.6-2.5-5.4-0.8-17-2.7-25.8-4.2-8.9-1.6-16.5-3.2-16.8-3.5-0.4-0.3 4.1-9.5 9.9-20.4 5.9-10.9 14.3-26.3 18.7-34.3 5.7-10.4 8.4-14.4 9.4-14.2 0.7 0.3 5.7 2 11 3.8 5.3 1.8 14.3 4.2 19.8 5.3 8.3 1.7 13.3 2.1 26.7 2.1 14.1 0 17.8-0.4 24.7-2.1 4.4-1.1 10.6-3.3 13.8-4.9 3.2-1.6 7.6-4.2 9.9-5.9 2.3-1.7 6.3-5.3 8.9-8 2.5-2.7 6.1-7.2 7.9-10 1.8-2.8 4.8-8 6.6-11.7 1.8-3.7 4.6-10.3 6.1-14.8 1.5-4.4 3.3-12 4.1-16.8 0.8-4.8 1.7-13.7 2-19.8 0.3-6.2 0.1-14.9-0.4-19.8-0.6-4.8-1.9-12.1-3-16.1-1-4.1-3.7-11.2-6-15.9-2.8-5.8-5.8-10.3-9.4-14.1-3.5-3.8-7.3-6.6-11.2-8.6-5.2-2.5-7-2.9-13.4-2.9-6.6 0-8.1 0.4-13.8 3.2-3.6 1.8-9.6 5.7-13.3 8.8-3.8 3-11 10.1-16 15.7-5.1 5.5-13.2 15.3-18.2 21.6-4.9 6.4-14.1 18.8-20.3 27.7-6.2 8.8-17.2 25-24.4 35.9-7.2 10.9-18.9 29.1-25.9 40.5-7.1 11.4-17.9 29.1-24 39.2-6.1 10.1-13.5 22.8-16.6 28.1-3.1 5.3-11 19.6-17.5 31.8-6.6 12.1-15.8 29.7-20.4 38.9-4.6 9.3-8.7 16.8-9.1 16.8-0.4 0-11.3-16.8-24.2-37.3-12.9-20.6-24.1-38.5-24.8-39.9-1.2-2.4-0.7-3.5 11.9-27.4 7.2-13.6 18.3-34.4 24.7-46 6.3-11.7 18.8-34.1 27.6-49.8 8.9-15.7 21.6-37.7 28.3-48.8 6.6-11.2 16.4-26.7 21.7-34.6 5.2-7.8 13.2-19.2 17.8-25.3 4.6-6.1 11.3-14.6 15-18.9 3.6-4.3 11.6-12.7 17.7-18.6 6.2-6 14.6-13.4 18.8-16.5 4.2-3.1 11-7.7 15.2-10.1 4.2-2.5 11.4-6.2 16.1-8.2 4.7-1.9 11.4-4.4 15-5.5 3.5-1 9.8-2.5 13.8-3.2 5.3-1 11.9-1.3 23.5-1.1zm-370.2 5.2c0.4 0 0.7 0.3 0.7 0.7 0 0.3-1.2 4.2-2.7 8.5-1.5 4.3-3.2 11.3-3.8 15.6-0.8 5.8-0.8 10-0.1 16.2 0.6 4.5 1.9 11.2 3 14.7 1.1 3.6 3.6 9.6 5.5 13.4 1.9 3.8 5.7 10 8.4 13.8 2.7 3.8 8.8 10.8 13.6 15.7 4.9 4.8 14 12.9 20.4 18 6.3 5.1 15.2 11.7 19.8 14.8 4.5 3 12.4 8 17.5 10.9 5 3 13.1 7.3 17.9 9.6 4.9 2.3 15 6.3 22.6 8.9 7.8 2.7 14 5.3 14.1 6.1 0.2 0.6-3.6 9.1-8.4 18.7-4.8 9.7-12.1 24-16.2 31.8-4.2 7.9-7.8 14.4-8 14.5-0.2 0.1-7.5-3.2-16.3-7.5-8.7-4.2-21.6-11.2-28.6-15.4-7.1-4.2-17.9-11.5-24-16.1-6.1-4.6-16-13.2-22-19.1-5.9-5.9-13.4-14-16.5-17.9-3.1-3.9-8.1-10.9-11.2-15.4-3-4.6-7.2-11.8-9.4-16.1-2.1-4.4-5-11-6.4-14.8-1.3-3.8-3.3-10.2-4.4-14.3-1.7-6.1-2-9.8-2-21.6 0.1-12.3 0.4-15.6 2.4-23.1 1.3-4.8 4.1-12.4 6.2-17 2.1-4.6 5.6-10.8 7.7-13.8 2-3.1 5.4-7.6 7.5-10 2.1-2.5 5.6-5.7 7.9-7.1 2.2-1.5 4.4-2.7 4.8-2.7zm-22.3 290.6c7.8 0.3 15.4 1.1 20.3 2.2 4.3 1 11.7 3.2 16.6 4.8 4.8 1.6 12.4 4.7 17 6.8 4.6 2.1 12.4 6.5 17.5 9.7 5.1 3.2 12.5 8.5 16.4 11.9 4 3.4 9.8 9.2 13 13 3.2 3.8 8.5 10.7 11.8 15.2 3.3 4.6 12.1 17.2 19.7 28.1 7.5 10.9 30.5 44.9 51 75.6 20.6 30.6 41.8 61.7 47.1 69 5.3 7.3 13.1 17.6 17.4 23 4.3 5.4 12.4 14.4 18 20 5.6 5.6 13.1 12.4 16.6 15 3.6 2.6 10 6.6 14.3 8.9 4.3 2.2 11.1 4.9 15.2 6 5.4 1.5 10.2 2.1 18 2.1 7.3 0.1 12.4-0.4 16.5-1.5 3.3-0.9 9.3-3.2 13.4-5.1 4.1-2 10.7-6 14.7-9.1 4.1-3 11.2-9.4 15.7-14.1 4.6-4.8 10.9-12 14-16.1 3-4 8.3-11.5 11.6-16.6 3.3-5 8.4-13.3 11.3-18.4 2.9-5.1 9.3-17.3 14.2-27.2 4.8-9.9 12.1-25.2 16.2-34 4-8.9 8.2-17.1 9.2-18.3 1-1.2 2.1-1.8 2.4-1.4 0.4 0.4 1.1 9.7 1.7 20.6 0.6 10.8 0.8 24.5 0.5 30.4-0.3 5.8-1.2 16.8-1.9 24.4-0.7 7.6-2.2 18.8-3.2 24.9-1.1 6-2.8 14.7-3.8 19.3-1 4.6-3.3 13.7-5.1 20.3-1.8 6.6-4.8 16.3-6.7 21.6-1.9 5.3-5.6 14.7-8.3 20.8-2.6 6-7.2 15.6-10.3 21.1-3 5.6-9 15.4-13.2 21.7-4.2 6.3-11.2 15.7-15.4 20.7-4.3 5.1-11.6 12.6-16.2 16.6-4.6 4.1-12 9.7-16.5 12.5-4.4 2.7-11.4 6.3-15.5 8-4.1 1.6-10.6 3.5-14.5 4.3-4 0.8-11.7 1.5-17.5 1.5-5.7-0.1-13.3-0.7-16.8-1.4-3.6-0.8-8.8-2.3-11.6-3.4-2.7-1.1-7.9-3.7-11.5-5.7-3.5-2-9.3-5.8-12.9-8.5-3.5-2.6-10.4-8.9-15.2-13.9-4.8-5-11.3-12.4-14.4-16.4-3.1-4.1-9.5-13.4-14.3-20.8-4.9-7.3-11.9-18.7-15.7-25.3-3.8-6.6-11.4-20.3-16.8-30.4-5.5-10.1-15.4-28.4-22-40.5-6.6-12.2-16.3-29.8-21.6-39.2-5.3-9.4-16.1-27.8-23.9-41-7.9-13.2-18.5-30.6-23.6-38.7-5.1-8.1-12.6-19.5-16.7-25.3-4.1-5.9-10.7-14-14.8-18-4-4.1-9.9-9.2-12.9-11.2-3-2.1-7.6-4.8-10.1-6.1-2.6-1.3-7.7-3.3-11.5-4.5-5.9-1.8-8.8-2.1-18.9-2.1-8.5 0-13.8 0.5-18 1.7-3.3 0.9-8.9 2.9-12.4 4.4-3.6 1.5-10 5.1-14.3 7.9-4.3 2.9-12.4 9.6-17.9 14.9-5.5 5.4-12.6 13.1-15.7 17.1-3.2 4.1-8.1 10.9-10.9 15.2-2.8 4.3-7.8 13.4-11.2 20.3-3.3 6.8-7.4 16.8-9.2 22.1-1.7 5.3-4.1 14.2-5.3 19.8-1.8 8.6-2.1 12.8-2.1 27.7 0 14.1 0.3 18.7 1.7 23.9 0.9 3.6 2.7 8.5 3.8 11.1 1.2 2.5 4.1 6.8 6.6 9.5 2.4 2.8 6 5.8 7.9 6.7 1.9 1 5.6 2.2 8.3 2.8 3.6 0.7 6.2 0.7 10.4-0.1 3-0.6 8.8-2.7 12.9-4.7 4-2 11.9-7 17.5-11.2 5.5-4.2 15.9-13.4 23.1-20.5 7.1-7.1 16.2-16.9 20.2-21.7 3.9-4.8 10.8-13.5 15.2-19.3 4.4-5.9 11.7-16.2 16.2-23.1 4.5-6.8 11.3-17.8 15.1-24.3 3.8-6.5 7.2-12 7.6-12.2 0.4-0.2 1.8 2.1 3.1 5 1.3 2.9 4.8 10.4 7.7 16.8 2.9 6.3 10 21.7 15.6 34.1 5.7 12.4 10.3 23.1 10.2 23.7 0 0.6-6.5 10.1-14.5 21.1-8 10.9-18.8 25.1-24 31.5-5.2 6.4-13.7 16.4-18.9 22.2-5.2 5.7-13.8 14.7-19.1 19.8-5.3 5.1-13.8 12.6-18.9 16.7-5 4.1-13.3 10.1-18.4 13.5-5 3.3-13 7.9-17.7 10.3-4.7 2.3-12.2 5.5-16.6 7-4.4 1.5-12 3.4-16.8 4.2-6.3 1.1-11.5 1.4-18.4 1-5.5-0.3-12.7-1.3-16.6-2.4-3.8-1.1-10-3.6-13.8-5.6-3.8-2-10.5-6.4-14.7-9.8-4.3-3.5-10.7-9.6-14.2-13.6-3.5-4.1-8.4-10.5-10.9-14.3-2.5-3.8-7.3-12.3-10.5-18.9-3.3-6.6-7.8-17.7-10.1-24.7-2.3-6.9-5.2-17.7-6.4-23.9-1.3-6.2-2.9-16.9-3.7-23.7-0.8-6.9-1.4-19.4-1.4-27.9 0-8.5 0.4-19.5 1-24.4 0.5-5 1.8-13.2 2.8-18.2 1.1-5.1 3.2-13.4 4.7-18.4 1.5-5.1 4.7-14.2 7.2-20.3 2.5-6.1 7.1-15.6 10.2-21.2 3.1-5.6 8.2-14.1 11.4-18.9 3.2-4.8 8.7-12.3 12.1-16.6 3.5-4.3 10.7-12.3 16-17.9 5.3-5.5 14.2-13.9 19.8-18.7 5.6-4.8 14.5-11.6 19.8-15.1 5.3-3.6 14.9-9.1 21.2-12.3 6.4-3.2 15.3-7.1 19.8-8.6 4.6-1.6 11.6-3.5 15.7-4.3 5.2-0.9 11.1-1.2 19.8-1z"/>
	</g>
</svg>