<svg version="1.2" xmlns="http://www.w3.org/2000/svg" viewBox="0 0 1024 1024" width="1024" height="1024">
	<title>lexi-hd</title>
	<style>
		.s0 { fill: #fdfdfe } 
	</style>
	<g id="Background">
		<path id="Path 1" class="s0" d="m820.2-0.2c16.5 0.3 25.5 1.2 34 3.1 6.4 1.4 15.6 4 20.6 5.7 4.9 1.7 13.3 5.2 18.6 7.9 5.3 2.6 14.5 8 20.5 11.9 6.6 4.4 16.8 13.1 25.8 22.1 10.2 10.2 17.6 19.1 23.7 28.3 4.9 7.5 11.3 18.7 14.2 25.1 3 6.3 7.1 16.5 9.3 22.5 2.1 6 5.1 16.1 6.6 22.4 1.5 6.4 3.6 18.1 4.6 26.1 1 7.9 1.9 21.2 1.9 29.5 0 8.3-0.6 21.2-1.3 28.6-0.8 7.4-2.6 19.2-4 26.3-1.4 7.1-4.6 18.9-7.1 26.3-2.4 7.5-7.2 19.3-10.6 26.4-3.5 7-10.9 19.7-16.6 28.2-5.7 8.5-14 19.5-18.4 24.5-4.5 5.1-13.4 14-19.8 20-6.3 5.9-15.9 14-21.2 18-5.2 4-14.5 10.3-20.5 14-6 3.7-16.1 9.2-22.4 12.2-6.4 3-17.1 7.1-23.8 9.3-6.7 2.2-18.3 5.1-25.7 6.5-7.4 1.4-22.4 3.3-33.4 4.2-15.7 1.3-25.2 1.3-44.9 0-13.8-0.8-31.1-2.3-38.6-3.4-7.4-1-23.6-3.7-35.9-5.9-12.4-2.2-22.9-4.4-23.5-4.8-0.5-0.5 5.8-13.2 13.9-28.4 8.2-15.2 19.9-36.8 26-47.9 8-14.5 11.7-20.1 13.1-19.7 1.1 0.3 8 2.7 15.4 5.2 7.4 2.6 19.9 5.9 27.6 7.5 11.5 2.3 18.5 2.8 37.3 2.8 19.6 0 24.8-0.4 34.3-2.9 6.2-1.5 14.9-4.6 19.3-6.8 4.4-2.2 10.6-5.9 13.8-8.2 3.2-2.3 8.7-7.4 12.3-11.1 3.6-3.8 8.6-10.1 11.1-14 2.5-3.9 6.6-11.2 9.2-16.4 2.6-5.1 6.4-14.3 8.5-20.5 2-6.2 4.6-16.7 5.7-23.4 1.1-6.8 2.4-19.2 2.8-27.7 0.4-8.6 0.2-20.7-0.6-27.6-0.8-6.7-2.6-16.8-4.1-22.5-1.4-5.6-5.2-15.6-8.3-22.1-3.9-8.1-8.1-14.4-13.1-19.7-4.9-5.2-10.2-9.2-15.8-11.9-7.2-3.5-9.6-4-18.6-4-9.2 0-11.3 0.4-19.3 4.4-4.9 2.4-13.3 7.9-18.5 12.2-5.2 4.3-15.3 14.1-22.3 21.9-7 7.8-18.4 21.3-25.3 30.2-6.9 8.8-19.6 26.1-28.3 38.5-8.7 12.4-24 34.9-34.1 50.1-10 15.2-26.2 40.6-36.1 56.5-9.9 15.9-24.9 40.5-33.4 54.6-8.5 14.1-18.9 31.7-23.2 39.2-4.2 7.4-15.2 27.3-24.4 44.3-9.2 16.9-22 41.4-28.4 54.2-6.5 12.9-12.2 23.5-12.7 23.5-0.5-0.1-15.7-23.5-33.7-52.1-18-28.6-33.6-53.6-34.6-55.5-1.7-3.4-1-4.9 16.6-38.2 10.1-19.1 25.6-48 34.4-64.2 8.9-16.3 26.2-47.5 38.5-69.4 12.4-21.9 30.1-52.5 39.4-68 9.3-15.6 22.9-37.3 30.3-48.2 7.3-11 18.5-26.9 24.9-35.3 6.4-8.5 15.7-20.4 20.8-26.4 5-6 16.2-17.7 24.7-26 8.6-8.3 20.4-18.6 26.2-22.9 5.8-4.3 15.4-10.7 21.2-14.1 5.8-3.5 15.9-8.6 22.5-11.4 6.5-2.7 15.9-6.2 20.9-7.7 4.9-1.4 13.6-3.5 19.2-4.5 7.4-1.4 16.6-1.8 32.8-1.4zm-516.1 7.1c0.6 0 1 0.5 1 1 0 0.5-1.7 5.9-3.8 11.9-2.1 6-4.5 15.8-5.3 21.8-1.1 8.1-1.1 13.9-0.1 22.5 0.8 6.3 2.7 15.6 4.2 20.5 1.5 5 4.9 13.4 7.6 18.6 2.7 5.3 8 14 11.7 19.3 3.7 5.3 12.3 15.1 19.1 21.9 6.7 6.7 19.4 18 28.3 25.1 8.8 7.1 21.2 16.3 27.6 20.6 6.4 4.3 17.3 11.2 24.4 15.3 7.1 4.1 18.3 10.1 25 13.3 6.8 3.2 20.9 8.8 31.5 12.5 10.8 3.7 19.5 7.4 19.7 8.4 0.2 0.9-5.1 12.7-11.7 26.1-6.7 13.4-16.9 33.4-22.7 44.3-5.8 11-10.8 20.1-11.1 20.3-0.3 0.1-10.5-4.6-22.7-10.5-12.2-5.9-30.2-15.6-40-21.5-9.8-5.9-24.8-16-33.3-22.4-8.6-6.5-22.4-18.5-30.7-26.7-8.3-8.2-18.7-19.4-23-24.9-4.4-5.5-11.4-15.2-15.6-21.5-4.2-6.4-10.1-16.5-13.1-22.5-3-6-7-15.2-8.9-20.5-1.9-5.3-4.7-14.3-6.2-19.9-2.3-8.6-2.8-13.7-2.7-30.2 0-17.1 0.5-21.7 3.3-32.1 1.8-6.8 5.6-17.4 8.6-23.8 3-6.4 7.8-15 10.7-19.3 2.9-4.2 7.6-10.5 10.5-13.9 2.9-3.4 7.8-7.9 11-9.9 3.1-2.1 6.2-3.8 6.7-3.8zm-31.1 405.2c10.9 0.4 21.4 1.5 28.3 3.1 6 1.4 16.4 4.4 23.1 6.6 6.7 2.3 17.4 6.6 23.8 9.5 6.3 3 17.3 9 24.4 13.5 7 4.4 17.3 11.9 22.9 16.6 5.5 4.7 13.6 12.9 18 18.2 4.5 5.3 11.8 14.8 16.4 21.2 4.6 6.3 17 24 27.5 39.1 10.5 15.2 42.5 62.6 71.2 105.4 28.7 42.7 58.2 86 65.6 96.1 7.4 10.2 18.3 24.6 24.3 32.1 6 7.6 17.2 20.1 25 27.9 7.8 7.8 18.2 17.2 23.2 20.9 4.9 3.7 13.9 9.2 19.9 12.4 6 3.1 15.5 6.9 21.2 8.4 7.5 2.1 14.3 2.9 25 2.9 10.3 0.1 17.3-0.5 23.2-2 4.5-1.3 12.9-4.5 18.6-7.2 5.6-2.7 14.9-8.4 20.5-12.6 5.7-4.2 15.5-13.1 21.9-19.8 6.4-6.6 15.1-16.7 19.4-22.3 4.3-5.7 11.6-16.1 16.2-23.2 4.6-7 11.7-18.6 15.8-25.6 4-7.1 12.9-24.2 19.7-37.9 6.8-13.8 17-35.2 22.7-47.5 5.6-12.4 11.4-23.8 12.8-25.5 1.4-1.6 2.9-2.5 3.4-1.9 0.5 0.5 1.5 13.4 2.3 28.6 0.8 15.2 1.1 34.3 0.7 42.4-0.5 8.1-1.7 23.4-2.7 34-1 10.6-3 26.2-4.4 34.7-1.5 8.5-3.8 20.6-5.2 27-1.4 6.4-4.7 19.1-7.2 28.3-2.5 9.1-6.7 22.7-9.4 30.1-2.7 7.5-7.8 20.5-11.5 28.9-3.6 8.5-10.1 21.8-14.4 29.6-4.2 7.7-12.5 21.3-18.4 30.2-5.9 8.8-15.5 21.8-21.5 28.9-5.9 7-16.1 17.4-22.5 23.1-6.4 5.6-16.8 13.4-23 17.3-6.2 3.9-16 8.9-21.6 11.2-5.7 2.2-14.8 5-20.3 6.1-5.6 1.1-16.2 2-24.4 2-7.9 0-18.5-0.9-23.4-2-5-1-12.2-3.1-16.1-4.7-3.9-1.6-11.1-5.1-16-7.9-5-2.8-13.1-8.1-18-11.8-5-3.7-14.5-12.4-21.2-19.4-6.8-7-15.8-17.3-20.1-22.9-4.3-5.7-13.3-18.7-20-28.9-6.7-10.3-16.5-26.2-21.8-35.4-5.3-9.1-15.9-28.2-23.5-42.3-7.6-14.2-21.4-39.6-30.6-56.6-9.2-16.9-22.8-41.5-30.2-54.5-7.3-13.1-22.3-38.8-33.3-57.2-11-18.4-25.8-42.6-32.8-53.9-7.1-11.3-17.6-27.2-23.3-35.4-5.7-8.1-15-19.4-20.6-25.1-5.7-5.7-13.8-12.7-18-15.5-4.3-2.9-10.6-6.7-14.2-8.5-3.5-1.8-10.7-4.6-16-6.3-8.1-2.5-12.2-3-26.3-2.9-11.9 0-19.2 0.7-25.1 2.3-4.6 1.3-12.4 4-17.3 6.1-5 2.2-13.9 7.1-19.9 11.1-6 4-17.2 13.4-24.9 20.8-7.7 7.5-17.6 18.2-22 23.8-4.4 5.7-11.2 15.2-15.2 21.2-3.9 6-10.9 18.7-15.5 28.3-4.6 9.5-10.4 23.4-12.8 30.8-2.4 7.4-5.8 19.8-7.4 27.6-2.6 12-3 17.9-3 38.5 0 19.8 0.4 26.2 2.4 33.4 1.3 5 3.7 11.9 5.3 15.4 1.6 3.6 5.7 9.6 9.2 13.4 3.4 3.8 8.3 8 11 9.3 2.6 1.3 7.8 3 11.5 3.8 5.1 1.1 8.8 1.1 14.5-0.1 4.2-0.8 12.3-3.7 18-6.5 5.6-2.8 16.6-9.8 24.4-15.7 7.7-5.8 22.2-18.7 32.2-28.6 10-9.8 22.6-23.4 28.2-30.1 5.5-6.7 15-18.9 21.1-27 6.2-8.1 16.4-22.6 22.7-32.1 6.3-9.6 15.8-24.8 21.1-33.9 5.2-9.1 10-16.7 10.5-17 0.5-0.3 2.5 2.8 4.3 6.9 1.9 4.1 6.7 14.6 10.8 23.4 4.1 8.9 13.8 30.2 21.7 47.6 7.9 17.3 14.3 32.1 14.3 33 0 0.9-9.1 14.1-20.3 29.4-11.1 15.3-26.2 35.1-33.5 44-7.3 8.9-19.1 22.8-26.3 30.8-7.2 8.1-19.2 20.5-26.6 27.7-7.5 7.1-19.3 17.6-26.3 23.3-7.1 5.6-18.6 14.1-25.7 18.7-7 4.7-18.2 11.2-24.7 14.4-6.5 3.3-16.9 7.7-23.1 9.8-6.2 2.1-16.7 4.7-23.5 5.9-8.7 1.6-15.9 1.9-25.6 1.4-7.7-0.4-17.7-1.9-23.2-3.4-5.3-1.5-13.9-5-19.2-7.8-5.3-2.7-14.6-8.9-20.5-13.7-6-4.8-14.9-13.3-19.8-19-4.8-5.6-11.7-14.6-15.2-19.9-3.5-5.3-10.1-17.1-14.6-26.3-4.5-9.2-10.9-24.6-14-34.4-3.2-9.7-7.3-24.7-9-33.4-1.8-8.6-4.1-23.5-5.1-33-1.1-9.6-2-27-2-38.9 0-11.8 0.6-27.1 1.4-34 0.7-6.9 2.5-18.3 3.9-25.4 1.5-7 4.4-18.6 6.5-25.7 2.1-7 6.6-19.8 10.1-28.2 3.5-8.5 9.9-21.8 14.2-29.6 4.3-7.7 11.5-19.6 15.9-26.3 4.5-6.7 12.1-17.1 16.9-23.1 4.8-6 14.8-17.2 22.3-24.9 7.4-7.7 19.8-19.5 27.6-26.2 7.8-6.7 20.2-16.2 27.6-21.1 7.4-4.9 20.7-12.5 29.6-17 8.8-4.5 21.2-9.9 27.6-12.1 6.3-2.2 16.1-4.8 21.8-5.9 7.2-1.4 15.5-1.8 27.6-1.4z"/>
	</g>
</svg>