<svg version="1.2" xmlns="http://www.w3.org/2000/svg" viewBox="0 0 2048 1916" width="2048" height="1916">
	<title>harmony-2 (1)</title>
	<style>
		.s0 { fill: #ff99ff } 
	</style>
	<g id="Background">
		<path id="Path 1" class="s0" d="m710.3 18.4c-5.3 10.4-12.4 31.7-15.6 47.4-3.2 15.6-8.2 68.9-11 118.3-3.3 57.7-4.2 148-2.5 252.2 1.5 89.2 5.7 195.7 9.3 236.7 3.7 41 7.7 82.9 8.9 93.2l2.3 18.6c-32.3-16.7-91-45.6-151.3-74.9-60.3-29.3-142.2-69-182-88.3-39.8-19.3-111.9-53.8-160.1-76.6-48.2-22.9-105.5-49.1-127.2-58.2-21.7-9.2-45.4-17.9-52.6-19.4-7.2-1.4-16.1-0.8-19.7 1.4-5.8 3.5-5.9 5.7-0.1 18.6 3.5 8 22 38.3 41.1 67.2 19.1 29 46.8 69.4 61.5 89.9 14.7 20.5 43.6 59 64 85.5 20.5 26.5 56.9 71.9 80.8 100.9 24 28.9 81.2 90.2 127.3 136.1 46 46 103.4 100.4 127.5 121 24.1 20.6 60.6 49.8 81.1 64.9 20.5 15.1 50.1 34.6 65.8 43.3 15.7 8.7 46.3 23.1 68 32 21.7 8.8 50.8 18.8 64.8 22 14.2 3.4 25.2 8.3 25.2 11.4-0.1 3-8.2 18.8-18 35.1-9.9 16.3-34.4 63.1-54.5 104.1-20.2 41-51.9 116-70.5 166.6-18.6 50.7-48.1 126.6-65.5 168.8-17.3 42.2-37.3 94-44.3 115-10.2 30.9-11.8 40.6-8.2 50.4 3.6 9.7 7.6 12.5 19.8 13.4 9.4 0.7 20.7-2.2 29.5-7.7 7.8-4.8 36.4-34 63.6-64.7 27.1-30.8 58.2-64.4 69.1-74.9 10.8-10.4 39.4-33.3 63.5-50.9 24.2-17.6 49.3-35.2 56-39.1l12-7.2c8.3 32.3 15.2 47 20.7 53.7 6.9 8.2 14.2 12 23.2 12 7.3 0 17-3.9 21.9-8.7 4.8-4.9 12.5-21.1 17.2-36.2 4.6-15.1 10-38.1 12-51.2 3.3-21.2 5.5-24.9 21.2-35 9.7-6.2 31.4-21 48.3-33 16.9-12 40.5-29.8 52.6-39.6 12.1-9.7 39.5-33.4 61-52.7 21.6-19.3 53.9-51.9 71.8-72.4 18-20.5 45.7-57 61.5-81.1 15.9-24.1 39.2-65.6 51.7-92.1 12.5-26.5 28.7-67 35.8-89.9 7.2-22.9 15.4-58.4 18.3-78.9 2.8-20.5 7.2-50.1 9.7-65.7 2.5-15.7 8.6-36.4 13.5-46.1 4.9-9.6 26.1-42.2 47.2-72.3 21-30.2 46.7-69.6 57.2-87.7 10.4-18.1 26.1-48.7 34.9-68 8.8-19.3 24-46.9 33.7-61.4 9.7-14.4 30.3-37.8 45.7-51.9 15.5-14 43.9-36 63.2-48.8 19.3-12.8 70.6-41.1 114-62.8 43.4-21.8 99.7-47.9 125-58 25.3-10.2 59.9-23.2 76.7-29.1 16.9-5.9 33.2-12.5 36.2-14.8 3-2.3 4.5-7.2 3.3-10.8-1.2-3.7-7.4-6.5-14.2-6.5-6.7 0.1-28.9 3.9-49.4 8.4-20.5 4.5-54 14.1-74.5 21.3-20.5 7.2-53.1 19.4-72.4 27.1-19.3 7.7-71.6 31.5-116.2 52.8-44.6 21.4-95.9 43-114 47.9-18.1 5-42.8 9.1-54.8 9.1-12.1 0-35.8-3-52.7-6.5-16.9-3.6-47-6.6-66.9-6.6-19.8-0.1-46.5 2.1-59.2 4.7-12.6 2.7-35.8 11-51.5 18.5-17.6 8.5-38.7 23.8-55.1 40.1-14.7 14.6-34.3 40.3-43.7 57.2-9.4 16.9-26.2 53.4-37.4 81.1-11.1 27.7-23.5 56.8-27.5 64.7-4 7.8-14.7 22.3-23.8 32.2-9 9.9-22.8 21.7-30.7 26.3-7.8 4.6-14.9 7.8-15.8 7.2-0.9-0.6-9-19.8-18-42.7-8.9-22.9-40-97.9-69.1-166.6-29-68.8-68.1-164.5-86.8-212.7-18.8-48.2-49.9-128.1-69.1-177.5-19.2-49.5-45.5-119.5-58.5-155.6-13-36.1-29.5-75.6-36.8-87.6-7.2-12.1-16.4-22.6-20.4-23.4q-7.3-1.5-17 17.5z"/>
	</g>
</svg>