<svg version="1.2" xmlns="http://www.w3.org/2000/svg" viewBox="0 0 2403 2082" width="2403" height="2082">
	<title>harmony-app-icon-3d</title>
	<style>
		.s0 { fill: #ffffff } 
	</style>
	<g id="Background">
		<path id="Path 1" class="s0" d="m872.1 4.8c-2 2-5.1 6.4-6.9 9.7-1.9 3.3-5.1 10.4-7.3 15.8-2.1 5.3-5.5 16-7.4 23.7-2.1 8.5-4.5 22.1-6 34.8-1.4 11.4-3.2 29-4 39.2-0.8 10.2-2.2 29.8-3 43.5-0.8 13.8-2 37.1-2.6 52-0.7 17.9-0.9 63.8-0.6 136 0.3 60 1 121.1 1.6 136 0.6 14.9 1.7 46.6 2.6 70.5 0.8 23.9 1.7 46.6 2 50.5 0.3 3.9 1.4 19.8 2.6 35.5 1.2 15.7 2.6 29.6 3.3 31 0.8 1.9 5.4 4.6 17.6 10.7 9.1 4.6 20.5 9.9 25.5 11.9 5 2 12.8 5.1 17.5 6.9 4.7 1.8 18.2 6.9 30 11.2 11.8 4.4 33.7 12.1 48.5 17.1 14.8 5 34 11 42.5 13.3 8.5 2.3 22.5 5.7 31 7.6 8.5 1.9 22.9 4.8 32 6.4 9.1 1.7 21.2 3.6 27 4.4 5.8 0.7 17.7 1.9 26.5 2.6 8.8 0.7 24.6 1.3 35.2 1.3 10.5 0.1 19.5-0.2 20-0.7 0.4-0.4-0.6-3.7-2.4-7.5-1.7-3.7-6.5-15-10.6-25.2-4.1-10.2-11.2-27.3-15.7-38-4.5-10.7-10-23.8-12.2-29-2.2-5.2-4.9-11.8-6-14.5-1.1-2.8-4.6-11.1-7.8-18.5-3.1-7.4-8.3-19.8-11.5-27.5-3.2-7.7-7.4-17.6-9.2-22-1.9-4.4-7.4-17.9-12.4-30-4.9-12.1-9.8-24-10.9-26.5-1-2.5-3.6-8.8-5.8-14-2.2-5.2-6.9-16.9-10.5-26-3.6-9.1-9.9-25-14-35.5-4.1-10.5-9.1-23.2-11.1-28.3-2-5-5.2-13.4-7.2-18.5-2-5-6.2-16-9.4-24.2-3.3-8.3-8.4-21.5-11.5-29.5-3.1-8-10.3-26.2-16-40.5-5.7-14.3-13.5-34.3-17.3-44.5-3.8-10.2-9.1-23.9-11.6-30.5-2.6-6.6-6.3-16.3-8.3-21.5-2-5.2-4.6-12.2-5.9-15.5-1.2-3.3-4.1-10.9-6.4-17-2.2-6.1-7.9-21.4-12.6-34-4.7-12.6-9.6-25.9-11-29.5-1.4-3.6-3.6-9.4-4.9-13-1.4-3.6-5.2-13.7-8.6-22.5-3.3-8.8-9-23.2-12.6-32-3.6-8.8-8.8-20.5-11.5-26-2.8-5.5-7.4-13.4-10.3-17.5-2.9-4.1-7.2-9.4-9.6-11.8-2.8-2.7-5.3-4.3-6.8-4.2-1.4 0-3.9 1.5-6 3.7zm1496.9 274.3c-2.5 0.5-10.8 2-18.5 3.5-7.7 1.4-18.9 3.7-25 5.1-6.1 1.4-18 4.3-26.5 6.5-8.5 2.3-20.7 5.6-27 7.5-6.3 1.8-21.9 6.9-34.5 11.3-12.7 4.3-30 10.4-38.5 13.6-8.5 3.2-27.2 10.4-41.5 16-14.3 5.7-30.5 12.3-36 14.8-5.5 2.4-22.8 10.3-38.5 17.5-15.7 7.1-32.3 14.8-37 17-4.7 2.1-13.2 6.2-19 9-5.8 2.7-14.1 6.7-18.5 8.7-4.4 2-10.5 4.8-13.5 6.2-3 1.4-11.4 5.2-18.5 8.5-7.2 3.3-22.9 10.2-35 15.3-12.1 5-28.1 11.5-35.5 14.3-7.4 2.8-19.1 6.7-26 8.6-6.9 1.9-20.4 4.9-30 6.5-9.6 1.6-21.8 3.2-27 3.5-5.2 0.4-13.3 0.2-18-0.3-4.7-0.5-22.7-3-40-5.5-17.3-2.5-37.6-5.2-45-6.1-7.4-0.9-24.1-1.9-37-2.2-17.9-0.4-28-0.1-42.5 1.1-10.5 1-24.4 2.9-31 4.2-6.6 1.4-17.6 4.5-24.5 6.9-6.9 2.4-17.2 6.4-23 8.8-5.8 2.4-13 5.7-16 7.2-3 1.5-9.6 5.3-14.5 8.3-5 3.1-12.2 7.8-16 10.6-3.9 2.7-9.5 7-12.5 9.5-3 2.5-10.4 9.2-16.3 15.1-6 5.8-14.6 14.8-19.1 20-4.5 5.2-10.3 12.2-12.8 15.5-2.4 3.3-6.9 9.6-9.9 14-3 4.4-7.3 11.1-9.5 15-2.3 3.9-8 14.6-12.7 24-4.7 9.4-11.5 23.3-15 31-3.6 7.7-10.6 23.9-15.6 36-5.1 12.1-10.7 25.6-12.6 30-1.8 4.4-5.4 12.7-7.8 18.5-2.5 5.8-6.6 15.2-9.2 21-2.6 5.8-7.1 14.5-10 19.5-2.9 5-7.4 11.9-10.1 15.5-2.6 3.6-10.6 12.5-17.8 19.9-7.2 7.3-16.3 15.9-20.1 18.9-3.9 3.1-10.2 7.6-14 9.9-3.9 2.4-10.4 5.4-14.5 6.7-4.1 1.3-8.9 2.7-10.5 3-1.7 0.4-11.6 1-22 1.5-11.7 0.6-30.9 0.6-50 0-17.1-0.5-39.6-1.8-50-2.8-10.5-1.1-27.6-3.4-38-5-10.5-1.7-26.9-4.6-36.5-6.5-9.6-1.9-25.4-5.3-35-7.5-9.6-2.2-22.5-5.1-28.5-6.6-6.1-1.4-17.8-4.6-26-7-8.3-2.4-18.4-5.6-22.5-6.9-4.1-1.4-10.9-3.7-15-5.1-4.1-1.5-14.7-5.4-23.5-8.7-8.8-3.4-21.4-8.5-28-11.4-6.6-2.9-21.7-9.9-33.5-15.7-11.8-5.7-49.4-24.3-83.5-41.2-34.1-16.9-75.5-37.4-92-45.5-16.5-8.1-55.7-27.2-87-42.5-31.4-15.2-62-30.1-68-33-6.1-2.9-16.6-8-23.5-11.3-6.9-3.3-26.9-13-44.5-21.6-17.6-8.6-32.1-15.6-32.3-15.6-0.1 0-10.9-5.2-24-11.6-13-6.4-29.8-14.4-37.2-17.9-7.4-3.4-21.9-10.4-32.3-15.4-10.3-5-18.9-9.1-19.2-9.1-0.3 0-10.2-4.7-22-10.5-11.8-5.8-21.7-10.5-22-10.5-0.3 0-8.9-4.1-19.3-9.1-10.3-5-21.9-10.6-25.7-12.4-3.9-1.8-19.4-9-34.5-16-15.1-7-30.9-14.2-35-16-4.1-1.8-15.2-6.8-24.5-11-9.4-4.2-21.6-9.7-27.3-12.1-5.6-2.4-12.3-5.3-15-6.3-2.6-1-8.8-3.6-13.7-5.6-5-2-14.6-5.6-21.5-8-6.9-2.4-15.7-4.9-19.5-5.5-3.9-0.7-9.7-1.1-13-0.8-3.4 0.2-7.5 1.3-9.5 2.4-3.4 2-3.5 2.2-3.3 8 0.1 4.9 1 7.6 5.1 15.9 2.8 5.5 9.3 17 14.5 25.5 5.1 8.5 12.9 21.1 17.3 28 4.4 6.9 14.8 22.6 23 35 8.3 12.4 18.5 27.7 22.9 34 4.3 6.3 10.3 15.1 13.3 19.5 3.1 4.4 8.7 12.5 12.5 18 3.9 5.5 13.4 18.8 21.1 29.5 7.7 10.7 23.7 32.3 35.5 48 11.9 15.7 26.9 35.5 33.5 44 6.5 8.5 18.5 23.8 26.5 33.9 8 10.1 19 23.8 24.4 30.5 5.3 6.6 12.8 15.9 16.5 20.5 3.7 4.6 13.9 17 22.6 27.5 8.8 10.5 24.6 28.8 35.1 40.6 10.6 11.8 29.5 32.5 42.1 46 12.5 13.5 45.1 46.8 72.4 74 27.2 27.3 61 60.6 75 74 14 13.4 35.6 33.6 48.1 44.9 12.4 11.3 29.7 26.7 38.5 34.2 8.7 7.4 21.7 18.2 28.8 24 7.1 5.7 15.2 12.2 18.1 14.4 2.8 2.2 10.1 7.9 16.1 12.7 6 4.7 17.6 13.6 25.9 19.7 8.2 6 22.6 16.1 32 22.4 9.3 6.3 22.4 14.7 29 18.7 6.6 3.9 25.5 13.9 42 22 16.5 8.2 33.8 16.4 38.5 18.3 4.7 1.9 13.7 5.6 20 8.2 6.3 2.6 22.7 8.5 36.5 13 13.7 4.6 30.2 9.8 36.5 11.5 6.3 1.7 14.6 4.8 18.4 6.8 3.8 2 7.1 4.4 7.4 5.2 0.2 0.8-2.3 6.9-5.6 13.5-3.4 6.6-10.2 19.2-15.3 28-5 8.8-15.5 27.9-23.2 42.5-7.7 14.6-22.4 43.4-32.6 64-10.3 20.6-23.4 48.3-29.3 61.5-5.8 13.2-14.3 32.8-18.8 43.5-4.6 10.7-10.3 24.2-12.7 30-2.5 5.8-7 16.8-10 24.5-3 7.7-6.5 16.7-7.8 20-1.3 3.3-5.8 15-10 26-4.2 11-8.9 23.6-10.6 28-1.6 4.4-4.5 12-6.4 17-1.9 5-5.5 14.4-8 21-2.5 6.6-5.4 14.2-6.5 17-1 2.7-3.9 10.2-6.3 16.5-2.5 6.3-8.8 22.3-14 35.5-5.2 13.2-14.7 37.3-21.2 53.5-6.4 16.2-14.6 36.9-18.2 46-3.5 9.1-6.9 17.6-7.5 19-0.5 1.4-5.7 14.7-11.5 29.5-5.8 14.8-13.6 36-17.5 47-3.8 11-8.5 26.3-10.5 34-2.4 9.3-3.6 16.4-3.6 21-0.1 5.7 0.4 8.2 2.9 13.4 1.8 3.9 4.2 7.4 6.4 9.1 1.9 1.5 5.1 3.2 7 3.9 1.9 0.6 6.6 1.1 10.5 1.1 3.8 0 9.5-0.4 12.5-1 3-0.6 8.4-2.4 12-4.1 3.6-1.7 9.4-5.6 13-8.7 3.6-3.1 12.7-11.8 20.4-19.2 7.6-7.4 23.1-23.6 34.5-36 11.3-12.4 26-28.6 32.6-36 6.6-7.4 20.8-22.9 31.6-34.5 10.8-11.5 23.7-24.9 28.5-29.6 4.9-4.8 16.1-14.7 25-22 8.9-7.4 23-18.7 31.5-25.3 8.5-6.5 22.1-16.6 30.3-22.5 8.1-5.8 17.1-12.3 20-14.3 2.8-2.1 12.7-8.8 22.1-15.1 9.3-6.2 19.2-12.5 22-14 2.7-1.4 5.3-2.7 5.7-2.7 0.5 0 1.7 3.3 2.9 7.2 1.1 4 3.9 12.9 6.1 19.8 2.3 6.9 6.2 16.6 8.7 21.5 3.2 6.4 6.4 10.9 11.1 15.7 3.6 3.6 8.1 7.3 10 8.1 1.9 0.8 6.4 1.8 10 2.2 4.8 0.5 8 0.3 12.5-1 3.3-0.9 8.4-3.2 11.2-5.1 3.4-2.1 6.6-5.4 8.8-8.9 1.9-3 5.5-9.9 7.9-15.3 2.4-5.3 5.5-13.3 6.9-17.7 1.5-4.4 4.4-15 6.6-23.5 2.2-8.5 5.4-22.3 7.1-30.5 1.7-8.3 4-18.6 5.1-23 1.2-5 3.1-9.7 5.2-12.7 2-2.9 7.2-7.6 13.9-12.5 5.8-4.3 19.4-13.9 30.2-21.3 10.8-7.4 26.5-18.4 34.9-24.3 8.3-5.9 21.3-15.4 28.7-21 7.4-5.6 17.7-13.7 23-18 5.2-4.4 12.6-10.4 16.5-13.5 3.8-3.1 14.2-11.9 23-19.6 8.8-7.6 22.5-19.7 30.4-27 8-7.2 19-17.4 24.5-22.6 5.6-5.2 16.2-15.6 23.6-23.1 7.4-7.5 18.7-19.2 25-26 6.4-6.8 14.9-16.2 19.1-20.9 4.1-4.7 11.7-13.9 17-20.5 5.2-6.6 13.6-17.4 18.5-24 5-6.6 11.9-15.8 15.3-20.5 3.5-4.7 10.6-15 15.9-23 5.2-8 11-16.8 12.7-19.5 1.8-2.8 6.4-10.4 10.2-17 3.9-6.6 9.2-15.8 11.9-20.5 2.6-4.7 7.6-13.9 11.1-20.5 3.6-6.6 9.9-19.2 14.2-28 4.3-8.8 10.7-22.5 14.1-30.5 3.4-8 9.7-23.3 14-34 4.3-10.7 10.3-26.9 13.3-36 3.1-9.1 7.5-23.9 10-33 2.5-9.1 5.8-22.6 7.5-30 1.7-7.4 4.5-21.6 6.2-31.5 1.7-9.9 4.4-27 6-38 1.6-11 4.1-27.2 5.5-36 1.4-8.8 3.9-21.8 5.7-29 1.7-7.2 4.8-18 7-24 2.2-6 5.6-13.9 7.5-17.5 2-3.6 5-8.8 6.6-11.5 1.7-2.8 12.4-19 23.8-36 11.3-17 23.9-35.7 27.8-41.5 4-5.8 15-22.2 24.5-36.5 9.5-14.3 20.9-31.8 25.3-39 4.4-7.2 9.8-16.2 12-20 2.2-3.8 6.9-12.4 10.3-19 3.4-6.6 11.2-21.7 17.2-33.5 6.1-11.8 15.8-30.7 21.6-42 5.8-11.3 12.4-23.9 14.7-28 2.3-4.1 5.9-10.4 8-14 2-3.6 7-11.2 11-17 4-5.8 12.3-16.4 18.5-23.5 6.2-7.1 15.1-17 19.8-21.8 4.8-4.9 14.3-13.7 21.2-19.7 6.9-5.9 15.2-12.8 18.5-15.4 3.3-2.5 11.8-9 19-14.4 7.1-5.4 17.7-13 23.5-16.8 5.8-3.9 14.1-9.3 18.5-11.9 4.4-2.7 10.9-6.5 14.5-8.5 3.6-2.1 9.4-5.4 13-7.5 3.6-2.1 8.3-4.8 10.5-6 2.2-1.2 8.3-4.6 13.5-7.5 5.2-2.9 32.9-17.1 61.5-31.5 28.6-14.5 68-33.7 87.5-42.8 19.5-9 40-18.4 45.5-20.7 5.5-2.3 17.2-7.1 26-10.7 8.8-3.6 19.4-7.9 23.5-9.5 4.1-1.6 12.2-4.7 18-6.9 5.8-2.2 18.4-6.9 28-10.4 9.6-3.6 22.4-8.3 28.5-10.5 6.1-2.2 15.1-6 20-8.4 7.5-3.6 9.3-4.9 10.7-8 1-2 1.8-4.5 1.8-5.6 0-1.1-1.2-3.3-2.8-4.9-1.5-1.5-4.5-3.3-6.7-4-2.2-0.6-6.7-1-10-1-3.3 0.1-8 0.5-10.5 0.9z"/>
	</g>
</svg>