<svg version="1.2" xmlns="http://www.w3.org/2000/svg" viewBox="0 0 2931 2931" width="2931" height="2931">
	<title>harmony-app-icon-3d</title>
	<style>
		.s0 { fill: #800080 } 
		.s1 { fill: #ffffff } 
	</style>
	<path id="Path 0" class="s0" d="m1404.5 6.7c-3.3 0.2-20.2 1.2-37.5 2.3-17.3 1.1-38 2.7-46 3.6-8 0.8-23.7 2.6-35 4-11.3 1.4-29.7 3.9-41 5.5-11.3 1.7-28.8 4.6-39 6.5-10.2 1.9-31.3 6.2-47 9.5-15.7 3.3-38.8 8.7-51.5 11.9-12.7 3.2-31.8 8.3-42.5 11.4-10.7 3-31.4 9.3-46 14-14.6 4.7-35.7 11.8-47 15.9-11.3 4.1-29.7 11.1-41 15.5-11.3 4.4-27 10.8-35 14.2-8 3.4-19.7 8.4-26 11.2-6.3 2.8-25.5 11.9-42.5 20.2-17 8.4-38.4 19.2-47.5 24-9.1 4.9-24.4 13.4-34 18.9-9.6 5.5-25.4 14.7-35 20.5-9.6 5.8-24.5 15.1-33 20.5-8.5 5.5-21.6 14.1-29 19-7.4 5-19.8 13.6-27.5 19.1-7.7 5.5-21.4 15.6-30.5 22.5-9.1 6.8-21.5 16.3-27.5 21-6 4.7-17.8 14.1-26 21-8.3 6.9-22.4 19-31.5 27-9.1 8-21.7 19.2-28 25-6.3 5.8-20.2 19.1-30.8 29.6-10.7 10.4-28.5 28.4-39.6 40-11 11.6-26.1 27.8-33.5 36-7.3 8.3-19.7 22.6-27.5 32-7.8 9.4-19.4 23.5-25.7 31.5-6.3 8-16.2 20.8-22 28.5-5.8 7.7-15.6 21.1-21.7 29.8-6.2 8.6-15.8 22.6-21.5 30.9-5.6 8.4-15 22.7-20.8 31.8-5.8 9.1-16 25.5-22.6 36.5-6.6 11-17.3 29.5-23.7 41-6.4 11.5-19.4 36.5-28.9 55.5-9.5 19-21.9 45.1-27.7 58-5.7 12.9-13.6 31.4-17.5 41-4 9.6-10.2 25.6-14 35.5-3.7 9.9-9.6 26.3-13.2 36.5-3.5 10.2-9.3 27.5-12.8 38.5-3.5 11-8.9 28.8-11.9 39.5-3.1 10.7-8.3 30.1-11.6 43-3.2 12.9-7.9 32.7-10.4 44-2.4 11.3-5.8 27.5-7.5 36-1.7 8.5-4.6 25.2-6.6 37-1.9 11.8-4.9 31.2-6.5 43-1.6 11.8-3.8 30-4.9 40.5-1.2 10.5-3 30.3-4.1 44-1.1 13.8-2.5 37.2-3.1 52-0.7 16.5-0.9 48-0.6 81 0.4 34.6 1.1 61.5 2.1 75 0.9 11.5 2.5 30.9 3.7 43 1.1 12.1 3.1 31.2 4.5 42.5 1.3 11.3 4.1 30.8 6 43.5 1.9 12.7 5.3 32.7 7.5 44.5 2.2 11.8 5.6 28.9 7.5 38 1.9 9.1 6.2 27.5 9.5 41 3.3 13.5 8 31.9 10.5 41 2.5 9.1 7.4 26 10.9 37.5 3.5 11.5 9.8 31.1 14.1 43.5 4.2 12.4 10.5 30.4 14.1 40 3.6 9.6 10.4 27 15 38.5 4.7 11.5 13.3 31.8 19.1 45 5.8 13.2 18.4 39.5 27.9 58.5 9.5 19 22.5 43.9 28.9 55.5 6.4 11.6 16 28.2 21.2 37 5.2 8.8 12.2 20.3 15.5 25.5 3.3 5.2 9.6 15.1 14 22 4.5 6.9 14.4 21.7 22.1 33 7.7 11.3 20.7 29.7 29 41 8.2 11.3 22.7 30.2 32.1 42 9.5 11.8 23 28.3 30 36.5 7 8.3 19.7 22.9 28.3 32.5 8.6 9.6 32.1 34 52.2 54.1 20.1 20.2 43.2 42.7 51.5 50.1 8.2 7.4 23.6 20.8 34 29.8 10.5 8.9 26.4 22.2 35.5 29.5 9.1 7.3 25.5 20 36.5 28.2 11 8.2 28.1 20.7 38 27.8 9.9 7.1 26.3 18.3 36.5 24.9 10.2 6.5 23.2 14.8 29 18.4 5.8 3.6 16.6 10.2 24 14.7 7.4 4.5 18.7 11.1 25 14.7 6.3 3.6 19.4 10.8 29 16.1 9.6 5.2 28.7 15.1 42.5 21.9 13.7 6.9 36.9 18 51.5 24.6 14.6 6.6 37.3 16.4 50.5 21.7 13.2 5.4 31.6 12.6 41 16 9.4 3.5 26.7 9.5 38.5 13.4 11.8 4 30 9.9 40.5 13.2 10.5 3.3 31.4 9.3 46.5 13.4 15.1 4 35.2 9.1 44.5 11.4 9.3 2.2 22.4 5.2 29 6.6 6.6 1.4 19.7 4.1 29 6 9.3 1.9 23.5 4.5 31.5 5.9 8 1.4 20.6 3.5 28 4.5 7.4 1.1 24.1 3.4 37 5 12.9 1.7 28.5 3.5 34.5 4.1 6 0.6 18.9 1.7 28.5 2.4 9.6 0.8 26.7 2.1 38 2.8 13.3 0.8 42.2 1.3 82.5 1.3 40.3 0 69.2-0.5 82.5-1.3 11.3-0.7 28.4-2 38-2.8 9.6-0.7 22.5-1.8 28.5-2.4 6-0.6 21.6-2.4 34.5-4.1 12.9-1.6 29.6-3.9 37-5 7.4-1 20-3.1 28-4.5 8-1.4 22.2-4 31.5-5.9 9.3-1.9 22.4-4.6 29-6 6.6-1.4 19.7-4.4 29-6.6 9.3-2.3 29.6-7.4 45-11.5 15.4-4.2 36.8-10.2 47.5-13.5 10.7-3.4 27.8-9 38-12.5 10.2-3.6 24.8-8.8 32.5-11.6 7.7-2.8 23-8.6 34-12.8 11-4.3 27.9-11.1 37.5-15.3 9.6-4.1 24.7-10.8 33.5-14.8 8.8-4 27.5-13 41.5-20 14-6.9 34.1-17.2 44.5-22.9 10.4-5.6 23.3-12.7 28.5-15.8 5.2-3 20.7-12.3 34.5-20.5 13.7-8.3 34.7-21.4 46.5-29.1 11.8-7.8 29.6-20 39.5-27.1 9.9-7.1 27-19.6 38-27.8 11-8.3 25.8-19.8 33-25.6 7.2-5.8 18.6-15.2 25.5-21 6.9-5.8 20.4-17.5 30-26.1 9.6-8.5 27.4-24.9 39.4-36.5 12.1-11.5 33.4-32.9 47.5-47.5 14.1-14.6 31.7-33.5 39.2-42 7.4-8.5 19.4-22.5 26.5-31 7.1-8.5 17.2-20.9 22.5-27.5 5.2-6.6 13.8-17.6 19-24.5 5.3-6.9 14.3-19 20.1-27 5.7-8 17.5-24.8 26-37.5 8.6-12.7 19.3-28.8 23.8-36 4.6-7.2 12.6-20 17.8-28.5 5.2-8.5 14.1-23.6 19.7-33.5 5.6-9.9 14-25.2 18.7-34 4.7-8.8 13.3-25.4 19.1-37 5.7-11.6 15-30.9 20.5-43 5.5-12.1 13.2-29.7 17.2-39 4-9.3 10.1-24.4 13.7-33.5 3.6-9.1 10.5-27.5 15.3-41 4.8-13.5 11.7-33.7 15.3-45 3.6-11.3 9.1-29 12.2-39.5 3.1-10.5 8.9-32 13-48 4-16 9.4-38.5 11.9-50 2.4-11.5 6-29.5 8-40 1.9-10.5 5.1-28.9 7-41 1.9-12.1 4.4-29 5.5-37.5 1.1-8.5 2.9-24 4-34.5 1.1-10.5 2.9-30.2 4-44 1.1-13.7 2.5-37.2 3.2-52 0.7-17.1 1-46.6 0.6-80.5-0.4-40.8-1-59.8-2.6-80-1.2-14.6-3-35.7-4.1-47-1.1-11.3-2.9-27.7-4-36.5-1.1-8.8-3.2-23.7-4.6-33-1.4-9.3-3.6-23.5-5-31.5-1.3-8-4.5-24.8-7-37.5-2.5-12.7-6.8-32.7-9.5-44.5-2.7-11.8-7-29.4-9.5-39-2.5-9.6-6.7-25.2-9.4-34.5-2.7-9.3-8.5-28.2-12.9-42-4.4-13.7-11.8-35.6-16.4-48.5-4.7-12.9-11.4-30.9-15-40-3.6-9.1-9.6-23.9-13.5-33-3.9-9.1-11.3-26.1-16.6-37.7-5.3-11.7-14.1-30.4-19.7-41.5-5.6-11.2-14.4-28.4-19.7-38.3-5.2-9.9-14.8-27.2-21.3-38.5-6.4-11.3-15.9-27.5-21.1-36-5.2-8.5-12.1-19.5-15.3-24.5-3.2-5-11.2-17.1-17.8-27-6.6-9.9-16.3-24.1-21.6-31.5-5.2-7.4-14.7-20.5-21-29-6.3-8.5-16.4-21.8-22.4-29.5-6.1-7.7-17.8-22.1-26.1-32-8.2-9.9-20.9-24.7-28.2-33-7.2-8.2-24.6-26.9-38.6-41.5-14-14.6-35.1-35.8-46.9-47.1-11.8-11.3-30.2-28.4-40.9-37.9-10.7-9.5-28.5-24.8-39.5-34-11-9.1-27.9-22.6-37.5-30-9.6-7.4-26.7-20.1-38-28.3-11.3-8.2-28.4-20.2-38-26.7-9.6-6.4-24.9-16.4-34-22.2-9.1-5.7-23.9-14.9-33-20.3-9.1-5.4-27.3-15.9-40.5-23.2-13.2-7.4-38.6-20.7-56.5-29.7-17.9-8.9-38.6-19-46-22.3-7.4-3.4-18.4-8.2-24.5-10.8-6-2.6-21.6-9-34.5-14.2-12.9-5.2-27.1-10.8-31.5-12.5-4.4-1.6-17.9-6.4-30-10.7-12.1-4.3-31.2-10.8-42.5-14.4-11.3-3.7-32-9.8-46-13.7-14-3.9-34.5-9.3-45.5-12-11-2.7-30.8-7.2-44-10-13.2-2.8-33.2-6.8-44.5-9-11.3-2.1-28.2-5-37.5-6.4-9.3-1.4-25.8-3.6-36.5-5-10.7-1.4-26.3-3.3-34.5-4.1-8.3-0.9-20-2-26-2.5-6-0.6-26.3-1.9-45-3-27.3-1.6-44.2-2-85.5-1.8-28.3 0.1-54.2 0.3-57.5 0.5z"/>
	<g id="Background">
		<path id="Path 1" class="s1" d="m1095.7 362.2c-2.1 2.1-5.3 6.7-7.2 10.1-1.9 3.4-5.2 10.7-7.5 16.3-2.2 5.5-5.7 16.6-7.6 24.6-2.3 8.8-4.7 22.8-6.3 35.9-1.4 11.8-3.2 30.1-4.1 40.7-0.8 10.5-2.2 30.7-3.1 45-0.8 14.2-2 38.4-2.7 53.8-0.7 18.5-1 66-0.6 140.8 0.3 62 1 125.3 1.6 140.7 0.6 15.4 1.9 48.2 2.7 73 0.9 24.7 1.8 48.3 2.1 52.2 0.3 4 1.5 20.6 2.7 36.8 1.2 16.2 2.7 30.6 3.4 32.1 0.8 1.9 5.6 4.8 18.2 11.1 9.4 4.7 21.3 10.2 26.4 12.3 5.1 2 13.3 5.2 18.1 7.1 4.9 1.8 18.8 7.1 31.1 11.6 12.2 4.6 34.8 12.5 50.2 17.7 15.3 5.2 35.1 11.3 44 13.7 8.8 2.4 23.2 5.9 32 7.9 8.9 2 23.8 5 33.2 6.7 9.4 1.7 21.9 3.7 27.9 4.5 6 0.8 18.3 2 27.4 2.7 9.1 0.7 25.5 1.3 36.4 1.3 10.9 0.1 20.2-0.2 20.7-0.6 0.5-0.5-0.6-4-2.4-7.8-1.8-3.9-6.8-15.6-11-26.1-4.3-10.6-11.6-28.3-16.3-39.4-4.6-11.1-10.3-24.6-12.6-30-2.3-5.4-5.1-12.1-6.2-15-1.1-2.8-4.7-11.5-8-19.1-3.3-7.7-8.7-20.5-12-28.5-3.3-8-7.6-18.2-9.5-22.8-1.9-4.5-7.7-18.5-12.8-31-5.1-12.5-10.2-24.9-11.3-27.4-1-2.6-3.8-9.1-6-14.5-2.2-5.4-7.1-17.5-10.8-26.9-3.8-9.4-10.3-26-14.6-36.8-4.2-10.8-9.4-24-11.4-29.2-2.1-5.3-5.4-13.9-7.5-19.2-2-5.2-6.4-16.5-9.7-25.1-3.4-8.5-8.7-22.2-12-30.5-3.2-8.3-10.6-27.1-16.5-41.9-5.9-14.8-13.9-35.5-17.9-46.1-4-10.5-9.4-24.7-12-31.5-2.7-6.9-6.5-16.9-8.6-22.3-2-5.4-4.8-12.6-6.1-16-1.3-3.4-4.2-11.4-6.6-17.6-2.3-6.3-8.2-22.1-13.1-35.2-4.8-13.1-9.9-26.8-11.3-30.5-1.4-3.7-3.7-9.8-5.1-13.5-1.4-3.7-5.4-14.2-8.9-23.3-3.4-9.1-9.3-24-13-33.1-3.8-9.1-9.1-21.2-12-26.9-2.8-5.7-7.6-13.9-10.6-18.1-3-4.3-7.5-9.8-10-12.2-2.8-2.8-5.4-4.5-7-4.4-1.5 0-4 1.6-6.2 3.9zm1549.3 283.9c-2.6 0.4-11.2 2-19.2 3.5-8 1.5-19.6 3.9-25.9 5.3-6.2 1.5-18.6 4.5-27.4 6.8-8.8 2.3-21.4 5.8-27.9 7.7-6.6 1.9-22.7 7.2-35.7 11.7-13.1 4.5-31.1 10.8-39.9 14.1-8.8 3.3-28.1 10.7-42.9 16.6-14.8 5.8-31.6 12.7-37.3 15.3-5.7 2.5-23.6 10.6-39.8 18.1-16.3 7.4-33.5 15.3-38.3 17.5-4.9 2.3-13.7 6.5-19.7 9.4-6 2.8-14.6 6.9-19.2 9-4.5 2.1-10.8 5-13.9 6.4-3.2 1.5-11.8 5.4-19.2 8.8-7.4 3.4-23.7 10.5-36.2 15.8-12.5 5.3-29.1 12-36.7 14.9-7.7 2.9-19.8 6.9-26.9 8.9-7.2 2-21.1 5-31.1 6.7-10 1.7-22.5 3.3-27.9 3.6-5.4 0.4-13.8 0.2-18.7-0.3-4.8-0.5-23.4-3.1-41.4-5.7-17.9-2.5-38.9-5.4-46.5-6.3-7.7-0.9-25-1.9-38.3-2.3-18.6-0.4-29-0.1-44 1.2-10.8 1-25.3 2.9-32.1 4.3-6.8 1.4-18.2 4.6-25.4 7.1-7.1 2.5-17.8 6.6-23.8 9.1-5.9 2.5-13.4 5.9-16.5 7.5-3.2 1.6-9.9 5.5-15 8.6-5.2 3.2-12.6 8.1-16.6 10.9-4 2.9-9.8 7.3-12.9 9.9-3.2 2.5-10.8 9.6-16.9 15.6-6.2 6-15.1 15.3-19.8 20.7-4.7 5.4-10.6 12.6-13.2 16.1-2.5 3.4-7.2 9.9-10.3 14.4-3 4.6-7.5 11.6-9.8 15.6-2.4 4-8.3 15.1-13.1 24.8-4.9 9.7-11.9 24.1-15.6 32.1-3.6 8-10.9 24.7-16.1 37.2-5.3 12.6-11.1 26.5-13 31.1-1.9 4.6-5.6 13.2-8.2 19.1-2.5 6-6.8 15.8-9.4 21.8-2.7 6-7.4 15-10.4 20.2-3 5.1-7.7 12.3-10.4 16-2.7 3.7-11 13-18.5 20.6-7.4 7.6-16.8 16.4-20.8 19.6-4 3.2-10.5 7.8-14.5 10.2-3.9 2.5-10.7 5.6-15 7-4.2 1.3-9.1 2.7-10.8 3.1-1.7 0.3-12 1-22.8 1.5-12.1 0.6-31.9 0.6-51.8 0-17.6-0.5-40.9-1.8-51.7-2.9-10.8-1.2-28.5-3.5-39.3-5.2-10.8-1.7-27.8-4.7-37.8-6.7-10-2-26.3-5.5-36.2-7.7-10-2.3-23.3-5.4-29.5-6.9-6.3-1.5-18.4-4.7-26.9-7.3-8.6-2.5-19.1-5.7-23.3-7.1-4.3-1.4-11.3-3.8-15.5-5.3-4.3-1.5-15.3-5.5-24.4-9-9.1-3.4-22.1-8.7-28.9-11.7-6.9-3-22.5-10.3-34.7-16.3-12.3-5.9-51.1-25.1-86.4-42.6-35.3-17.5-78.2-38.7-95.3-47.1-17-8.4-57.5-28.2-90-44-32.4-15.7-64.1-31.1-70.4-34.2-6.2-3-17.2-8.3-24.3-11.7-7.1-3.4-27.8-13.5-46.1-22.4-18.2-8.9-33.2-16.1-33.3-16.1-0.2 0-11.3-5.4-24.9-12-13.5-6.6-30.8-14.9-38.5-18.5-7.7-3.6-22.7-10.7-33.4-15.9-10.7-5.2-19.6-9.5-19.9-9.5-0.3 0-10.6-4.9-22.8-10.8-12.2-6-22.5-10.9-22.8-10.9-0.2 0-9.2-4.3-19.9-9.4-10.7-5.2-22.6-11-26.6-12.8-4-1.9-20.1-9.3-35.7-16.6-15.7-7.3-32-14.7-36.3-16.6-4.2-1.9-15.6-7-25.3-11.4-9.7-4.3-22.4-10-28.2-12.5-5.9-2.5-12.8-5.4-15.5-6.5-2.8-1.1-9.2-3.7-14.3-5.8-5.1-2.1-15.1-5.8-22.2-8.3-7.1-2.4-16.2-5-20.2-5.7-4-0.7-10.1-1.1-13.5-0.8-3.5 0.3-7.7 1.4-9.8 2.5-3.5 2.1-3.6 2.3-3.5 8.2 0.2 5.2 1.1 7.9 5.4 16.5 2.9 5.7 9.6 17.6 14.9 26.4 5.4 8.8 13.5 21.9 18 29 4.6 7.1 15.3 23.4 23.8 36.2 8.5 12.8 19.2 28.7 23.6 35.2 4.5 6.6 10.8 15.6 13.9 20.2 3.1 4.5 8.9 12.9 12.9 18.6 4 5.7 13.8 19.4 21.8 30.5 8 11.1 24.6 33.5 36.8 49.7 12.2 16.3 27.8 36.7 34.6 45.6 6.8 8.8 19.2 24.6 27.5 35 8.3 10.5 19.6 24.7 25.2 31.6 5.5 6.9 13.2 16.4 17.1 21.2 3.8 4.8 14.4 17.6 23.4 28.5 9.1 10.9 25.4 29.8 36.3 42 10.9 12.3 30.5 33.7 43.5 47.6 13.1 14 46.8 48.5 75 76.7 28.2 28.2 63.1 62.6 77.6 76.5 14.6 13.9 36.9 34.8 49.8 46.5 12.8 11.7 30.7 27.6 39.8 35.3 9.1 7.8 22.5 18.9 29.8 24.9 7.4 5.9 15.8 12.6 18.8 14.9 2.9 2.3 10.4 8.2 16.6 13.1 6.3 4.9 18.3 14.1 26.9 20.4 8.5 6.3 23.4 16.7 33.1 23.2 9.7 6.5 23.2 15.2 30 19.3 6.8 4.2 26.4 14.4 43.5 22.9 17 8.4 35 17 39.8 18.9 4.9 2 14.2 5.8 20.7 8.5 6.6 2.7 23.6 8.7 37.8 13.5 14.2 4.7 31.2 10.1 37.8 11.8 6.5 1.8 15.1 5 19 7.1 3.9 2.1 7.4 4.5 7.6 5.4 0.3 0.8-2.3 7.1-5.8 13.9-3.4 6.9-10.5 19.9-15.7 29-5.3 9.1-16.1 28.9-24 44-8 15.1-23.2 44.9-33.8 66.2-10.6 21.4-24.3 50-30.3 63.7-6.1 13.6-14.8 33.9-19.5 45-4.7 11.1-10.6 25.1-13.2 31-2.5 6-7.1 17.4-10.3 25.4-3.1 8-6.7 17.3-8.1 20.7-1.3 3.4-5.9 15.5-10.3 26.9-4.3 11.4-9.3 24.4-11 29-1.7 4.5-4.7 12.5-6.6 17.6-2 5.1-5.7 14.9-8.3 21.7-2.6 6.8-5.6 14.8-6.7 17.6-1 2.9-4 10.5-6.6 17.1-2.5 6.5-9 23.1-14.4 36.7-5.4 13.7-15.3 38.6-22 55.4-6.6 16.8-15.1 38.2-18.8 47.6-3.6 9.4-7.1 18.3-7.7 19.7-0.6 1.4-6 15.1-12 30.5-6 15.4-14.1 37.3-18 48.6-4 11.4-8.9 27.3-10.9 35.2-2.5 9.6-3.8 17-3.8 21.8-0.1 5.9 0.5 8.4 3 13.8 1.9 4.1 4.4 7.7 6.7 9.4 2 1.6 5.2 3.4 7.2 4.1 2 0.6 6.9 1.2 10.9 1.2 4 0 9.8-0.5 12.9-1.1 3.1-0.6 8.7-2.5 12.4-4.2 3.7-1.8 9.8-5.8 13.5-9.1 3.7-3.2 13.2-12.1 21.1-19.8 7.9-7.7 23.9-24.5 35.7-37.3 11.7-12.8 26.9-29.5 33.7-37.2 6.9-7.7 21.6-23.7 32.8-35.7 11.2-12 24.4-25.8 29.5-30.7 5-4.9 16.7-15.2 25.8-22.8 9.2-7.6 23.9-19.3 32.6-26.1 8.8-6.8 22.9-17.3 31.3-23.3 8.5-6 17.8-12.7 20.7-14.8 3-2.2 13.3-9.2 23-15.6 9.6-6.5 19.9-13 22.7-14.5 2.9-1.5 5.5-2.8 6-2.8 0.4 0 1.7 3.3 2.9 7.5 1.2 4.1 4 13.3 6.4 20.4 2.3 7.1 6.3 17.1 8.9 22.3 3.3 6.6 6.7 11.3 11.5 16.2 3.7 3.8 8.4 7.6 10.4 8.4 2 0.9 6.6 1.9 10.3 2.3 5 0.5 8.3 0.3 13-1 3.4-1 8.6-3.4 11.6-5.3 3.5-2.3 6.8-5.6 9.1-9.3 2-3.1 5.6-10.2 8.1-15.7 2.5-5.6 5.7-13.9 7.2-18.4 1.5-4.6 4.6-15.5 6.8-24.3 2.3-8.8 5.6-23.1 7.4-31.6 1.8-8.5 4.1-19.2 5.2-23.8 1.3-5.2 3.3-10.1 5.4-13.1 2.1-3.1 7.5-7.9 14.4-13 6-4.4 20.1-14.3 31.3-22 11.2-7.7 27.4-19 36.1-25.2 8.6-6.1 22-15.9 29.6-21.7 7.7-5.8 18.4-14.2 23.8-18.7 5.5-4.4 13.2-10.7 17.2-13.9 4-3.3 14.7-12.4 23.8-20.3 9.1-7.9 23.3-20.4 31.5-27.9 8.2-7.5 19.6-18 25.3-23.4 5.7-5.4 16.7-16.2 24.4-23.9 7.7-7.8 19.4-19.9 25.9-26.9 6.6-7.1 15.5-16.8 19.7-21.7 4.3-4.8 12.2-14.4 17.6-21.2 5.5-6.8 14.1-18 19.2-24.8 5.1-6.9 12.3-16.4 15.9-21.2 3.6-4.9 10.9-15.6 16.4-23.9 5.4-8.2 11.3-17.3 13.1-20.1 1.9-2.9 6.6-10.8 10.6-17.6 4-6.9 9.5-16.4 12.3-21.2 2.7-4.9 7.9-14.4 11.5-21.3 3.7-6.8 10.3-19.8 14.7-28.9 4.5-9.1 11-23.4 14.6-31.6 3.5-8.3 10.1-24.1 14.5-35.2 4.4-11.1 10.6-27.9 13.8-37.3 3.1-9.3 7.7-24.7 10.3-34.1 2.5-9.4 6-23.4 7.8-31.1 1.7-7.6 4.6-22.3 6.3-32.6 1.8-10.2 4.6-27.9 6.3-39.3 1.6-11.4 4.2-28.1 5.6-37.2 1.5-9.2 4.1-22.7 5.9-30.1 1.8-7.4 5.1-18.5 7.3-24.8 2.3-6.3 5.8-14.4 7.8-18.1 2-3.7 5.1-9.1 6.8-11.9 1.8-2.9 12.8-19.6 24.6-37.3 11.8-17.6 24.7-36.9 28.9-42.9 4.1-6 15.5-23 25.3-37.8 9.8-14.8 21.6-33 26.2-40.4 4.5-7.4 10.1-16.7 12.4-20.7 2.3-3.9 7.1-12.8 10.6-19.6 3.6-6.9 11.6-22.5 17.9-34.7 6.2-12.2 16.3-31.8 22.3-43.5 6-11.6 12.8-24.7 15.2-28.9 2.4-4.3 6.1-10.8 8.2-14.5 2.2-3.7 7.3-11.7 11.5-17.6 4.1-6 12.7-17 19.1-24.4 6.4-7.4 15.6-17.5 20.6-22.5 4.9-5.1 14.7-14.2 21.8-20.4 7.2-6.1 15.8-13.3 19.2-15.9 3.4-2.7 12.3-9.4 19.7-14.9 7.4-5.6 18.3-13.4 24.3-17.5 6-4 14.6-9.5 19.1-12.3 4.6-2.7 11.3-6.7 15-8.8 3.7-2.1 9.8-5.5 13.5-7.7 3.7-2.2 8.6-5 10.9-6.2 2.2-1.3 8.5-4.8 13.9-7.8 5.4-3 34.1-17.7 63.7-32.6 29.6-15 70.3-34.8 90.5-44.2 20.2-9.4 41.4-19.1 47.1-21.5 5.7-2.3 17.8-7.4 26.9-11.1 9.1-3.7 20.1-8.2 24.4-9.8 4.2-1.7 12.6-4.9 18.6-7.2 6-2.3 19-7.1 29-10.7 9.9-3.7 23.2-8.6 29.5-10.9 6.2-2.3 15.5-6.2 20.7-8.7 7.7-3.7 9.6-5.1 11.1-8.2 1-2.1 1.8-4.7 1.8-5.8 0-1.2-1.3-3.5-2.8-5.1-1.6-1.6-4.8-3.5-7-4.1-2.3-0.7-7-1.1-10.4-1.1-3.4 0.1-8.3 0.5-10.8 1z"/>
	</g>
</svg>