<svg version="1.2" xmlns="http://www.w3.org/2000/svg" viewBox="0 0 512 512" width="512" height="512">
	<title>Google_Chrome_icon_(February_2022)-svg</title>
	<defs>
		<linearGradient id="g1" x1="34.3" y1="160" x2="477.7" y2="160" gradientUnits="userSpaceOnUse">
			<stop offset="0" stop-color="#bf75bf"/>
			<stop offset="1" stop-color="#bf75bf"/>
		</linearGradient>
		<linearGradient id="g2" x1="221" y1="508.6" x2="442.7" y2="124.6" gradientUnits="userSpaceOnUse">
			<stop offset="0" stop-color="#a142a1"/>
			<stop offset="1" stop-color="#a142a1"/>
		</linearGradient>
		<linearGradient id="g3" x1="283.7" y1="496" x2="62" y2="112.1" gradientUnits="userSpaceOnUse">
			<stop offset="0" stop-color="#800080"/>
			<stop offset="1" stop-color="#800080"/>
		</linearGradient>
	</defs>
	<style>
		.s0 { fill: #ffffff } 
		.s1 { fill: none } 
		.s2 { fill: url(#g1) } 
		.s3 { fill: #800080 } 
		.s4 { fill: url(#g2) } 
		.s5 { fill: url(#g3) } 
	</style>
	<path id="Layer" class="s0" d="m256 384c-70.8 0-128-57.3-128-128.1 0-70.7 57.2-128 128-128 70.8 0 128 57.3 128 128 0 70.8-57.2 128.1-128 128.1z"/>
	<path id="Layer" class="s1" d="m2.2 289.4c-4.4-33.3-2.2-67.2 6.5-99.7 8.7-32.4 23.7-62.9 44.2-89.5 20.5-26.7 46-49.1 75.1-65.9 89.7-51.8 201.7-44.4 283.9 18.6 82.1 63 118.2 169.3 91.4 269.4-26.8 100-111.2 174-213.9 187.5-102.6 13.5-203.3-36.1-255.1-125.8-16.8-29.1-27.7-61.2-32.1-94.6zm364.7-97.4c25.8 44.8 22.2 100.9-9.3 141.9-31.6 41.1-84.7 59.1-134.7 45.7-50-13.4-87-55.6-93.8-106.9-6.8-51.3 18.1-101.7 62.9-127.5 14.6-8.5 30.6-13.9 47.3-16.1 16.7-2.2 33.6-1.1 49.8 3.3 16.3 4.3 31.5 11.8 44.8 22.1 13.4 10.2 24.6 22.9 33 37.5z"/>
	<path id="Layer" class="s2" d="m192 145.1c-19.5 11.2-35.7 27.4-46.9 46.9-11.2 19.4-17.1 41.5-17.1 64 0 22.5 6 44.5 17.3 64h-0.1l-110.9-192c22.5-38.9 54.8-71.2 93.7-93.7 38.9-22.5 83.1-34.3 128-34.3 44.9 0 89.1 11.8 128 34.3 38.9 22.5 71.2 54.8 93.7 93.7h-221.7c-22.5 0-44.6 5.9-64 17.1z"/>
	<path id="Layer" class="s3" d="m256 357.3c-56 0-101.3-45.3-101.3-101.3 0-56 45.3-101.3 101.3-101.3 56 0 101.3 45.3 101.3 101.3 0 56-45.3 101.3-101.3 101.3z"/>
	<path id="Layer" class="s4" d="m384.1 256c0-22.4-5.9-44.5-17.2-64-11.2-19.4-27.4-35.6-46.9-46.8-19.5-11.2-41.6-17.1-64-17.1v-0.1h221.7c22.4 38.9 34.3 83.1 34.3 128 0 45-11.8 89.1-34.3 128-22.5 38.9-54.8 71.3-93.7 93.7-38.9 22.5-83.1 34.3-128 34.3l110.8-192c11.3-19.4 17.2-41.5 17.3-64z"/>
	<path id="Layer" class="s5" d="m192 366.9c19.4 11.3 41.5 17.2 64 17.2 22.5 0 44.6-5.9 64-17.2 19.5-11.3 35.6-27.4 46.8-46.9h0.1l-110.9 192c-44.9 0-89.1-11.8-128-34.3-38.9-22.4-71.2-54.7-93.7-93.6-22.5-39-34.3-83.1-34.3-128 0-45 11.9-89.1 34.3-128l110.9 191.9c11.2 19.5 27.3 35.7 46.8 46.9z"/>
</svg>