<svg version="1.2" xmlns="http://www.w3.org/2000/svg" viewBox="0 0 1024 1024" width="1024" height="1024">
	<title>lexi-hd</title>
	<style>
		.s0 { fill: #800080 } 
	</style>
	<g id="Background">
		<path id="Path 0" class="s0" d="m848.5 0.7l13.5 3.7c7.4 2.1 17.8 5.5 23 7.7 5.2 2.2 14.2 6.8 19.9 10.2 5.7 3.4 13.3 8.6 17 11.5 3.6 2.9 11.3 9.8 17 15.5 5.8 5.6 13.1 13.6 16.4 17.7 3.3 4.1 7.5 9.8 9.2 12.5 1.8 2.8 5.7 9.5 8.7 15 3.1 5.5 7.7 15.4 10.3 22 2.7 6.6 6.1 16.5 7.7 22 1.6 5.5 4.1 16.5 5.6 24.5 2.4 13.5 2.6 16.5 2.7 42.5 0 22.4-0.4 30.4-1.9 40-1 6.6-3.1 17.2-4.8 23.5-1.6 6.3-4.1 14.9-5.5 19-1.4 4.1-4.6 12.2-7.2 18-2.5 5.8-7.7 15.6-11.4 21.8-3.7 6.1-9.8 15.6-13.7 20.9-3.8 5.4-9.7 12.9-13.2 16.8-3.5 3.9-11.9 12.3-18.8 18.8-6.9 6.6-15.6 14.3-19.5 17.2-3.9 2.9-10.8 7.8-15.5 11-4.7 3.1-13.9 8.6-20.5 12-6.6 3.5-15.6 7.8-20 9.5-4.4 1.8-13.2 4.7-19.5 6.5-6.3 1.8-15.5 4-20.5 4.9-5 0.8-15.7 2.3-24 3.2-11.9 1.3-20 1.5-39 1.1-13.2-0.4-30.5-1.3-38.5-2.1-8-0.9-22.6-2.9-32.5-4.6-9.9-1.6-23.1-3.9-29.2-5-7.8-1.4-11.5-2.5-11.8-3.5-0.3-0.8 3.7-9.7 8.9-19.8 5.1-10 13.1-24.9 17.6-33.2 4.6-8.2 10.1-18.4 12.3-22.5 2.2-4.1 6-10.5 8.4-14.2 2.3-3.8 4.9-6.6 5.6-6.4 0.6 0.2 7.5 2.4 15.2 4.9 7.7 2.5 19.4 5.7 26 7.3 11.5 2.7 13.1 2.8 38.5 2.8 26.2 0.1 26.6 0.1 36-2.7 5.2-1.5 14.2-5.1 20-8 8.1-4 12.2-6.9 18.4-12.7 4.4-4.1 10.6-11.1 13.9-15.5 3.3-4.4 8.5-13.4 11.7-20 3.1-6.6 6.4-14 7.3-16.5 0.9-2.5 2.8-9 4.2-14.5 1.4-5.5 3.2-15.6 4-22.5 0.8-6.9 1.5-19.4 1.5-27.7 0-10.6-0.6-18.8-1.9-26.5-1.1-6.2-3.2-14.9-4.6-19.3-1.5-4.4-4.4-11.6-6.5-16-2-4.4-6.6-11.5-10.1-15.9-4.1-5-8.7-9.4-12.9-12.1-3.6-2.4-9-5.1-12-6.1-4.2-1.3-7.7-1.6-14.5-1.2-7.3 0.3-10 1-14.5 3.3-3 1.5-8.6 4.9-12.5 7.4-3.9 2.5-10.8 8.2-15.4 12.6-4.6 4.4-13.8 14.1-20.4 21.5-6.5 7.4-19 22.9-27.7 34.5-8.6 11.6-19.9 27.1-25 34.5-5.2 7.4-15.7 22.9-23.4 34.5-7.7 11.6-18.4 28-23.9 36.5-5.5 8.5-15 23.6-21.1 33.5-6.2 9.9-17.3 28.1-24.8 40.5-7.4 12.4-18.2 30.6-24 40.5-5.8 9.9-12.8 22.1-15.5 27-2.8 4.9-10.6 19.6-17.5 32.5-6.9 12.9-17.4 32.9-23.3 44.5-5.9 11.5-11.4 22-12.1 23.3-0.8 1.2-1.9 2.2-2.4 2.2-0.5 0-4.3-5.1-8.3-11.2-4-6.2-9.5-14.8-12.2-19.1-2.8-4.3-7.6-11.9-10.9-17-3.2-5.1-11-17.5-17.4-27.7-6.3-10.2-13.4-21.6-15.8-25.5-2.4-3.9-4.4-8.2-4.4-9.7 0-1.6 4.6-11.8 10.6-23.5 5.9-11.5 13.4-26 16.9-32.3 3.4-6.3 8.4-15.6 11-20.5 2.6-4.9 8.6-16 13.3-24.5 4.6-8.5 10.9-20 14-25.5 3-5.5 10.7-19.2 17-30.5 6.3-11.3 15.8-27.9 21-37 5.2-9.1 14-24.2 19.5-33.5 5.5-9.3 15.9-26.4 23.2-38 7.3-11.6 17.2-26.6 22.1-33.5 4.8-6.9 11.9-16.8 15.7-22 3.9-5.2 10.6-14 15-19.5 4.4-5.5 15.9-17.9 25.6-27.5 9.7-9.6 21.2-20.4 25.6-23.9 4.4-3.6 12.7-9.5 18.5-13.3 5.8-3.8 15.2-9.2 21-12 5.8-2.8 14.5-6.6 19.5-8.5 5-1.9 13.5-4.5 19-5.8 5.5-1.3 11.1-2.6 12.5-2.8 1.4-0.3 15.5-0.4 60.5 0zm-581.5 411.3c12.4 0 21.5 0.5 27.5 1.5 4.9 0.9 14.3 3.1 20.8 5 6.4 1.9 16.3 5.3 21.9 7.6 5.7 2.2 15 6.6 20.8 9.7 5.8 3.1 14.3 8.2 19 11.2 4.7 3.1 12.7 9.2 17.9 13.6 5.2 4.3 12.3 11 15.7 14.9 3.4 3.9 8.6 10.1 11.6 14 2.9 3.9 8.5 11.5 12.4 17 3.9 5.5 13.2 18.8 20.6 29.5 7.4 10.7 21.1 30.7 30.3 44.5 9.3 13.7 22.9 34 30.3 45 7.4 11 19.9 29.5 27.7 41 7.8 11.5 21 31.1 29.5 43.5 8.4 12.4 18.3 26.5 21.8 31.5 3.6 5 10.7 14.4 15.7 21 5.1 6.6 15.1 18.5 22.3 26.5 7.2 8 16.6 17.7 20.9 21.6 4.3 3.9 10.7 9.2 14.3 11.8 3.6 2.6 10.8 7.2 16 10.1 5.2 2.9 13.5 6.7 18.5 8.4 5 1.6 13.3 3.5 18.5 4.2 5.8 0.7 13.6 0.8 20 0.4 6.5-0.4 13.4-1.6 18-3 4.1-1.4 12-4.7 17.5-7.5 5.5-2.8 12.9-7.2 16.5-9.7 3.6-2.6 12.6-10.7 20-18.2 7.4-7.5 16.6-17.4 20.3-22.1 3.8-4.7 10.6-14.1 15.2-21 4.6-6.9 11.5-17.9 15.5-24.5 3.9-6.6 14.4-26.6 23.4-44.5 8.9-17.9 18.9-38.3 22.1-45.5 3.3-7.1 7.8-16.3 10-20.4 2.2-4.1 4.8-7.9 5.7-8.5 0.9-0.6 1.9-0.9 2.2-0.6 0.2 0.3 1 7.9 1.6 17 0.7 9.1 1.2 26.4 1.3 38.5 0 12.1-0.5 28.3-1.1 36-0.7 7.7-2.2 21.2-3.3 30-1.1 8.8-3.4 23-5 31.5-1.7 8.5-4.8 22.7-7.1 31.5-2.2 8.8-6.3 23-9 31.5-2.8 8.5-8 22.5-11.5 31-3.6 8.5-9.3 21.1-12.8 28-3.5 6.9-10.7 19.5-16 28-5.3 8.5-14.1 21.4-19.5 28.5-5.4 7.1-13.3 16.8-17.6 21.4-4.4 4.6-12.4 12.1-17.9 16.6-5.5 4.5-13.4 10.4-17.5 13.1-4.1 2.6-12 6.9-17.5 9.6-5.5 2.6-14.5 6-20 7.5-9.6 2.7-10.9 2.8-31.5 2.7-20.4 0-21.9-0.2-30.3-2.7-4.8-1.5-13.1-4.9-18.4-7.6-5.4-2.8-13-7.1-17-9.8-3.9-2.6-11.8-8.8-17.4-13.8-5.6-5-15.1-14.6-21.2-21.5-7.5-8.5-16.2-20.3-27.2-37-9-13.5-19.6-30.4-23.7-37.5-4.1-7.1-12.9-22.9-19.5-35-6.6-12.1-15-27.4-18.5-34-3.6-6.6-13.4-24.6-21.8-40-8.4-15.4-21.8-39.5-29.8-53.5-7.9-14-24.6-42.4-37-63-12.4-20.6-28.5-46.5-35.7-57.5-7.3-11-16.8-24.5-21.2-30-4.4-5.5-12.3-14-17.5-19-5.3-5-13.4-11.3-17.9-14-4.6-2.8-12-6.5-16.4-8.2-4.4-1.8-11.1-3.9-15-4.8-3.9-0.8-11.9-1.5-18-1.5-6.1 0-14.1 0.5-18 1-3.9 0.6-10.6 2.2-15 3.7-4.4 1.4-11.2 4.2-15 6.1-3.8 1.9-8.8 4.7-11 6.1-2.2 1.4-7.6 5.2-12 8.5-4.4 3.3-13.9 11.9-21 19.1-7.2 7.1-16 16.8-19.5 21.5-3.6 4.7-9.3 12.8-12.8 18-3.5 5.2-9.6 16-13.6 24-4.1 8-9.4 19.7-12 26-2.5 6.3-6.4 18.7-8.6 27.5-3.1 12.2-4.3 19.6-5.2 31-0.9 11.2-0.9 19.3-0.1 32 1 14.4 1.6 18.3 4.1 25.5 1.6 4.7 4.3 10.7 6.1 13.5 1.7 2.7 5.5 7.4 8.4 10.4 2.8 2.9 7.4 6.4 10.2 7.7 2.7 1.3 7.7 2.8 11 3.5 3.3 0.6 8 0.8 10.5 0.4 2.5-0.4 8.1-2 12.5-3.6 4.6-1.6 12.7-5.9 19-10 6.1-4 13.9-9.5 17.5-12.4 3.6-2.8 11.7-9.9 18-15.6 6.3-5.8 17.1-16.6 24-24 6.9-7.4 17.6-19.9 23.9-27.9 6.3-8 16.2-21.3 22-29.5 5.9-8.3 13.8-20 17.7-26 3.8-6 11.2-18.1 16.4-26.8 5.2-8.6 9.8-15.7 10.3-15.7 0.4 0 3.9 6.6 7.8 14.7 3.9 8.2 13.7 29.4 21.9 47.3 8.1 17.9 16.1 35.6 17.8 39.5 1.6 3.9 3.2 7.7 3.5 8.5 0.2 0.8-0.5 3.1-1.6 5-1.2 1.9-6.8 10-12.6 18-5.7 8-13.8 19-18 24.5-4.1 5.5-11.7 15.4-17 22-5.2 6.6-12 14.9-15 18.5-3.1 3.6-10.2 11.7-15.7 18-5.6 6.3-16.2 17.4-23.5 24.5-7.4 7.1-18.6 17.3-24.9 22.5-6.3 5.3-16 12.7-21.5 16.6-5.5 3.8-12.9 8.8-16.5 11-3.6 2.3-10.8 6.3-16 8.9-5.2 2.6-13.3 6.2-18 8.1-4.7 1.8-13.2 4.5-19 6.1-9.9 2.6-11.7 2.8-30 2.8-16.9-0.1-20.6-0.4-28-2.3-4.7-1.3-12.1-4-16.5-6-4.4-2.1-12.2-6.7-17.4-10.2-5.2-3.6-13.8-10.8-19.1-16-5.4-5.2-12.9-13.8-16.8-19-3.9-5.2-9.4-13.5-12.2-18.5-2.9-5-6.7-12-8.6-15.8-1.9-3.7-5.6-12.2-8.3-19-2.6-6.7-6-15.8-7.4-20.2-1.4-4.4-3.8-12.5-5.2-18-1.4-5.5-3.6-16.8-5-25-1.3-8.3-2.9-19.7-3.5-25.5-0.6-5.8-1-21.9-1-35.8 0-16.9 0.5-29.1 1.5-37 0.9-6.4 2.4-16 3.5-21.2 1.1-5.2 3.5-14.9 5.4-21.5 1.8-6.6 5.1-16.5 7.1-22 2-5.5 7.9-18.5 13-29 5.2-10.5 13.4-25.1 18.3-32.5 4.9-7.4 12.1-17.8 16.1-23 4-5.2 11.7-14.5 17.3-20.5 5.5-6.1 16.1-16.8 23.7-23.8 7.5-7.1 19.4-17.3 26.6-22.7 7.2-5.4 17.6-12.5 23.2-15.9 5.7-3.4 15.1-8.5 21-11.5 6-2.9 15.1-7 20.3-9.1 5.2-2 14.4-5 20.5-6.6 10.1-2.6 12.5-2.8 29.5-2.9zm36.7-405c0.7 0 1.3 0.8 1.3 1.7 0 1-1.1 5.2-2.6 9.3-1.4 4.1-3.4 11.3-4.4 16-1.2 5-2 12.4-2 18 0 5.2 0.7 13.5 1.5 18.5 0.9 4.9 2.5 11.9 3.7 15.5 1.2 3.6 3.2 9 4.6 12 1.3 3 4.9 9.7 8.1 14.9 3.1 5.2 9 13.3 13.1 18 4.1 4.7 11.3 12.2 16 16.7 4.7 4.4 10.5 9.9 13 12.1 2.5 2.2 8.1 6.9 12.5 10.4 4.4 3.5 12.5 9.7 18 13.6 5.5 3.9 16.3 11.1 24 15.9 7.7 4.8 19.6 11.6 26.5 15 6.9 3.5 20.4 9.3 30 12.9 9.6 3.6 19.3 7.3 21.5 8.2 2.2 0.9 4.6 2.2 5.3 2.7 0.9 0.7 1.1 2 0.7 3.6-0.4 1.4-1.6 4.5-2.7 7-1.1 2.5-7.2 14.9-13.5 27.5-6.4 12.6-13.6 26.8-16 31.5-2.5 4.7-6.3 11.8-8.4 15.7-3.6 6.7-4.1 7.2-6.2 6.4-1.2-0.5-9.6-4.4-18.7-8.8-9.1-4.4-22.8-11.5-30.5-15.8-7.7-4.4-19.4-11.5-26-15.9-6.6-4.3-15.6-10.6-20-13.9-4.4-3.3-12.7-10.2-18.5-15.2-5.8-5.1-14.6-13.7-19.6-19.1-5-5.5-10.6-11.7-12.5-13.9-2-2.2-5.6-6.7-8-10-2.5-3.3-6.8-9.4-9.6-13.5-2.7-4.1-7.2-11.6-9.9-16.5-2.7-5-6.6-12.8-8.6-17.5-1.9-4.7-5-12.8-6.7-18-1.7-5.2-3.7-12.4-4.6-16-1-4.6-1.5-12.1-1.5-25.3 0-13.1 0.5-21 1.6-26.5 0.8-4.2 2.7-11.1 4-15.2 1.4-4.1 5.2-12.9 8.4-19.5 3.2-6.6 8.6-15.6 11.8-20 3.3-4.4 8.1-10.1 10.8-12.7 2.7-2.5 6.7-5.8 8.8-7.2 2.2-1.4 4.5-2.6 5.3-2.6z"/>
	</g>
</svg>